M48
;DRILL file {KiCad (2015-11-15 BZR 6316, Git d5aef07)-product} date wto, 24 lis 2015, 14:20:01
;FORMAT={2:4/ absolute / inch / suppress leading zeros}
FMAT,2
INCH,TZ
T1C0.016
T2C0.020
T3C0.040
%
G90
G05
M72
T1
X36587Y-25364
X36587Y-35207
X36587Y-45049
X36587Y-54892
X36770Y-27203
X36770Y-37046
X36770Y-46888
X36770Y-56731
X37598Y-24169
X37598Y-34011
X37598Y-43854
X37598Y-53696
X37620Y-23595
X37620Y-33438
X37620Y-43280
X37620Y-53123
X37912Y-24207
X37912Y-34050
X37912Y-43892
X37912Y-53735
X38862Y-23905
X38862Y-33748
X38862Y-43590
X38862Y-53433
X38869Y-23590
X38869Y-33433
X38869Y-43275
X38869Y-53118
X39024Y-27481
X39024Y-37324
X39024Y-47166
X39024Y-57009
X39967Y-23672
X39967Y-33514
X39967Y-43357
X39967Y-53199
X40754Y-23543
X40754Y-33386
X40754Y-43228
X40754Y-53071
X42088Y-23763
X42088Y-33606
X42088Y-43448
X42088Y-53291
X42359Y-25123
X42359Y-34966
X42359Y-44808
X42359Y-54651
X42362Y-25502
X42362Y-35345
X42362Y-45187
X42362Y-55030
X42941Y-27153
X42941Y-36996
X42941Y-46839
X42941Y-56681
X43108Y-23199
X43108Y-33041
X43108Y-42884
X43108Y-52726
X43560Y-26191
X43560Y-36033
X43560Y-45876
X43560Y-55719
X43701Y-25276
X43701Y-35118
X43701Y-44961
X43701Y-54803
X44078Y-23379
X44078Y-33221
X44078Y-43064
X44078Y-52906
X44993Y-27121
X44993Y-36963
X44993Y-46806
X44993Y-56648
X45448Y-22172
X45448Y-32015
X45448Y-41857
X45448Y-51700
X45863Y-24293
X45863Y-34136
X45863Y-43978
X45863Y-53821
X45869Y-23514
X45869Y-33357
X45869Y-43199
X45869Y-53042
X46284Y-26307
X46284Y-36150
X46284Y-45992
X46284Y-55835
X53910Y-25364
X53910Y-35207
X53910Y-45049
X53910Y-54892
X54093Y-27203
X54093Y-37046
X54093Y-46888
X54093Y-56731
X54921Y-24169
X54921Y-34011
X54921Y-43854
X54921Y-53696
X54943Y-23595
X54943Y-33438
X54943Y-43280
X54943Y-53123
X55235Y-24207
X55235Y-34050
X55235Y-43892
X55235Y-53735
X56185Y-23905
X56185Y-33748
X56185Y-43590
X56185Y-53433
X56191Y-23590
X56191Y-33433
X56191Y-43275
X56191Y-53118
X56347Y-27481
X56347Y-37324
X56347Y-47166
X56347Y-57009
X57290Y-23672
X57290Y-33514
X57290Y-43357
X57290Y-53199
X58077Y-23543
X58077Y-33386
X58077Y-43228
X58077Y-53071
X59411Y-23763
X59411Y-33606
X59411Y-43448
X59411Y-53291
X59681Y-25123
X59681Y-34966
X59681Y-44808
X59681Y-54651
X59685Y-25502
X59685Y-35345
X59685Y-45187
X59685Y-55030
X60264Y-27153
X60264Y-36996
X60264Y-46839
X60264Y-56681
X60431Y-23199
X60431Y-33041
X60431Y-42884
X60431Y-52726
X60883Y-26191
X60883Y-36033
X60883Y-45876
X60883Y-55719
X61024Y-25276
X61024Y-35118
X61024Y-44961
X61024Y-54803
X61401Y-23379
X61401Y-33221
X61401Y-43064
X61401Y-52906
X62316Y-27121
X62316Y-36963
X62316Y-46806
X62316Y-56648
X62771Y-22172
X62771Y-32015
X62771Y-41857
X62771Y-51700
X63186Y-24293
X63186Y-34136
X63186Y-43978
X63186Y-53821
X63192Y-23514
X63192Y-33357
X63192Y-43199
X63192Y-53042
X63607Y-26307
X63607Y-36150
X63607Y-45992
X63607Y-55835
X71233Y-25364
X71233Y-35207
X71233Y-45049
X71233Y-54892
X71416Y-27203
X71416Y-37046
X71416Y-46888
X71416Y-56731
X72243Y-24169
X72243Y-34011
X72243Y-43854
X72243Y-53696
X72266Y-23595
X72266Y-33438
X72266Y-43280
X72266Y-53123
X72558Y-24207
X72558Y-34050
X72558Y-43892
X72558Y-53735
X73508Y-23905
X73508Y-33748
X73508Y-43590
X73508Y-53433
X73514Y-23590
X73514Y-33433
X73514Y-43275
X73514Y-53118
X73670Y-27481
X73670Y-37324
X73670Y-47166
X73670Y-57009
X74613Y-23672
X74613Y-33514
X74613Y-43357
X74613Y-53199
X75400Y-23543
X75400Y-33386
X75400Y-43228
X75400Y-53071
X76734Y-23763
X76734Y-33606
X76734Y-43448
X76734Y-53291
X77004Y-25123
X77004Y-34966
X77004Y-44808
X77004Y-54651
X77007Y-25502
X77007Y-35345
X77007Y-45187
X77007Y-55030
X77587Y-27153
X77587Y-36996
X77587Y-46839
X77587Y-56681
X77754Y-23199
X77754Y-33041
X77754Y-42884
X77754Y-52726
X78206Y-26191
X78206Y-36033
X78206Y-45876
X78206Y-55719
X78346Y-25276
X78346Y-35118
X78346Y-44961
X78346Y-54803
X78724Y-23379
X78724Y-33221
X78724Y-43064
X78724Y-52906
X79638Y-27121
X79638Y-36963
X79638Y-46806
X79638Y-56648
X80093Y-22172
X80093Y-32015
X80093Y-41857
X80093Y-51700
X80509Y-24293
X80509Y-34136
X80509Y-43978
X80509Y-53821
X80515Y-23514
X80515Y-33357
X80515Y-43199
X80515Y-53042
X80930Y-26307
X80930Y-36150
X80930Y-45992
X80930Y-55835
T2
X36398Y-27854
X36398Y-37697
X36398Y-47539
X36398Y-57382
X37392Y-25768
X37392Y-35610
X37392Y-45453
X37392Y-55295
X39203Y-24970
X39203Y-34813
X39203Y-44656
X39203Y-54498
X39265Y-22288
X39265Y-32131
X39265Y-41973
X39265Y-51816
X39892Y-22874
X39892Y-32717
X39892Y-42559
X39892Y-52402
X40561Y-27461
X40561Y-37303
X40561Y-47146
X40561Y-56988
X41722Y-25787
X41722Y-35630
X41722Y-45472
X41722Y-55315
X43248Y-24390
X43248Y-34232
X43248Y-44075
X43248Y-53917
X46933Y-23854
X46933Y-33697
X46933Y-43539
X46933Y-53382
X47364Y-23867
X47364Y-33710
X47364Y-43553
X47364Y-53395
X53720Y-27854
X53720Y-37697
X53720Y-47539
X53720Y-57382
X54715Y-25768
X54715Y-35610
X54715Y-45453
X54715Y-55295
X56526Y-24970
X56526Y-34813
X56526Y-44656
X56526Y-54498
X56588Y-22288
X56588Y-32131
X56588Y-41973
X56588Y-51816
X57215Y-22874
X57215Y-32717
X57215Y-42559
X57215Y-52402
X57884Y-27461
X57884Y-37303
X57884Y-47146
X57884Y-56988
X59045Y-25787
X59045Y-35630
X59045Y-45472
X59045Y-55315
X60571Y-24390
X60571Y-34232
X60571Y-44075
X60571Y-53917
X64255Y-23854
X64255Y-33697
X64255Y-43539
X64255Y-53382
X64686Y-23867
X64686Y-33710
X64686Y-43553
X64686Y-53395
X71043Y-27854
X71043Y-37697
X71043Y-47539
X71043Y-57382
X72037Y-25768
X72037Y-35610
X72037Y-45453
X72037Y-55295
X73848Y-24970
X73848Y-34813
X73848Y-44656
X73848Y-54498
X73911Y-22288
X73911Y-32131
X73911Y-41973
X73911Y-51816
X74537Y-22874
X74537Y-32717
X74537Y-42559
X74537Y-52402
X75207Y-27461
X75207Y-37303
X75207Y-47146
X75207Y-56988
X76368Y-25787
X76368Y-35630
X76368Y-45472
X76368Y-55315
X77894Y-24390
X77894Y-34232
X77894Y-44075
X77894Y-53917
X81578Y-23854
X81578Y-33697
X81578Y-43539
X81578Y-53382
X82009Y-23867
X82009Y-33710
X82009Y-43553
X82009Y-53395
T3
X33704Y-20660
X33704Y-30502
X33704Y-40345
X33704Y-50187
X34528Y-22476
X34528Y-23476
X34528Y-24476
X34528Y-25476
X34528Y-26476
X34528Y-32319
X34528Y-33319
X34528Y-34319
X34528Y-35319
X34528Y-36319
X34528Y-42161
X34528Y-43161
X34528Y-44161
X34528Y-45161
X34528Y-46161
X34528Y-52004
X34528Y-53004
X34528Y-54004
X34528Y-55004
X34528Y-56004
X34704Y-20660
X34704Y-30502
X34704Y-40345
X34704Y-50187
X35704Y-20660
X35704Y-30502
X35704Y-40345
X35704Y-50187
X36704Y-20660
X36704Y-30502
X36704Y-40345
X36704Y-50187
X37704Y-20660
X37704Y-30502
X37704Y-40345
X37704Y-50187
X38704Y-20660
X38704Y-30502
X38704Y-40345
X38704Y-50187
X39704Y-20660
X39704Y-30502
X39704Y-40345
X39704Y-50187
X40704Y-20660
X40704Y-30502
X40704Y-40345
X40704Y-50187
X41704Y-20660
X41704Y-30502
X41704Y-40345
X41704Y-50187
X42704Y-20660
X42704Y-30502
X42704Y-40345
X42704Y-50187
X43704Y-20660
X43704Y-30502
X43704Y-40345
X43704Y-50187
X44704Y-20660
X44704Y-30502
X44704Y-40345
X44704Y-50187
X45704Y-20660
X45704Y-30502
X45704Y-40345
X45704Y-50187
X46704Y-20660
X46704Y-30502
X46704Y-40345
X46704Y-50187
X47704Y-20660
X47704Y-30502
X47704Y-40345
X47704Y-50187
X48704Y-20660
X48704Y-30502
X48704Y-40345
X48704Y-50187
X51027Y-20660
X51027Y-30502
X51027Y-40345
X51027Y-50187
X51850Y-22476
X51850Y-23476
X51850Y-24476
X51850Y-25476
X51850Y-26476
X51850Y-32319
X51850Y-33319
X51850Y-34319
X51850Y-35319
X51850Y-36319
X51850Y-42161
X51850Y-43161
X51850Y-44161
X51850Y-45161
X51850Y-46161
X51850Y-52004
X51850Y-53004
X51850Y-54004
X51850Y-55004
X51850Y-56004
X52027Y-20660
X52027Y-30502
X52027Y-40345
X52027Y-50187
X53027Y-20660
X53027Y-30502
X53027Y-40345
X53027Y-50187
X54027Y-20660
X54027Y-30502
X54027Y-40345
X54027Y-50187
X55027Y-20660
X55027Y-30502
X55027Y-40345
X55027Y-50187
X56027Y-20660
X56027Y-30502
X56027Y-40345
X56027Y-50187
X57027Y-20660
X57027Y-30502
X57027Y-40345
X57027Y-50187
X58027Y-20660
X58027Y-30502
X58027Y-40345
X58027Y-50187
X59027Y-20660
X59027Y-30502
X59027Y-40345
X59027Y-50187
X60027Y-20660
X60027Y-30502
X60027Y-40345
X60027Y-50187
X61027Y-20660
X61027Y-30502
X61027Y-40345
X61027Y-50187
X62027Y-20660
X62027Y-30502
X62027Y-40345
X62027Y-50187
X63027Y-20660
X63027Y-30502
X63027Y-40345
X63027Y-50187
X64027Y-20660
X64027Y-30502
X64027Y-40345
X64027Y-50187
X65027Y-20660
X65027Y-30502
X65027Y-40345
X65027Y-50187
X66027Y-20660
X66027Y-30502
X66027Y-40345
X66027Y-50187
X68350Y-20660
X68350Y-30502
X68350Y-40345
X68350Y-50187
X69173Y-22476
X69173Y-23476
X69173Y-24476
X69173Y-25476
X69173Y-26476
X69173Y-32319
X69173Y-33319
X69173Y-34319
X69173Y-35319
X69173Y-36319
X69173Y-42161
X69173Y-43161
X69173Y-44161
X69173Y-45161
X69173Y-46161
X69173Y-52004
X69173Y-53004
X69173Y-54004
X69173Y-55004
X69173Y-56004
X69350Y-20660
X69350Y-30502
X69350Y-40345
X69350Y-50187
X70350Y-20660
X70350Y-30502
X70350Y-40345
X70350Y-50187
X71350Y-20660
X71350Y-30502
X71350Y-40345
X71350Y-50187
X72350Y-20660
X72350Y-30502
X72350Y-40345
X72350Y-50187
X73350Y-20660
X73350Y-30502
X73350Y-40345
X73350Y-50187
X74350Y-20660
X74350Y-30502
X74350Y-40345
X74350Y-50187
X75350Y-20660
X75350Y-30502
X75350Y-40345
X75350Y-50187
X76350Y-20660
X76350Y-30502
X76350Y-40345
X76350Y-50187
X77350Y-20660
X77350Y-30502
X77350Y-40345
X77350Y-50187
X78350Y-20660
X78350Y-30502
X78350Y-40345
X78350Y-50187
X79350Y-20660
X79350Y-30502
X79350Y-40345
X79350Y-50187
X80350Y-20660
X80350Y-30502
X80350Y-40345
X80350Y-50187
X81350Y-20660
X81350Y-30502
X81350Y-40345
X81350Y-50187
X82350Y-20660
X82350Y-30502
X82350Y-40345
X82350Y-50187
X83350Y-20660
X83350Y-30502
X83350Y-40345
X83350Y-50187
T0
M30
