G04 #@! TF.FileFunction,Legend,Bot*
%FSLAX46Y46*%
G04 Gerber Fmt 4.6, Leading zero omitted, Abs format (unit mm)*
G04 Created by KiCad (PCBNEW (2015-11-29 BZR 6336, Git 7b0d981)-product) date czw, 10 gru 2015, 08:29:52*
%MOMM*%
G01*
G04 APERTURE LIST*
%ADD10C,0.100000*%
%ADD11C,0.150000*%
G04 APERTURE END LIST*
D10*
D11*
X179724200Y-126274200D02*
X180424200Y-126274200D01*
X180424200Y-125074200D02*
X179724200Y-125074200D01*
X135724200Y-126274200D02*
X136424200Y-126274200D01*
X136424200Y-125074200D02*
X135724200Y-125074200D01*
X91724200Y-126274200D02*
X92424200Y-126274200D01*
X92424200Y-125074200D02*
X91724200Y-125074200D01*
X47724200Y-126274200D02*
X48424200Y-126274200D01*
X48424200Y-125074200D02*
X47724200Y-125074200D01*
X179724200Y-101274200D02*
X180424200Y-101274200D01*
X180424200Y-100074200D02*
X179724200Y-100074200D01*
X135724200Y-101274200D02*
X136424200Y-101274200D01*
X136424200Y-100074200D02*
X135724200Y-100074200D01*
X91724200Y-101274200D02*
X92424200Y-101274200D01*
X92424200Y-100074200D02*
X91724200Y-100074200D01*
X47724200Y-101274200D02*
X48424200Y-101274200D01*
X48424200Y-100074200D02*
X47724200Y-100074200D01*
X179724200Y-76274200D02*
X180424200Y-76274200D01*
X180424200Y-75074200D02*
X179724200Y-75074200D01*
X135724200Y-76274200D02*
X136424200Y-76274200D01*
X136424200Y-75074200D02*
X135724200Y-75074200D01*
X91724200Y-76274200D02*
X92424200Y-76274200D01*
X92424200Y-75074200D02*
X91724200Y-75074200D01*
X47724200Y-76274200D02*
X48424200Y-76274200D01*
X48424200Y-75074200D02*
X47724200Y-75074200D01*
X179724200Y-51274200D02*
X180424200Y-51274200D01*
X180424200Y-50074200D02*
X179724200Y-50074200D01*
X135724200Y-51274200D02*
X136424200Y-51274200D01*
X136424200Y-50074200D02*
X135724200Y-50074200D01*
X91724200Y-51274200D02*
X92424200Y-51274200D01*
X92424200Y-50074200D02*
X91724200Y-50074200D01*
X208237274Y-116594762D02*
X170137274Y-116594762D01*
X170137274Y-116594762D02*
X170137274Y-114054762D01*
X170137274Y-114054762D02*
X208237274Y-114054762D01*
X211057274Y-113774762D02*
X209507274Y-113774762D01*
X208237274Y-114054762D02*
X208237274Y-116594762D01*
X209507274Y-116874762D02*
X211057274Y-116874762D01*
X211057274Y-116874762D02*
X211057274Y-113774762D01*
X164237274Y-116594762D02*
X126137274Y-116594762D01*
X126137274Y-116594762D02*
X126137274Y-114054762D01*
X126137274Y-114054762D02*
X164237274Y-114054762D01*
X167057274Y-113774762D02*
X165507274Y-113774762D01*
X164237274Y-114054762D02*
X164237274Y-116594762D01*
X165507274Y-116874762D02*
X167057274Y-116874762D01*
X167057274Y-116874762D02*
X167057274Y-113774762D01*
X120237274Y-116594762D02*
X82137274Y-116594762D01*
X82137274Y-116594762D02*
X82137274Y-114054762D01*
X82137274Y-114054762D02*
X120237274Y-114054762D01*
X123057274Y-113774762D02*
X121507274Y-113774762D01*
X120237274Y-114054762D02*
X120237274Y-116594762D01*
X121507274Y-116874762D02*
X123057274Y-116874762D01*
X123057274Y-116874762D02*
X123057274Y-113774762D01*
X76237274Y-116594762D02*
X38137274Y-116594762D01*
X38137274Y-116594762D02*
X38137274Y-114054762D01*
X38137274Y-114054762D02*
X76237274Y-114054762D01*
X79057274Y-113774762D02*
X77507274Y-113774762D01*
X76237274Y-114054762D02*
X76237274Y-116594762D01*
X77507274Y-116874762D02*
X79057274Y-116874762D01*
X79057274Y-116874762D02*
X79057274Y-113774762D01*
X208237274Y-91594762D02*
X170137274Y-91594762D01*
X170137274Y-91594762D02*
X170137274Y-89054762D01*
X170137274Y-89054762D02*
X208237274Y-89054762D01*
X211057274Y-88774762D02*
X209507274Y-88774762D01*
X208237274Y-89054762D02*
X208237274Y-91594762D01*
X209507274Y-91874762D02*
X211057274Y-91874762D01*
X211057274Y-91874762D02*
X211057274Y-88774762D01*
X164237274Y-91594762D02*
X126137274Y-91594762D01*
X126137274Y-91594762D02*
X126137274Y-89054762D01*
X126137274Y-89054762D02*
X164237274Y-89054762D01*
X167057274Y-88774762D02*
X165507274Y-88774762D01*
X164237274Y-89054762D02*
X164237274Y-91594762D01*
X165507274Y-91874762D02*
X167057274Y-91874762D01*
X167057274Y-91874762D02*
X167057274Y-88774762D01*
X120237274Y-91594762D02*
X82137274Y-91594762D01*
X82137274Y-91594762D02*
X82137274Y-89054762D01*
X82137274Y-89054762D02*
X120237274Y-89054762D01*
X123057274Y-88774762D02*
X121507274Y-88774762D01*
X120237274Y-89054762D02*
X120237274Y-91594762D01*
X121507274Y-91874762D02*
X123057274Y-91874762D01*
X123057274Y-91874762D02*
X123057274Y-88774762D01*
X76237274Y-91594762D02*
X38137274Y-91594762D01*
X38137274Y-91594762D02*
X38137274Y-89054762D01*
X38137274Y-89054762D02*
X76237274Y-89054762D01*
X79057274Y-88774762D02*
X77507274Y-88774762D01*
X76237274Y-89054762D02*
X76237274Y-91594762D01*
X77507274Y-91874762D02*
X79057274Y-91874762D01*
X79057274Y-91874762D02*
X79057274Y-88774762D01*
X208237274Y-66594762D02*
X170137274Y-66594762D01*
X170137274Y-66594762D02*
X170137274Y-64054762D01*
X170137274Y-64054762D02*
X208237274Y-64054762D01*
X211057274Y-63774762D02*
X209507274Y-63774762D01*
X208237274Y-64054762D02*
X208237274Y-66594762D01*
X209507274Y-66874762D02*
X211057274Y-66874762D01*
X211057274Y-66874762D02*
X211057274Y-63774762D01*
X164237274Y-66594762D02*
X126137274Y-66594762D01*
X126137274Y-66594762D02*
X126137274Y-64054762D01*
X126137274Y-64054762D02*
X164237274Y-64054762D01*
X167057274Y-63774762D02*
X165507274Y-63774762D01*
X164237274Y-64054762D02*
X164237274Y-66594762D01*
X165507274Y-66874762D02*
X167057274Y-66874762D01*
X167057274Y-66874762D02*
X167057274Y-63774762D01*
X120237274Y-66594762D02*
X82137274Y-66594762D01*
X82137274Y-66594762D02*
X82137274Y-64054762D01*
X82137274Y-64054762D02*
X120237274Y-64054762D01*
X123057274Y-63774762D02*
X121507274Y-63774762D01*
X120237274Y-64054762D02*
X120237274Y-66594762D01*
X121507274Y-66874762D02*
X123057274Y-66874762D01*
X123057274Y-66874762D02*
X123057274Y-63774762D01*
X76237274Y-66594762D02*
X38137274Y-66594762D01*
X38137274Y-66594762D02*
X38137274Y-64054762D01*
X38137274Y-64054762D02*
X76237274Y-64054762D01*
X79057274Y-63774762D02*
X77507274Y-63774762D01*
X76237274Y-64054762D02*
X76237274Y-66594762D01*
X77507274Y-66874762D02*
X79057274Y-66874762D01*
X79057274Y-66874762D02*
X79057274Y-63774762D01*
X208237274Y-41594762D02*
X170137274Y-41594762D01*
X170137274Y-41594762D02*
X170137274Y-39054762D01*
X170137274Y-39054762D02*
X208237274Y-39054762D01*
X211057274Y-38774762D02*
X209507274Y-38774762D01*
X208237274Y-39054762D02*
X208237274Y-41594762D01*
X209507274Y-41874762D02*
X211057274Y-41874762D01*
X211057274Y-41874762D02*
X211057274Y-38774762D01*
X164237274Y-41594762D02*
X126137274Y-41594762D01*
X126137274Y-41594762D02*
X126137274Y-39054762D01*
X126137274Y-39054762D02*
X164237274Y-39054762D01*
X167057274Y-38774762D02*
X165507274Y-38774762D01*
X164237274Y-39054762D02*
X164237274Y-41594762D01*
X165507274Y-41874762D02*
X167057274Y-41874762D01*
X167057274Y-41874762D02*
X167057274Y-38774762D01*
X120237274Y-41594762D02*
X82137274Y-41594762D01*
X82137274Y-41594762D02*
X82137274Y-39054762D01*
X82137274Y-39054762D02*
X120237274Y-39054762D01*
X123057274Y-38774762D02*
X121507274Y-38774762D01*
X120237274Y-39054762D02*
X120237274Y-41594762D01*
X121507274Y-41874762D02*
X123057274Y-41874762D01*
X123057274Y-41874762D02*
X123057274Y-38774762D01*
X191477200Y-131179200D02*
X191477200Y-130479200D01*
X190277200Y-130479200D02*
X190277200Y-131179200D01*
X147477200Y-131179200D02*
X147477200Y-130479200D01*
X146277200Y-130479200D02*
X146277200Y-131179200D01*
X103477200Y-131179200D02*
X103477200Y-130479200D01*
X102277200Y-130479200D02*
X102277200Y-131179200D01*
X59477200Y-131179200D02*
X59477200Y-130479200D01*
X58277200Y-130479200D02*
X58277200Y-131179200D01*
X191477200Y-106179200D02*
X191477200Y-105479200D01*
X190277200Y-105479200D02*
X190277200Y-106179200D01*
X147477200Y-106179200D02*
X147477200Y-105479200D01*
X146277200Y-105479200D02*
X146277200Y-106179200D01*
X103477200Y-106179200D02*
X103477200Y-105479200D01*
X102277200Y-105479200D02*
X102277200Y-106179200D01*
X59477200Y-106179200D02*
X59477200Y-105479200D01*
X58277200Y-105479200D02*
X58277200Y-106179200D01*
X191477200Y-81179200D02*
X191477200Y-80479200D01*
X190277200Y-80479200D02*
X190277200Y-81179200D01*
X147477200Y-81179200D02*
X147477200Y-80479200D01*
X146277200Y-80479200D02*
X146277200Y-81179200D01*
X103477200Y-81179200D02*
X103477200Y-80479200D01*
X102277200Y-80479200D02*
X102277200Y-81179200D01*
X59477200Y-81179200D02*
X59477200Y-80479200D01*
X58277200Y-80479200D02*
X58277200Y-81179200D01*
X191477200Y-56179200D02*
X191477200Y-55479200D01*
X190277200Y-55479200D02*
X190277200Y-56179200D01*
X147477200Y-56179200D02*
X147477200Y-55479200D01*
X146277200Y-55479200D02*
X146277200Y-56179200D01*
X103477200Y-56179200D02*
X103477200Y-55479200D01*
X102277200Y-55479200D02*
X102277200Y-56179200D01*
X206099200Y-125349200D02*
X206099200Y-126049200D01*
X207299200Y-126049200D02*
X207299200Y-125349200D01*
X162099200Y-125349200D02*
X162099200Y-126049200D01*
X163299200Y-126049200D02*
X163299200Y-125349200D01*
X118099200Y-125349200D02*
X118099200Y-126049200D01*
X119299200Y-126049200D02*
X119299200Y-125349200D01*
X74099200Y-125349200D02*
X74099200Y-126049200D01*
X75299200Y-126049200D02*
X75299200Y-125349200D01*
X206099200Y-100349200D02*
X206099200Y-101049200D01*
X207299200Y-101049200D02*
X207299200Y-100349200D01*
X162099200Y-100349200D02*
X162099200Y-101049200D01*
X163299200Y-101049200D02*
X163299200Y-100349200D01*
X118099200Y-100349200D02*
X118099200Y-101049200D01*
X119299200Y-101049200D02*
X119299200Y-100349200D01*
X74099200Y-100349200D02*
X74099200Y-101049200D01*
X75299200Y-101049200D02*
X75299200Y-100349200D01*
X206099200Y-75349200D02*
X206099200Y-76049200D01*
X207299200Y-76049200D02*
X207299200Y-75349200D01*
X162099200Y-75349200D02*
X162099200Y-76049200D01*
X163299200Y-76049200D02*
X163299200Y-75349200D01*
X118099200Y-75349200D02*
X118099200Y-76049200D01*
X119299200Y-76049200D02*
X119299200Y-75349200D01*
X74099200Y-75349200D02*
X74099200Y-76049200D01*
X75299200Y-76049200D02*
X75299200Y-75349200D01*
X206099200Y-50349200D02*
X206099200Y-51049200D01*
X207299200Y-51049200D02*
X207299200Y-50349200D01*
X162099200Y-50349200D02*
X162099200Y-51049200D01*
X163299200Y-51049200D02*
X163299200Y-50349200D01*
X118099200Y-50349200D02*
X118099200Y-51049200D01*
X119299200Y-51049200D02*
X119299200Y-50349200D01*
X191574200Y-122749200D02*
X191574200Y-122049200D01*
X190374200Y-122049200D02*
X190374200Y-122749200D01*
X147574200Y-122749200D02*
X147574200Y-122049200D01*
X146374200Y-122049200D02*
X146374200Y-122749200D01*
X103574200Y-122749200D02*
X103574200Y-122049200D01*
X102374200Y-122049200D02*
X102374200Y-122749200D01*
X59574200Y-122749200D02*
X59574200Y-122049200D01*
X58374200Y-122049200D02*
X58374200Y-122749200D01*
X191574200Y-97749200D02*
X191574200Y-97049200D01*
X190374200Y-97049200D02*
X190374200Y-97749200D01*
X147574200Y-97749200D02*
X147574200Y-97049200D01*
X146374200Y-97049200D02*
X146374200Y-97749200D01*
X103574200Y-97749200D02*
X103574200Y-97049200D01*
X102374200Y-97049200D02*
X102374200Y-97749200D01*
X59574200Y-97749200D02*
X59574200Y-97049200D01*
X58374200Y-97049200D02*
X58374200Y-97749200D01*
X191574200Y-72749200D02*
X191574200Y-72049200D01*
X190374200Y-72049200D02*
X190374200Y-72749200D01*
X147574200Y-72749200D02*
X147574200Y-72049200D01*
X146374200Y-72049200D02*
X146374200Y-72749200D01*
X103574200Y-72749200D02*
X103574200Y-72049200D01*
X102374200Y-72049200D02*
X102374200Y-72749200D01*
X59574200Y-72749200D02*
X59574200Y-72049200D01*
X58374200Y-72049200D02*
X58374200Y-72749200D01*
X191574200Y-47749200D02*
X191574200Y-47049200D01*
X190374200Y-47049200D02*
X190374200Y-47749200D01*
X147574200Y-47749200D02*
X147574200Y-47049200D01*
X146374200Y-47049200D02*
X146374200Y-47749200D01*
X103574200Y-47749200D02*
X103574200Y-47049200D01*
X102374200Y-47049200D02*
X102374200Y-47749200D01*
X76237274Y-41594762D02*
X38137274Y-41594762D01*
X38137274Y-41594762D02*
X38137274Y-39054762D01*
X38137274Y-39054762D02*
X76237274Y-39054762D01*
X79057274Y-38774762D02*
X77507274Y-38774762D01*
X76237274Y-39054762D02*
X76237274Y-41594762D01*
X77507274Y-41874762D02*
X79057274Y-41874762D01*
X79057274Y-41874762D02*
X79057274Y-38774762D01*
X59574200Y-47749200D02*
X59574200Y-47049200D01*
X58374200Y-47049200D02*
X58374200Y-47749200D01*
X59477200Y-56179200D02*
X59477200Y-55479200D01*
X58277200Y-55479200D02*
X58277200Y-56179200D01*
X47724200Y-51274200D02*
X48424200Y-51274200D01*
X48424200Y-50074200D02*
X47724200Y-50074200D01*
X74099200Y-50349200D02*
X74099200Y-51049200D01*
X75299200Y-51049200D02*
X75299200Y-50349200D01*
X180531343Y-122805153D02*
X180578962Y-122757534D01*
X180626581Y-122614677D01*
X180626581Y-122519439D01*
X180578962Y-122376581D01*
X180483724Y-122281343D01*
X180388486Y-122233724D01*
X180198010Y-122186105D01*
X180055152Y-122186105D01*
X179864676Y-122233724D01*
X179769438Y-122281343D01*
X179674200Y-122376581D01*
X179626581Y-122519439D01*
X179626581Y-122614677D01*
X179674200Y-122757534D01*
X179721819Y-122805153D01*
X180626581Y-123757534D02*
X180626581Y-123186105D01*
X180626581Y-123471819D02*
X179626581Y-123471819D01*
X179769438Y-123376581D01*
X179864676Y-123281343D01*
X179912295Y-123186105D01*
X180626581Y-124709915D02*
X180626581Y-124138486D01*
X180626581Y-124424200D02*
X179626581Y-124424200D01*
X179769438Y-124328962D01*
X179864676Y-124233724D01*
X179912295Y-124138486D01*
X179626581Y-125328962D02*
X179626581Y-125424201D01*
X179674200Y-125519439D01*
X179721819Y-125567058D01*
X179817057Y-125614677D01*
X180007533Y-125662296D01*
X180245629Y-125662296D01*
X180436105Y-125614677D01*
X180531343Y-125567058D01*
X180578962Y-125519439D01*
X180626581Y-125424201D01*
X180626581Y-125328962D01*
X180578962Y-125233724D01*
X180531343Y-125186105D01*
X180436105Y-125138486D01*
X180245629Y-125090867D01*
X180007533Y-125090867D01*
X179817057Y-125138486D01*
X179721819Y-125186105D01*
X179674200Y-125233724D01*
X179626581Y-125328962D01*
X136531343Y-123328962D02*
X136578962Y-123281343D01*
X136626581Y-123138486D01*
X136626581Y-123043248D01*
X136578962Y-122900390D01*
X136483724Y-122805152D01*
X136388486Y-122757533D01*
X136198010Y-122709914D01*
X136055152Y-122709914D01*
X135864676Y-122757533D01*
X135769438Y-122805152D01*
X135674200Y-122900390D01*
X135626581Y-123043248D01*
X135626581Y-123138486D01*
X135674200Y-123281343D01*
X135721819Y-123328962D01*
X136626581Y-124281343D02*
X136626581Y-123709914D01*
X136626581Y-123995628D02*
X135626581Y-123995628D01*
X135769438Y-123900390D01*
X135864676Y-123805152D01*
X135912295Y-123709914D01*
X136102771Y-125043248D02*
X136102771Y-124709914D01*
X136626581Y-124709914D02*
X135626581Y-124709914D01*
X135626581Y-125186105D01*
X92531343Y-123305153D02*
X92578962Y-123257534D01*
X92626581Y-123114677D01*
X92626581Y-123019439D01*
X92578962Y-122876581D01*
X92483724Y-122781343D01*
X92388486Y-122733724D01*
X92198010Y-122686105D01*
X92055152Y-122686105D01*
X91864676Y-122733724D01*
X91769438Y-122781343D01*
X91674200Y-122876581D01*
X91626581Y-123019439D01*
X91626581Y-123114677D01*
X91674200Y-123257534D01*
X91721819Y-123305153D01*
X92626581Y-124257534D02*
X92626581Y-123686105D01*
X92626581Y-123971819D02*
X91626581Y-123971819D01*
X91769438Y-123876581D01*
X91864676Y-123781343D01*
X91912295Y-123686105D01*
X92102771Y-124686105D02*
X92102771Y-125019439D01*
X92626581Y-125162296D02*
X92626581Y-124686105D01*
X91626581Y-124686105D01*
X91626581Y-125162296D01*
X48531343Y-123257534D02*
X48578962Y-123209915D01*
X48626581Y-123067058D01*
X48626581Y-122971820D01*
X48578962Y-122828962D01*
X48483724Y-122733724D01*
X48388486Y-122686105D01*
X48198010Y-122638486D01*
X48055152Y-122638486D01*
X47864676Y-122686105D01*
X47769438Y-122733724D01*
X47674200Y-122828962D01*
X47626581Y-122971820D01*
X47626581Y-123067058D01*
X47674200Y-123209915D01*
X47721819Y-123257534D01*
X48626581Y-124209915D02*
X48626581Y-123638486D01*
X48626581Y-123924200D02*
X47626581Y-123924200D01*
X47769438Y-123828962D01*
X47864676Y-123733724D01*
X47912295Y-123638486D01*
X48626581Y-124638486D02*
X47626581Y-124638486D01*
X47626581Y-124876581D01*
X47674200Y-125019439D01*
X47769438Y-125114677D01*
X47864676Y-125162296D01*
X48055152Y-125209915D01*
X48198010Y-125209915D01*
X48388486Y-125162296D01*
X48483724Y-125114677D01*
X48578962Y-125019439D01*
X48626581Y-124876581D01*
X48626581Y-124638486D01*
X180531343Y-98257534D02*
X180578962Y-98209915D01*
X180626581Y-98067058D01*
X180626581Y-97971820D01*
X180578962Y-97828962D01*
X180483724Y-97733724D01*
X180388486Y-97686105D01*
X180198010Y-97638486D01*
X180055152Y-97638486D01*
X179864676Y-97686105D01*
X179769438Y-97733724D01*
X179674200Y-97828962D01*
X179626581Y-97971820D01*
X179626581Y-98067058D01*
X179674200Y-98209915D01*
X179721819Y-98257534D01*
X180626581Y-99209915D02*
X180626581Y-98638486D01*
X180626581Y-98924200D02*
X179626581Y-98924200D01*
X179769438Y-98828962D01*
X179864676Y-98733724D01*
X179912295Y-98638486D01*
X180531343Y-100209915D02*
X180578962Y-100162296D01*
X180626581Y-100019439D01*
X180626581Y-99924201D01*
X180578962Y-99781343D01*
X180483724Y-99686105D01*
X180388486Y-99638486D01*
X180198010Y-99590867D01*
X180055152Y-99590867D01*
X179864676Y-99638486D01*
X179769438Y-99686105D01*
X179674200Y-99781343D01*
X179626581Y-99924201D01*
X179626581Y-100019439D01*
X179674200Y-100162296D01*
X179721819Y-100209915D01*
X136531343Y-98257534D02*
X136578962Y-98209915D01*
X136626581Y-98067058D01*
X136626581Y-97971820D01*
X136578962Y-97828962D01*
X136483724Y-97733724D01*
X136388486Y-97686105D01*
X136198010Y-97638486D01*
X136055152Y-97638486D01*
X135864676Y-97686105D01*
X135769438Y-97733724D01*
X135674200Y-97828962D01*
X135626581Y-97971820D01*
X135626581Y-98067058D01*
X135674200Y-98209915D01*
X135721819Y-98257534D01*
X136626581Y-99209915D02*
X136626581Y-98638486D01*
X136626581Y-98924200D02*
X135626581Y-98924200D01*
X135769438Y-98828962D01*
X135864676Y-98733724D01*
X135912295Y-98638486D01*
X136102771Y-99971820D02*
X136150390Y-100114677D01*
X136198010Y-100162296D01*
X136293248Y-100209915D01*
X136436105Y-100209915D01*
X136531343Y-100162296D01*
X136578962Y-100114677D01*
X136626581Y-100019439D01*
X136626581Y-99638486D01*
X135626581Y-99638486D01*
X135626581Y-99971820D01*
X135674200Y-100067058D01*
X135721819Y-100114677D01*
X135817057Y-100162296D01*
X135912295Y-100162296D01*
X136007533Y-100114677D01*
X136055152Y-100067058D01*
X136102771Y-99971820D01*
X136102771Y-99638486D01*
X92531343Y-98328962D02*
X92578962Y-98281343D01*
X92626581Y-98138486D01*
X92626581Y-98043248D01*
X92578962Y-97900390D01*
X92483724Y-97805152D01*
X92388486Y-97757533D01*
X92198010Y-97709914D01*
X92055152Y-97709914D01*
X91864676Y-97757533D01*
X91769438Y-97805152D01*
X91674200Y-97900390D01*
X91626581Y-98043248D01*
X91626581Y-98138486D01*
X91674200Y-98281343D01*
X91721819Y-98328962D01*
X92626581Y-99281343D02*
X92626581Y-98709914D01*
X92626581Y-98995628D02*
X91626581Y-98995628D01*
X91769438Y-98900390D01*
X91864676Y-98805152D01*
X91912295Y-98709914D01*
X92340867Y-99662295D02*
X92340867Y-100138486D01*
X92626581Y-99567057D02*
X91626581Y-99900390D01*
X92626581Y-100233724D01*
X48531343Y-98281343D02*
X48578962Y-98233724D01*
X48626581Y-98090867D01*
X48626581Y-97995629D01*
X48578962Y-97852771D01*
X48483724Y-97757533D01*
X48388486Y-97709914D01*
X48198010Y-97662295D01*
X48055152Y-97662295D01*
X47864676Y-97709914D01*
X47769438Y-97757533D01*
X47674200Y-97852771D01*
X47626581Y-97995629D01*
X47626581Y-98090867D01*
X47674200Y-98233724D01*
X47721819Y-98281343D01*
X48626581Y-99233724D02*
X48626581Y-98662295D01*
X48626581Y-98948009D02*
X47626581Y-98948009D01*
X47769438Y-98852771D01*
X47864676Y-98757533D01*
X47912295Y-98662295D01*
X48626581Y-99709914D02*
X48626581Y-99900390D01*
X48578962Y-99995629D01*
X48531343Y-100043248D01*
X48388486Y-100138486D01*
X48198010Y-100186105D01*
X47817057Y-100186105D01*
X47721819Y-100138486D01*
X47674200Y-100090867D01*
X47626581Y-99995629D01*
X47626581Y-99805152D01*
X47674200Y-99709914D01*
X47721819Y-99662295D01*
X47817057Y-99614676D01*
X48055152Y-99614676D01*
X48150390Y-99662295D01*
X48198010Y-99709914D01*
X48245629Y-99805152D01*
X48245629Y-99995629D01*
X48198010Y-100090867D01*
X48150390Y-100138486D01*
X48055152Y-100186105D01*
X180531343Y-73281343D02*
X180578962Y-73233724D01*
X180626581Y-73090867D01*
X180626581Y-72995629D01*
X180578962Y-72852771D01*
X180483724Y-72757533D01*
X180388486Y-72709914D01*
X180198010Y-72662295D01*
X180055152Y-72662295D01*
X179864676Y-72709914D01*
X179769438Y-72757533D01*
X179674200Y-72852771D01*
X179626581Y-72995629D01*
X179626581Y-73090867D01*
X179674200Y-73233724D01*
X179721819Y-73281343D01*
X180626581Y-74233724D02*
X180626581Y-73662295D01*
X180626581Y-73948009D02*
X179626581Y-73948009D01*
X179769438Y-73852771D01*
X179864676Y-73757533D01*
X179912295Y-73662295D01*
X180055152Y-74805152D02*
X180007533Y-74709914D01*
X179959914Y-74662295D01*
X179864676Y-74614676D01*
X179817057Y-74614676D01*
X179721819Y-74662295D01*
X179674200Y-74709914D01*
X179626581Y-74805152D01*
X179626581Y-74995629D01*
X179674200Y-75090867D01*
X179721819Y-75138486D01*
X179817057Y-75186105D01*
X179864676Y-75186105D01*
X179959914Y-75138486D01*
X180007533Y-75090867D01*
X180055152Y-74995629D01*
X180055152Y-74805152D01*
X180102771Y-74709914D01*
X180150390Y-74662295D01*
X180245629Y-74614676D01*
X180436105Y-74614676D01*
X180531343Y-74662295D01*
X180578962Y-74709914D01*
X180626581Y-74805152D01*
X180626581Y-74995629D01*
X180578962Y-75090867D01*
X180531343Y-75138486D01*
X180436105Y-75186105D01*
X180245629Y-75186105D01*
X180150390Y-75138486D01*
X180102771Y-75090867D01*
X180055152Y-74995629D01*
X136531343Y-73281343D02*
X136578962Y-73233724D01*
X136626581Y-73090867D01*
X136626581Y-72995629D01*
X136578962Y-72852771D01*
X136483724Y-72757533D01*
X136388486Y-72709914D01*
X136198010Y-72662295D01*
X136055152Y-72662295D01*
X135864676Y-72709914D01*
X135769438Y-72757533D01*
X135674200Y-72852771D01*
X135626581Y-72995629D01*
X135626581Y-73090867D01*
X135674200Y-73233724D01*
X135721819Y-73281343D01*
X136626581Y-74233724D02*
X136626581Y-73662295D01*
X136626581Y-73948009D02*
X135626581Y-73948009D01*
X135769438Y-73852771D01*
X135864676Y-73757533D01*
X135912295Y-73662295D01*
X135626581Y-74567057D02*
X135626581Y-75233724D01*
X136626581Y-74805152D01*
X92531343Y-73281343D02*
X92578962Y-73233724D01*
X92626581Y-73090867D01*
X92626581Y-72995629D01*
X92578962Y-72852771D01*
X92483724Y-72757533D01*
X92388486Y-72709914D01*
X92198010Y-72662295D01*
X92055152Y-72662295D01*
X91864676Y-72709914D01*
X91769438Y-72757533D01*
X91674200Y-72852771D01*
X91626581Y-72995629D01*
X91626581Y-73090867D01*
X91674200Y-73233724D01*
X91721819Y-73281343D01*
X92626581Y-74233724D02*
X92626581Y-73662295D01*
X92626581Y-73948009D02*
X91626581Y-73948009D01*
X91769438Y-73852771D01*
X91864676Y-73757533D01*
X91912295Y-73662295D01*
X91626581Y-75090867D02*
X91626581Y-74900390D01*
X91674200Y-74805152D01*
X91721819Y-74757533D01*
X91864676Y-74662295D01*
X92055152Y-74614676D01*
X92436105Y-74614676D01*
X92531343Y-74662295D01*
X92578962Y-74709914D01*
X92626581Y-74805152D01*
X92626581Y-74995629D01*
X92578962Y-75090867D01*
X92531343Y-75138486D01*
X92436105Y-75186105D01*
X92198010Y-75186105D01*
X92102771Y-75138486D01*
X92055152Y-75090867D01*
X92007533Y-74995629D01*
X92007533Y-74805152D01*
X92055152Y-74709914D01*
X92102771Y-74662295D01*
X92198010Y-74614676D01*
X48531343Y-73281343D02*
X48578962Y-73233724D01*
X48626581Y-73090867D01*
X48626581Y-72995629D01*
X48578962Y-72852771D01*
X48483724Y-72757533D01*
X48388486Y-72709914D01*
X48198010Y-72662295D01*
X48055152Y-72662295D01*
X47864676Y-72709914D01*
X47769438Y-72757533D01*
X47674200Y-72852771D01*
X47626581Y-72995629D01*
X47626581Y-73090867D01*
X47674200Y-73233724D01*
X47721819Y-73281343D01*
X48626581Y-74233724D02*
X48626581Y-73662295D01*
X48626581Y-73948009D02*
X47626581Y-73948009D01*
X47769438Y-73852771D01*
X47864676Y-73757533D01*
X47912295Y-73662295D01*
X47626581Y-75138486D02*
X47626581Y-74662295D01*
X48102771Y-74614676D01*
X48055152Y-74662295D01*
X48007533Y-74757533D01*
X48007533Y-74995629D01*
X48055152Y-75090867D01*
X48102771Y-75138486D01*
X48198010Y-75186105D01*
X48436105Y-75186105D01*
X48531343Y-75138486D01*
X48578962Y-75090867D01*
X48626581Y-74995629D01*
X48626581Y-74757533D01*
X48578962Y-74662295D01*
X48531343Y-74614676D01*
X180531343Y-48281343D02*
X180578962Y-48233724D01*
X180626581Y-48090867D01*
X180626581Y-47995629D01*
X180578962Y-47852771D01*
X180483724Y-47757533D01*
X180388486Y-47709914D01*
X180198010Y-47662295D01*
X180055152Y-47662295D01*
X179864676Y-47709914D01*
X179769438Y-47757533D01*
X179674200Y-47852771D01*
X179626581Y-47995629D01*
X179626581Y-48090867D01*
X179674200Y-48233724D01*
X179721819Y-48281343D01*
X180626581Y-49233724D02*
X180626581Y-48662295D01*
X180626581Y-48948009D02*
X179626581Y-48948009D01*
X179769438Y-48852771D01*
X179864676Y-48757533D01*
X179912295Y-48662295D01*
X179959914Y-50090867D02*
X180626581Y-50090867D01*
X179578962Y-49852771D02*
X180293248Y-49614676D01*
X180293248Y-50233724D01*
X136531343Y-48281343D02*
X136578962Y-48233724D01*
X136626581Y-48090867D01*
X136626581Y-47995629D01*
X136578962Y-47852771D01*
X136483724Y-47757533D01*
X136388486Y-47709914D01*
X136198010Y-47662295D01*
X136055152Y-47662295D01*
X135864676Y-47709914D01*
X135769438Y-47757533D01*
X135674200Y-47852771D01*
X135626581Y-47995629D01*
X135626581Y-48090867D01*
X135674200Y-48233724D01*
X135721819Y-48281343D01*
X136626581Y-49233724D02*
X136626581Y-48662295D01*
X136626581Y-48948009D02*
X135626581Y-48948009D01*
X135769438Y-48852771D01*
X135864676Y-48757533D01*
X135912295Y-48662295D01*
X135626581Y-49567057D02*
X135626581Y-50186105D01*
X136007533Y-49852771D01*
X136007533Y-49995629D01*
X136055152Y-50090867D01*
X136102771Y-50138486D01*
X136198010Y-50186105D01*
X136436105Y-50186105D01*
X136531343Y-50138486D01*
X136578962Y-50090867D01*
X136626581Y-49995629D01*
X136626581Y-49709914D01*
X136578962Y-49614676D01*
X136531343Y-49567057D01*
X92531343Y-48281343D02*
X92578962Y-48233724D01*
X92626581Y-48090867D01*
X92626581Y-47995629D01*
X92578962Y-47852771D01*
X92483724Y-47757533D01*
X92388486Y-47709914D01*
X92198010Y-47662295D01*
X92055152Y-47662295D01*
X91864676Y-47709914D01*
X91769438Y-47757533D01*
X91674200Y-47852771D01*
X91626581Y-47995629D01*
X91626581Y-48090867D01*
X91674200Y-48233724D01*
X91721819Y-48281343D01*
X92626581Y-49233724D02*
X92626581Y-48662295D01*
X92626581Y-48948009D02*
X91626581Y-48948009D01*
X91769438Y-48852771D01*
X91864676Y-48757533D01*
X91912295Y-48662295D01*
X91721819Y-49614676D02*
X91674200Y-49662295D01*
X91626581Y-49757533D01*
X91626581Y-49995629D01*
X91674200Y-50090867D01*
X91721819Y-50138486D01*
X91817057Y-50186105D01*
X91912295Y-50186105D01*
X92055152Y-50138486D01*
X92626581Y-49567057D01*
X92626581Y-50186105D01*
X210209655Y-116240095D02*
X209209655Y-116240095D01*
X209209655Y-116478190D01*
X209257274Y-116621048D01*
X209352512Y-116716286D01*
X209447750Y-116763905D01*
X209638226Y-116811524D01*
X209781084Y-116811524D01*
X209971560Y-116763905D01*
X210066798Y-116716286D01*
X210162036Y-116621048D01*
X210209655Y-116478190D01*
X210209655Y-116240095D01*
X210162036Y-117192476D02*
X210209655Y-117335333D01*
X210209655Y-117573429D01*
X210162036Y-117668667D01*
X210114417Y-117716286D01*
X210019179Y-117763905D01*
X209923941Y-117763905D01*
X209828703Y-117716286D01*
X209781084Y-117668667D01*
X209733464Y-117573429D01*
X209685845Y-117382952D01*
X209638226Y-117287714D01*
X209590607Y-117240095D01*
X209495369Y-117192476D01*
X209400131Y-117192476D01*
X209304893Y-117240095D01*
X209257274Y-117287714D01*
X209209655Y-117382952D01*
X209209655Y-117621048D01*
X209257274Y-117763905D01*
X210209655Y-118716286D02*
X210209655Y-118144857D01*
X210209655Y-118430571D02*
X209209655Y-118430571D01*
X209352512Y-118335333D01*
X209447750Y-118240095D01*
X209495369Y-118144857D01*
X210209655Y-119668667D02*
X210209655Y-119097238D01*
X210209655Y-119382952D02*
X209209655Y-119382952D01*
X209352512Y-119287714D01*
X209447750Y-119192476D01*
X209495369Y-119097238D01*
X209209655Y-120287714D02*
X209209655Y-120382953D01*
X209257274Y-120478191D01*
X209304893Y-120525810D01*
X209400131Y-120573429D01*
X209590607Y-120621048D01*
X209828703Y-120621048D01*
X210019179Y-120573429D01*
X210114417Y-120525810D01*
X210162036Y-120478191D01*
X210209655Y-120382953D01*
X210209655Y-120287714D01*
X210162036Y-120192476D01*
X210114417Y-120144857D01*
X210019179Y-120097238D01*
X209828703Y-120049619D01*
X209590607Y-120049619D01*
X209400131Y-120097238D01*
X209304893Y-120144857D01*
X209257274Y-120192476D01*
X209209655Y-120287714D01*
X210209655Y-120677524D02*
X210209655Y-120201333D01*
X209209655Y-120201333D01*
X210114417Y-121582286D02*
X210162036Y-121534667D01*
X210209655Y-121391810D01*
X210209655Y-121296572D01*
X210162036Y-121153714D01*
X210066798Y-121058476D01*
X209971560Y-121010857D01*
X209781084Y-120963238D01*
X209638226Y-120963238D01*
X209447750Y-121010857D01*
X209352512Y-121058476D01*
X209257274Y-121153714D01*
X209209655Y-121296572D01*
X209209655Y-121391810D01*
X209257274Y-121534667D01*
X209304893Y-121582286D01*
X210209655Y-122010857D02*
X209209655Y-122010857D01*
X209209655Y-122248952D01*
X209257274Y-122391810D01*
X209352512Y-122487048D01*
X209447750Y-122534667D01*
X209638226Y-122582286D01*
X209781084Y-122582286D01*
X209971560Y-122534667D01*
X210066798Y-122487048D01*
X210162036Y-122391810D01*
X210209655Y-122248952D01*
X210209655Y-122010857D01*
X209828703Y-123010857D02*
X209828703Y-123772762D01*
X209209655Y-124439428D02*
X209209655Y-124534667D01*
X209257274Y-124629905D01*
X209304893Y-124677524D01*
X209400131Y-124725143D01*
X209590607Y-124772762D01*
X209828703Y-124772762D01*
X210019179Y-124725143D01*
X210114417Y-124677524D01*
X210162036Y-124629905D01*
X210209655Y-124534667D01*
X210209655Y-124439428D01*
X210162036Y-124344190D01*
X210114417Y-124296571D01*
X210019179Y-124248952D01*
X209828703Y-124201333D01*
X209590607Y-124201333D01*
X209400131Y-124248952D01*
X209304893Y-124296571D01*
X209257274Y-124344190D01*
X209209655Y-124439428D01*
X210209655Y-125725143D02*
X210209655Y-125153714D01*
X210209655Y-125439428D02*
X209209655Y-125439428D01*
X209352512Y-125344190D01*
X209447750Y-125248952D01*
X209495369Y-125153714D01*
X209209655Y-126582286D02*
X209209655Y-126391809D01*
X209257274Y-126296571D01*
X209304893Y-126248952D01*
X209447750Y-126153714D01*
X209638226Y-126106095D01*
X210019179Y-126106095D01*
X210114417Y-126153714D01*
X210162036Y-126201333D01*
X210209655Y-126296571D01*
X210209655Y-126487048D01*
X210162036Y-126582286D01*
X210114417Y-126629905D01*
X210019179Y-126677524D01*
X209781084Y-126677524D01*
X209685845Y-126629905D01*
X209638226Y-126582286D01*
X209590607Y-126487048D01*
X209590607Y-126296571D01*
X209638226Y-126201333D01*
X209685845Y-126153714D01*
X209781084Y-126106095D01*
X210209655Y-127106095D02*
X209209655Y-127106095D01*
X210209655Y-127677524D01*
X209209655Y-127677524D01*
X209209655Y-128344190D02*
X209209655Y-128439429D01*
X209257274Y-128534667D01*
X209304893Y-128582286D01*
X209400131Y-128629905D01*
X209590607Y-128677524D01*
X209828703Y-128677524D01*
X210019179Y-128629905D01*
X210114417Y-128582286D01*
X210162036Y-128534667D01*
X210209655Y-128439429D01*
X210209655Y-128344190D01*
X210162036Y-128248952D01*
X210114417Y-128201333D01*
X210019179Y-128153714D01*
X209828703Y-128106095D01*
X209590607Y-128106095D01*
X209400131Y-128153714D01*
X209304893Y-128201333D01*
X209257274Y-128248952D01*
X209209655Y-128344190D01*
X209209655Y-129296571D02*
X209209655Y-129391810D01*
X209257274Y-129487048D01*
X209304893Y-129534667D01*
X209400131Y-129582286D01*
X209590607Y-129629905D01*
X209828703Y-129629905D01*
X210019179Y-129582286D01*
X210114417Y-129534667D01*
X210162036Y-129487048D01*
X210209655Y-129391810D01*
X210209655Y-129296571D01*
X210162036Y-129201333D01*
X210114417Y-129153714D01*
X210019179Y-129106095D01*
X209828703Y-129058476D01*
X209590607Y-129058476D01*
X209400131Y-129106095D01*
X209304893Y-129153714D01*
X209257274Y-129201333D01*
X209209655Y-129296571D01*
X209304893Y-130010857D02*
X209257274Y-130058476D01*
X209209655Y-130153714D01*
X209209655Y-130391810D01*
X209257274Y-130487048D01*
X209304893Y-130534667D01*
X209400131Y-130582286D01*
X209495369Y-130582286D01*
X209638226Y-130534667D01*
X210209655Y-129963238D01*
X210209655Y-130582286D01*
X210209655Y-131487048D02*
X210209655Y-131010857D01*
X209209655Y-131010857D01*
X166209655Y-116763905D02*
X165209655Y-116763905D01*
X165209655Y-117002000D01*
X165257274Y-117144858D01*
X165352512Y-117240096D01*
X165447750Y-117287715D01*
X165638226Y-117335334D01*
X165781084Y-117335334D01*
X165971560Y-117287715D01*
X166066798Y-117240096D01*
X166162036Y-117144858D01*
X166209655Y-117002000D01*
X166209655Y-116763905D01*
X166162036Y-117716286D02*
X166209655Y-117859143D01*
X166209655Y-118097239D01*
X166162036Y-118192477D01*
X166114417Y-118240096D01*
X166019179Y-118287715D01*
X165923941Y-118287715D01*
X165828703Y-118240096D01*
X165781084Y-118192477D01*
X165733464Y-118097239D01*
X165685845Y-117906762D01*
X165638226Y-117811524D01*
X165590607Y-117763905D01*
X165495369Y-117716286D01*
X165400131Y-117716286D01*
X165304893Y-117763905D01*
X165257274Y-117811524D01*
X165209655Y-117906762D01*
X165209655Y-118144858D01*
X165257274Y-118287715D01*
X166209655Y-119240096D02*
X166209655Y-118668667D01*
X166209655Y-118954381D02*
X165209655Y-118954381D01*
X165352512Y-118859143D01*
X165447750Y-118763905D01*
X165495369Y-118668667D01*
X165685845Y-120002001D02*
X165685845Y-119668667D01*
X166209655Y-119668667D02*
X165209655Y-119668667D01*
X165209655Y-120144858D01*
X166209655Y-120677524D02*
X166209655Y-120201333D01*
X165209655Y-120201333D01*
X166114417Y-121582286D02*
X166162036Y-121534667D01*
X166209655Y-121391810D01*
X166209655Y-121296572D01*
X166162036Y-121153714D01*
X166066798Y-121058476D01*
X165971560Y-121010857D01*
X165781084Y-120963238D01*
X165638226Y-120963238D01*
X165447750Y-121010857D01*
X165352512Y-121058476D01*
X165257274Y-121153714D01*
X165209655Y-121296572D01*
X165209655Y-121391810D01*
X165257274Y-121534667D01*
X165304893Y-121582286D01*
X166209655Y-122010857D02*
X165209655Y-122010857D01*
X165209655Y-122248952D01*
X165257274Y-122391810D01*
X165352512Y-122487048D01*
X165447750Y-122534667D01*
X165638226Y-122582286D01*
X165781084Y-122582286D01*
X165971560Y-122534667D01*
X166066798Y-122487048D01*
X166162036Y-122391810D01*
X166209655Y-122248952D01*
X166209655Y-122010857D01*
X165828703Y-123010857D02*
X165828703Y-123772762D01*
X165209655Y-124439428D02*
X165209655Y-124534667D01*
X165257274Y-124629905D01*
X165304893Y-124677524D01*
X165400131Y-124725143D01*
X165590607Y-124772762D01*
X165828703Y-124772762D01*
X166019179Y-124725143D01*
X166114417Y-124677524D01*
X166162036Y-124629905D01*
X166209655Y-124534667D01*
X166209655Y-124439428D01*
X166162036Y-124344190D01*
X166114417Y-124296571D01*
X166019179Y-124248952D01*
X165828703Y-124201333D01*
X165590607Y-124201333D01*
X165400131Y-124248952D01*
X165304893Y-124296571D01*
X165257274Y-124344190D01*
X165209655Y-124439428D01*
X166209655Y-125725143D02*
X166209655Y-125153714D01*
X166209655Y-125439428D02*
X165209655Y-125439428D01*
X165352512Y-125344190D01*
X165447750Y-125248952D01*
X165495369Y-125153714D01*
X165209655Y-126582286D02*
X165209655Y-126391809D01*
X165257274Y-126296571D01*
X165304893Y-126248952D01*
X165447750Y-126153714D01*
X165638226Y-126106095D01*
X166019179Y-126106095D01*
X166114417Y-126153714D01*
X166162036Y-126201333D01*
X166209655Y-126296571D01*
X166209655Y-126487048D01*
X166162036Y-126582286D01*
X166114417Y-126629905D01*
X166019179Y-126677524D01*
X165781084Y-126677524D01*
X165685845Y-126629905D01*
X165638226Y-126582286D01*
X165590607Y-126487048D01*
X165590607Y-126296571D01*
X165638226Y-126201333D01*
X165685845Y-126153714D01*
X165781084Y-126106095D01*
X166209655Y-127106095D02*
X165209655Y-127106095D01*
X166209655Y-127677524D01*
X165209655Y-127677524D01*
X165209655Y-128344190D02*
X165209655Y-128439429D01*
X165257274Y-128534667D01*
X165304893Y-128582286D01*
X165400131Y-128629905D01*
X165590607Y-128677524D01*
X165828703Y-128677524D01*
X166019179Y-128629905D01*
X166114417Y-128582286D01*
X166162036Y-128534667D01*
X166209655Y-128439429D01*
X166209655Y-128344190D01*
X166162036Y-128248952D01*
X166114417Y-128201333D01*
X166019179Y-128153714D01*
X165828703Y-128106095D01*
X165590607Y-128106095D01*
X165400131Y-128153714D01*
X165304893Y-128201333D01*
X165257274Y-128248952D01*
X165209655Y-128344190D01*
X165209655Y-129296571D02*
X165209655Y-129391810D01*
X165257274Y-129487048D01*
X165304893Y-129534667D01*
X165400131Y-129582286D01*
X165590607Y-129629905D01*
X165828703Y-129629905D01*
X166019179Y-129582286D01*
X166114417Y-129534667D01*
X166162036Y-129487048D01*
X166209655Y-129391810D01*
X166209655Y-129296571D01*
X166162036Y-129201333D01*
X166114417Y-129153714D01*
X166019179Y-129106095D01*
X165828703Y-129058476D01*
X165590607Y-129058476D01*
X165400131Y-129106095D01*
X165304893Y-129153714D01*
X165257274Y-129201333D01*
X165209655Y-129296571D01*
X165304893Y-130010857D02*
X165257274Y-130058476D01*
X165209655Y-130153714D01*
X165209655Y-130391810D01*
X165257274Y-130487048D01*
X165304893Y-130534667D01*
X165400131Y-130582286D01*
X165495369Y-130582286D01*
X165638226Y-130534667D01*
X166209655Y-129963238D01*
X166209655Y-130582286D01*
X166209655Y-131487048D02*
X166209655Y-131010857D01*
X165209655Y-131010857D01*
X122209655Y-116740095D02*
X121209655Y-116740095D01*
X121209655Y-116978190D01*
X121257274Y-117121048D01*
X121352512Y-117216286D01*
X121447750Y-117263905D01*
X121638226Y-117311524D01*
X121781084Y-117311524D01*
X121971560Y-117263905D01*
X122066798Y-117216286D01*
X122162036Y-117121048D01*
X122209655Y-116978190D01*
X122209655Y-116740095D01*
X122162036Y-117692476D02*
X122209655Y-117835333D01*
X122209655Y-118073429D01*
X122162036Y-118168667D01*
X122114417Y-118216286D01*
X122019179Y-118263905D01*
X121923941Y-118263905D01*
X121828703Y-118216286D01*
X121781084Y-118168667D01*
X121733464Y-118073429D01*
X121685845Y-117882952D01*
X121638226Y-117787714D01*
X121590607Y-117740095D01*
X121495369Y-117692476D01*
X121400131Y-117692476D01*
X121304893Y-117740095D01*
X121257274Y-117787714D01*
X121209655Y-117882952D01*
X121209655Y-118121048D01*
X121257274Y-118263905D01*
X122209655Y-119216286D02*
X122209655Y-118644857D01*
X122209655Y-118930571D02*
X121209655Y-118930571D01*
X121352512Y-118835333D01*
X121447750Y-118740095D01*
X121495369Y-118644857D01*
X121685845Y-119644857D02*
X121685845Y-119978191D01*
X122209655Y-120121048D02*
X122209655Y-119644857D01*
X121209655Y-119644857D01*
X121209655Y-120121048D01*
X122209655Y-120677524D02*
X122209655Y-120201333D01*
X121209655Y-120201333D01*
X122114417Y-121582286D02*
X122162036Y-121534667D01*
X122209655Y-121391810D01*
X122209655Y-121296572D01*
X122162036Y-121153714D01*
X122066798Y-121058476D01*
X121971560Y-121010857D01*
X121781084Y-120963238D01*
X121638226Y-120963238D01*
X121447750Y-121010857D01*
X121352512Y-121058476D01*
X121257274Y-121153714D01*
X121209655Y-121296572D01*
X121209655Y-121391810D01*
X121257274Y-121534667D01*
X121304893Y-121582286D01*
X122209655Y-122010857D02*
X121209655Y-122010857D01*
X121209655Y-122248952D01*
X121257274Y-122391810D01*
X121352512Y-122487048D01*
X121447750Y-122534667D01*
X121638226Y-122582286D01*
X121781084Y-122582286D01*
X121971560Y-122534667D01*
X122066798Y-122487048D01*
X122162036Y-122391810D01*
X122209655Y-122248952D01*
X122209655Y-122010857D01*
X121828703Y-123010857D02*
X121828703Y-123772762D01*
X121209655Y-124439428D02*
X121209655Y-124534667D01*
X121257274Y-124629905D01*
X121304893Y-124677524D01*
X121400131Y-124725143D01*
X121590607Y-124772762D01*
X121828703Y-124772762D01*
X122019179Y-124725143D01*
X122114417Y-124677524D01*
X122162036Y-124629905D01*
X122209655Y-124534667D01*
X122209655Y-124439428D01*
X122162036Y-124344190D01*
X122114417Y-124296571D01*
X122019179Y-124248952D01*
X121828703Y-124201333D01*
X121590607Y-124201333D01*
X121400131Y-124248952D01*
X121304893Y-124296571D01*
X121257274Y-124344190D01*
X121209655Y-124439428D01*
X122209655Y-125725143D02*
X122209655Y-125153714D01*
X122209655Y-125439428D02*
X121209655Y-125439428D01*
X121352512Y-125344190D01*
X121447750Y-125248952D01*
X121495369Y-125153714D01*
X121209655Y-126582286D02*
X121209655Y-126391809D01*
X121257274Y-126296571D01*
X121304893Y-126248952D01*
X121447750Y-126153714D01*
X121638226Y-126106095D01*
X122019179Y-126106095D01*
X122114417Y-126153714D01*
X122162036Y-126201333D01*
X122209655Y-126296571D01*
X122209655Y-126487048D01*
X122162036Y-126582286D01*
X122114417Y-126629905D01*
X122019179Y-126677524D01*
X121781084Y-126677524D01*
X121685845Y-126629905D01*
X121638226Y-126582286D01*
X121590607Y-126487048D01*
X121590607Y-126296571D01*
X121638226Y-126201333D01*
X121685845Y-126153714D01*
X121781084Y-126106095D01*
X122209655Y-127106095D02*
X121209655Y-127106095D01*
X122209655Y-127677524D01*
X121209655Y-127677524D01*
X121209655Y-128344190D02*
X121209655Y-128439429D01*
X121257274Y-128534667D01*
X121304893Y-128582286D01*
X121400131Y-128629905D01*
X121590607Y-128677524D01*
X121828703Y-128677524D01*
X122019179Y-128629905D01*
X122114417Y-128582286D01*
X122162036Y-128534667D01*
X122209655Y-128439429D01*
X122209655Y-128344190D01*
X122162036Y-128248952D01*
X122114417Y-128201333D01*
X122019179Y-128153714D01*
X121828703Y-128106095D01*
X121590607Y-128106095D01*
X121400131Y-128153714D01*
X121304893Y-128201333D01*
X121257274Y-128248952D01*
X121209655Y-128344190D01*
X121209655Y-129296571D02*
X121209655Y-129391810D01*
X121257274Y-129487048D01*
X121304893Y-129534667D01*
X121400131Y-129582286D01*
X121590607Y-129629905D01*
X121828703Y-129629905D01*
X122019179Y-129582286D01*
X122114417Y-129534667D01*
X122162036Y-129487048D01*
X122209655Y-129391810D01*
X122209655Y-129296571D01*
X122162036Y-129201333D01*
X122114417Y-129153714D01*
X122019179Y-129106095D01*
X121828703Y-129058476D01*
X121590607Y-129058476D01*
X121400131Y-129106095D01*
X121304893Y-129153714D01*
X121257274Y-129201333D01*
X121209655Y-129296571D01*
X121304893Y-130010857D02*
X121257274Y-130058476D01*
X121209655Y-130153714D01*
X121209655Y-130391810D01*
X121257274Y-130487048D01*
X121304893Y-130534667D01*
X121400131Y-130582286D01*
X121495369Y-130582286D01*
X121638226Y-130534667D01*
X122209655Y-129963238D01*
X122209655Y-130582286D01*
X122209655Y-131487048D02*
X122209655Y-131010857D01*
X121209655Y-131010857D01*
X78209655Y-116692476D02*
X77209655Y-116692476D01*
X77209655Y-116930571D01*
X77257274Y-117073429D01*
X77352512Y-117168667D01*
X77447750Y-117216286D01*
X77638226Y-117263905D01*
X77781084Y-117263905D01*
X77971560Y-117216286D01*
X78066798Y-117168667D01*
X78162036Y-117073429D01*
X78209655Y-116930571D01*
X78209655Y-116692476D01*
X78162036Y-117644857D02*
X78209655Y-117787714D01*
X78209655Y-118025810D01*
X78162036Y-118121048D01*
X78114417Y-118168667D01*
X78019179Y-118216286D01*
X77923941Y-118216286D01*
X77828703Y-118168667D01*
X77781084Y-118121048D01*
X77733464Y-118025810D01*
X77685845Y-117835333D01*
X77638226Y-117740095D01*
X77590607Y-117692476D01*
X77495369Y-117644857D01*
X77400131Y-117644857D01*
X77304893Y-117692476D01*
X77257274Y-117740095D01*
X77209655Y-117835333D01*
X77209655Y-118073429D01*
X77257274Y-118216286D01*
X78209655Y-119168667D02*
X78209655Y-118597238D01*
X78209655Y-118882952D02*
X77209655Y-118882952D01*
X77352512Y-118787714D01*
X77447750Y-118692476D01*
X77495369Y-118597238D01*
X78209655Y-119597238D02*
X77209655Y-119597238D01*
X77209655Y-119835333D01*
X77257274Y-119978191D01*
X77352512Y-120073429D01*
X77447750Y-120121048D01*
X77638226Y-120168667D01*
X77781084Y-120168667D01*
X77971560Y-120121048D01*
X78066798Y-120073429D01*
X78162036Y-119978191D01*
X78209655Y-119835333D01*
X78209655Y-119597238D01*
X78209655Y-120677524D02*
X78209655Y-120201333D01*
X77209655Y-120201333D01*
X78114417Y-121582286D02*
X78162036Y-121534667D01*
X78209655Y-121391810D01*
X78209655Y-121296572D01*
X78162036Y-121153714D01*
X78066798Y-121058476D01*
X77971560Y-121010857D01*
X77781084Y-120963238D01*
X77638226Y-120963238D01*
X77447750Y-121010857D01*
X77352512Y-121058476D01*
X77257274Y-121153714D01*
X77209655Y-121296572D01*
X77209655Y-121391810D01*
X77257274Y-121534667D01*
X77304893Y-121582286D01*
X78209655Y-122010857D02*
X77209655Y-122010857D01*
X77209655Y-122248952D01*
X77257274Y-122391810D01*
X77352512Y-122487048D01*
X77447750Y-122534667D01*
X77638226Y-122582286D01*
X77781084Y-122582286D01*
X77971560Y-122534667D01*
X78066798Y-122487048D01*
X78162036Y-122391810D01*
X78209655Y-122248952D01*
X78209655Y-122010857D01*
X77828703Y-123010857D02*
X77828703Y-123772762D01*
X77209655Y-124439428D02*
X77209655Y-124534667D01*
X77257274Y-124629905D01*
X77304893Y-124677524D01*
X77400131Y-124725143D01*
X77590607Y-124772762D01*
X77828703Y-124772762D01*
X78019179Y-124725143D01*
X78114417Y-124677524D01*
X78162036Y-124629905D01*
X78209655Y-124534667D01*
X78209655Y-124439428D01*
X78162036Y-124344190D01*
X78114417Y-124296571D01*
X78019179Y-124248952D01*
X77828703Y-124201333D01*
X77590607Y-124201333D01*
X77400131Y-124248952D01*
X77304893Y-124296571D01*
X77257274Y-124344190D01*
X77209655Y-124439428D01*
X78209655Y-125725143D02*
X78209655Y-125153714D01*
X78209655Y-125439428D02*
X77209655Y-125439428D01*
X77352512Y-125344190D01*
X77447750Y-125248952D01*
X77495369Y-125153714D01*
X77209655Y-126582286D02*
X77209655Y-126391809D01*
X77257274Y-126296571D01*
X77304893Y-126248952D01*
X77447750Y-126153714D01*
X77638226Y-126106095D01*
X78019179Y-126106095D01*
X78114417Y-126153714D01*
X78162036Y-126201333D01*
X78209655Y-126296571D01*
X78209655Y-126487048D01*
X78162036Y-126582286D01*
X78114417Y-126629905D01*
X78019179Y-126677524D01*
X77781084Y-126677524D01*
X77685845Y-126629905D01*
X77638226Y-126582286D01*
X77590607Y-126487048D01*
X77590607Y-126296571D01*
X77638226Y-126201333D01*
X77685845Y-126153714D01*
X77781084Y-126106095D01*
X78209655Y-127106095D02*
X77209655Y-127106095D01*
X78209655Y-127677524D01*
X77209655Y-127677524D01*
X77209655Y-128344190D02*
X77209655Y-128439429D01*
X77257274Y-128534667D01*
X77304893Y-128582286D01*
X77400131Y-128629905D01*
X77590607Y-128677524D01*
X77828703Y-128677524D01*
X78019179Y-128629905D01*
X78114417Y-128582286D01*
X78162036Y-128534667D01*
X78209655Y-128439429D01*
X78209655Y-128344190D01*
X78162036Y-128248952D01*
X78114417Y-128201333D01*
X78019179Y-128153714D01*
X77828703Y-128106095D01*
X77590607Y-128106095D01*
X77400131Y-128153714D01*
X77304893Y-128201333D01*
X77257274Y-128248952D01*
X77209655Y-128344190D01*
X77209655Y-129296571D02*
X77209655Y-129391810D01*
X77257274Y-129487048D01*
X77304893Y-129534667D01*
X77400131Y-129582286D01*
X77590607Y-129629905D01*
X77828703Y-129629905D01*
X78019179Y-129582286D01*
X78114417Y-129534667D01*
X78162036Y-129487048D01*
X78209655Y-129391810D01*
X78209655Y-129296571D01*
X78162036Y-129201333D01*
X78114417Y-129153714D01*
X78019179Y-129106095D01*
X77828703Y-129058476D01*
X77590607Y-129058476D01*
X77400131Y-129106095D01*
X77304893Y-129153714D01*
X77257274Y-129201333D01*
X77209655Y-129296571D01*
X77304893Y-130010857D02*
X77257274Y-130058476D01*
X77209655Y-130153714D01*
X77209655Y-130391810D01*
X77257274Y-130487048D01*
X77304893Y-130534667D01*
X77400131Y-130582286D01*
X77495369Y-130582286D01*
X77638226Y-130534667D01*
X78209655Y-129963238D01*
X78209655Y-130582286D01*
X78209655Y-131487048D02*
X78209655Y-131010857D01*
X77209655Y-131010857D01*
X210209655Y-91692476D02*
X209209655Y-91692476D01*
X209209655Y-91930571D01*
X209257274Y-92073429D01*
X209352512Y-92168667D01*
X209447750Y-92216286D01*
X209638226Y-92263905D01*
X209781084Y-92263905D01*
X209971560Y-92216286D01*
X210066798Y-92168667D01*
X210162036Y-92073429D01*
X210209655Y-91930571D01*
X210209655Y-91692476D01*
X210162036Y-92644857D02*
X210209655Y-92787714D01*
X210209655Y-93025810D01*
X210162036Y-93121048D01*
X210114417Y-93168667D01*
X210019179Y-93216286D01*
X209923941Y-93216286D01*
X209828703Y-93168667D01*
X209781084Y-93121048D01*
X209733464Y-93025810D01*
X209685845Y-92835333D01*
X209638226Y-92740095D01*
X209590607Y-92692476D01*
X209495369Y-92644857D01*
X209400131Y-92644857D01*
X209304893Y-92692476D01*
X209257274Y-92740095D01*
X209209655Y-92835333D01*
X209209655Y-93073429D01*
X209257274Y-93216286D01*
X210209655Y-94168667D02*
X210209655Y-93597238D01*
X210209655Y-93882952D02*
X209209655Y-93882952D01*
X209352512Y-93787714D01*
X209447750Y-93692476D01*
X209495369Y-93597238D01*
X210114417Y-95168667D02*
X210162036Y-95121048D01*
X210209655Y-94978191D01*
X210209655Y-94882953D01*
X210162036Y-94740095D01*
X210066798Y-94644857D01*
X209971560Y-94597238D01*
X209781084Y-94549619D01*
X209638226Y-94549619D01*
X209447750Y-94597238D01*
X209352512Y-94644857D01*
X209257274Y-94740095D01*
X209209655Y-94882953D01*
X209209655Y-94978191D01*
X209257274Y-95121048D01*
X209304893Y-95168667D01*
X210209655Y-95677524D02*
X210209655Y-95201333D01*
X209209655Y-95201333D01*
X210114417Y-96582286D02*
X210162036Y-96534667D01*
X210209655Y-96391810D01*
X210209655Y-96296572D01*
X210162036Y-96153714D01*
X210066798Y-96058476D01*
X209971560Y-96010857D01*
X209781084Y-95963238D01*
X209638226Y-95963238D01*
X209447750Y-96010857D01*
X209352512Y-96058476D01*
X209257274Y-96153714D01*
X209209655Y-96296572D01*
X209209655Y-96391810D01*
X209257274Y-96534667D01*
X209304893Y-96582286D01*
X210209655Y-97010857D02*
X209209655Y-97010857D01*
X209209655Y-97248952D01*
X209257274Y-97391810D01*
X209352512Y-97487048D01*
X209447750Y-97534667D01*
X209638226Y-97582286D01*
X209781084Y-97582286D01*
X209971560Y-97534667D01*
X210066798Y-97487048D01*
X210162036Y-97391810D01*
X210209655Y-97248952D01*
X210209655Y-97010857D01*
X209828703Y-98010857D02*
X209828703Y-98772762D01*
X209209655Y-99439428D02*
X209209655Y-99534667D01*
X209257274Y-99629905D01*
X209304893Y-99677524D01*
X209400131Y-99725143D01*
X209590607Y-99772762D01*
X209828703Y-99772762D01*
X210019179Y-99725143D01*
X210114417Y-99677524D01*
X210162036Y-99629905D01*
X210209655Y-99534667D01*
X210209655Y-99439428D01*
X210162036Y-99344190D01*
X210114417Y-99296571D01*
X210019179Y-99248952D01*
X209828703Y-99201333D01*
X209590607Y-99201333D01*
X209400131Y-99248952D01*
X209304893Y-99296571D01*
X209257274Y-99344190D01*
X209209655Y-99439428D01*
X210209655Y-100725143D02*
X210209655Y-100153714D01*
X210209655Y-100439428D02*
X209209655Y-100439428D01*
X209352512Y-100344190D01*
X209447750Y-100248952D01*
X209495369Y-100153714D01*
X209209655Y-101582286D02*
X209209655Y-101391809D01*
X209257274Y-101296571D01*
X209304893Y-101248952D01*
X209447750Y-101153714D01*
X209638226Y-101106095D01*
X210019179Y-101106095D01*
X210114417Y-101153714D01*
X210162036Y-101201333D01*
X210209655Y-101296571D01*
X210209655Y-101487048D01*
X210162036Y-101582286D01*
X210114417Y-101629905D01*
X210019179Y-101677524D01*
X209781084Y-101677524D01*
X209685845Y-101629905D01*
X209638226Y-101582286D01*
X209590607Y-101487048D01*
X209590607Y-101296571D01*
X209638226Y-101201333D01*
X209685845Y-101153714D01*
X209781084Y-101106095D01*
X210209655Y-102106095D02*
X209209655Y-102106095D01*
X210209655Y-102677524D01*
X209209655Y-102677524D01*
X209209655Y-103344190D02*
X209209655Y-103439429D01*
X209257274Y-103534667D01*
X209304893Y-103582286D01*
X209400131Y-103629905D01*
X209590607Y-103677524D01*
X209828703Y-103677524D01*
X210019179Y-103629905D01*
X210114417Y-103582286D01*
X210162036Y-103534667D01*
X210209655Y-103439429D01*
X210209655Y-103344190D01*
X210162036Y-103248952D01*
X210114417Y-103201333D01*
X210019179Y-103153714D01*
X209828703Y-103106095D01*
X209590607Y-103106095D01*
X209400131Y-103153714D01*
X209304893Y-103201333D01*
X209257274Y-103248952D01*
X209209655Y-103344190D01*
X209209655Y-104296571D02*
X209209655Y-104391810D01*
X209257274Y-104487048D01*
X209304893Y-104534667D01*
X209400131Y-104582286D01*
X209590607Y-104629905D01*
X209828703Y-104629905D01*
X210019179Y-104582286D01*
X210114417Y-104534667D01*
X210162036Y-104487048D01*
X210209655Y-104391810D01*
X210209655Y-104296571D01*
X210162036Y-104201333D01*
X210114417Y-104153714D01*
X210019179Y-104106095D01*
X209828703Y-104058476D01*
X209590607Y-104058476D01*
X209400131Y-104106095D01*
X209304893Y-104153714D01*
X209257274Y-104201333D01*
X209209655Y-104296571D01*
X209304893Y-105010857D02*
X209257274Y-105058476D01*
X209209655Y-105153714D01*
X209209655Y-105391810D01*
X209257274Y-105487048D01*
X209304893Y-105534667D01*
X209400131Y-105582286D01*
X209495369Y-105582286D01*
X209638226Y-105534667D01*
X210209655Y-104963238D01*
X210209655Y-105582286D01*
X210209655Y-106487048D02*
X210209655Y-106010857D01*
X209209655Y-106010857D01*
X166209655Y-91692476D02*
X165209655Y-91692476D01*
X165209655Y-91930571D01*
X165257274Y-92073429D01*
X165352512Y-92168667D01*
X165447750Y-92216286D01*
X165638226Y-92263905D01*
X165781084Y-92263905D01*
X165971560Y-92216286D01*
X166066798Y-92168667D01*
X166162036Y-92073429D01*
X166209655Y-91930571D01*
X166209655Y-91692476D01*
X166162036Y-92644857D02*
X166209655Y-92787714D01*
X166209655Y-93025810D01*
X166162036Y-93121048D01*
X166114417Y-93168667D01*
X166019179Y-93216286D01*
X165923941Y-93216286D01*
X165828703Y-93168667D01*
X165781084Y-93121048D01*
X165733464Y-93025810D01*
X165685845Y-92835333D01*
X165638226Y-92740095D01*
X165590607Y-92692476D01*
X165495369Y-92644857D01*
X165400131Y-92644857D01*
X165304893Y-92692476D01*
X165257274Y-92740095D01*
X165209655Y-92835333D01*
X165209655Y-93073429D01*
X165257274Y-93216286D01*
X166209655Y-94168667D02*
X166209655Y-93597238D01*
X166209655Y-93882952D02*
X165209655Y-93882952D01*
X165352512Y-93787714D01*
X165447750Y-93692476D01*
X165495369Y-93597238D01*
X165685845Y-94930572D02*
X165733464Y-95073429D01*
X165781084Y-95121048D01*
X165876322Y-95168667D01*
X166019179Y-95168667D01*
X166114417Y-95121048D01*
X166162036Y-95073429D01*
X166209655Y-94978191D01*
X166209655Y-94597238D01*
X165209655Y-94597238D01*
X165209655Y-94930572D01*
X165257274Y-95025810D01*
X165304893Y-95073429D01*
X165400131Y-95121048D01*
X165495369Y-95121048D01*
X165590607Y-95073429D01*
X165638226Y-95025810D01*
X165685845Y-94930572D01*
X165685845Y-94597238D01*
X166209655Y-95677524D02*
X166209655Y-95201333D01*
X165209655Y-95201333D01*
X166114417Y-96582286D02*
X166162036Y-96534667D01*
X166209655Y-96391810D01*
X166209655Y-96296572D01*
X166162036Y-96153714D01*
X166066798Y-96058476D01*
X165971560Y-96010857D01*
X165781084Y-95963238D01*
X165638226Y-95963238D01*
X165447750Y-96010857D01*
X165352512Y-96058476D01*
X165257274Y-96153714D01*
X165209655Y-96296572D01*
X165209655Y-96391810D01*
X165257274Y-96534667D01*
X165304893Y-96582286D01*
X166209655Y-97010857D02*
X165209655Y-97010857D01*
X165209655Y-97248952D01*
X165257274Y-97391810D01*
X165352512Y-97487048D01*
X165447750Y-97534667D01*
X165638226Y-97582286D01*
X165781084Y-97582286D01*
X165971560Y-97534667D01*
X166066798Y-97487048D01*
X166162036Y-97391810D01*
X166209655Y-97248952D01*
X166209655Y-97010857D01*
X165828703Y-98010857D02*
X165828703Y-98772762D01*
X165209655Y-99439428D02*
X165209655Y-99534667D01*
X165257274Y-99629905D01*
X165304893Y-99677524D01*
X165400131Y-99725143D01*
X165590607Y-99772762D01*
X165828703Y-99772762D01*
X166019179Y-99725143D01*
X166114417Y-99677524D01*
X166162036Y-99629905D01*
X166209655Y-99534667D01*
X166209655Y-99439428D01*
X166162036Y-99344190D01*
X166114417Y-99296571D01*
X166019179Y-99248952D01*
X165828703Y-99201333D01*
X165590607Y-99201333D01*
X165400131Y-99248952D01*
X165304893Y-99296571D01*
X165257274Y-99344190D01*
X165209655Y-99439428D01*
X166209655Y-100725143D02*
X166209655Y-100153714D01*
X166209655Y-100439428D02*
X165209655Y-100439428D01*
X165352512Y-100344190D01*
X165447750Y-100248952D01*
X165495369Y-100153714D01*
X165209655Y-101582286D02*
X165209655Y-101391809D01*
X165257274Y-101296571D01*
X165304893Y-101248952D01*
X165447750Y-101153714D01*
X165638226Y-101106095D01*
X166019179Y-101106095D01*
X166114417Y-101153714D01*
X166162036Y-101201333D01*
X166209655Y-101296571D01*
X166209655Y-101487048D01*
X166162036Y-101582286D01*
X166114417Y-101629905D01*
X166019179Y-101677524D01*
X165781084Y-101677524D01*
X165685845Y-101629905D01*
X165638226Y-101582286D01*
X165590607Y-101487048D01*
X165590607Y-101296571D01*
X165638226Y-101201333D01*
X165685845Y-101153714D01*
X165781084Y-101106095D01*
X166209655Y-102106095D02*
X165209655Y-102106095D01*
X166209655Y-102677524D01*
X165209655Y-102677524D01*
X165209655Y-103344190D02*
X165209655Y-103439429D01*
X165257274Y-103534667D01*
X165304893Y-103582286D01*
X165400131Y-103629905D01*
X165590607Y-103677524D01*
X165828703Y-103677524D01*
X166019179Y-103629905D01*
X166114417Y-103582286D01*
X166162036Y-103534667D01*
X166209655Y-103439429D01*
X166209655Y-103344190D01*
X166162036Y-103248952D01*
X166114417Y-103201333D01*
X166019179Y-103153714D01*
X165828703Y-103106095D01*
X165590607Y-103106095D01*
X165400131Y-103153714D01*
X165304893Y-103201333D01*
X165257274Y-103248952D01*
X165209655Y-103344190D01*
X165209655Y-104296571D02*
X165209655Y-104391810D01*
X165257274Y-104487048D01*
X165304893Y-104534667D01*
X165400131Y-104582286D01*
X165590607Y-104629905D01*
X165828703Y-104629905D01*
X166019179Y-104582286D01*
X166114417Y-104534667D01*
X166162036Y-104487048D01*
X166209655Y-104391810D01*
X166209655Y-104296571D01*
X166162036Y-104201333D01*
X166114417Y-104153714D01*
X166019179Y-104106095D01*
X165828703Y-104058476D01*
X165590607Y-104058476D01*
X165400131Y-104106095D01*
X165304893Y-104153714D01*
X165257274Y-104201333D01*
X165209655Y-104296571D01*
X165304893Y-105010857D02*
X165257274Y-105058476D01*
X165209655Y-105153714D01*
X165209655Y-105391810D01*
X165257274Y-105487048D01*
X165304893Y-105534667D01*
X165400131Y-105582286D01*
X165495369Y-105582286D01*
X165638226Y-105534667D01*
X166209655Y-104963238D01*
X166209655Y-105582286D01*
X166209655Y-106487048D02*
X166209655Y-106010857D01*
X165209655Y-106010857D01*
X122209655Y-91763905D02*
X121209655Y-91763905D01*
X121209655Y-92002000D01*
X121257274Y-92144858D01*
X121352512Y-92240096D01*
X121447750Y-92287715D01*
X121638226Y-92335334D01*
X121781084Y-92335334D01*
X121971560Y-92287715D01*
X122066798Y-92240096D01*
X122162036Y-92144858D01*
X122209655Y-92002000D01*
X122209655Y-91763905D01*
X122162036Y-92716286D02*
X122209655Y-92859143D01*
X122209655Y-93097239D01*
X122162036Y-93192477D01*
X122114417Y-93240096D01*
X122019179Y-93287715D01*
X121923941Y-93287715D01*
X121828703Y-93240096D01*
X121781084Y-93192477D01*
X121733464Y-93097239D01*
X121685845Y-92906762D01*
X121638226Y-92811524D01*
X121590607Y-92763905D01*
X121495369Y-92716286D01*
X121400131Y-92716286D01*
X121304893Y-92763905D01*
X121257274Y-92811524D01*
X121209655Y-92906762D01*
X121209655Y-93144858D01*
X121257274Y-93287715D01*
X122209655Y-94240096D02*
X122209655Y-93668667D01*
X122209655Y-93954381D02*
X121209655Y-93954381D01*
X121352512Y-93859143D01*
X121447750Y-93763905D01*
X121495369Y-93668667D01*
X121923941Y-94621048D02*
X121923941Y-95097239D01*
X122209655Y-94525810D02*
X121209655Y-94859143D01*
X122209655Y-95192477D01*
X122209655Y-95677524D02*
X122209655Y-95201333D01*
X121209655Y-95201333D01*
X122114417Y-96582286D02*
X122162036Y-96534667D01*
X122209655Y-96391810D01*
X122209655Y-96296572D01*
X122162036Y-96153714D01*
X122066798Y-96058476D01*
X121971560Y-96010857D01*
X121781084Y-95963238D01*
X121638226Y-95963238D01*
X121447750Y-96010857D01*
X121352512Y-96058476D01*
X121257274Y-96153714D01*
X121209655Y-96296572D01*
X121209655Y-96391810D01*
X121257274Y-96534667D01*
X121304893Y-96582286D01*
X122209655Y-97010857D02*
X121209655Y-97010857D01*
X121209655Y-97248952D01*
X121257274Y-97391810D01*
X121352512Y-97487048D01*
X121447750Y-97534667D01*
X121638226Y-97582286D01*
X121781084Y-97582286D01*
X121971560Y-97534667D01*
X122066798Y-97487048D01*
X122162036Y-97391810D01*
X122209655Y-97248952D01*
X122209655Y-97010857D01*
X121828703Y-98010857D02*
X121828703Y-98772762D01*
X121209655Y-99439428D02*
X121209655Y-99534667D01*
X121257274Y-99629905D01*
X121304893Y-99677524D01*
X121400131Y-99725143D01*
X121590607Y-99772762D01*
X121828703Y-99772762D01*
X122019179Y-99725143D01*
X122114417Y-99677524D01*
X122162036Y-99629905D01*
X122209655Y-99534667D01*
X122209655Y-99439428D01*
X122162036Y-99344190D01*
X122114417Y-99296571D01*
X122019179Y-99248952D01*
X121828703Y-99201333D01*
X121590607Y-99201333D01*
X121400131Y-99248952D01*
X121304893Y-99296571D01*
X121257274Y-99344190D01*
X121209655Y-99439428D01*
X122209655Y-100725143D02*
X122209655Y-100153714D01*
X122209655Y-100439428D02*
X121209655Y-100439428D01*
X121352512Y-100344190D01*
X121447750Y-100248952D01*
X121495369Y-100153714D01*
X121209655Y-101582286D02*
X121209655Y-101391809D01*
X121257274Y-101296571D01*
X121304893Y-101248952D01*
X121447750Y-101153714D01*
X121638226Y-101106095D01*
X122019179Y-101106095D01*
X122114417Y-101153714D01*
X122162036Y-101201333D01*
X122209655Y-101296571D01*
X122209655Y-101487048D01*
X122162036Y-101582286D01*
X122114417Y-101629905D01*
X122019179Y-101677524D01*
X121781084Y-101677524D01*
X121685845Y-101629905D01*
X121638226Y-101582286D01*
X121590607Y-101487048D01*
X121590607Y-101296571D01*
X121638226Y-101201333D01*
X121685845Y-101153714D01*
X121781084Y-101106095D01*
X122209655Y-102106095D02*
X121209655Y-102106095D01*
X122209655Y-102677524D01*
X121209655Y-102677524D01*
X121209655Y-103344190D02*
X121209655Y-103439429D01*
X121257274Y-103534667D01*
X121304893Y-103582286D01*
X121400131Y-103629905D01*
X121590607Y-103677524D01*
X121828703Y-103677524D01*
X122019179Y-103629905D01*
X122114417Y-103582286D01*
X122162036Y-103534667D01*
X122209655Y-103439429D01*
X122209655Y-103344190D01*
X122162036Y-103248952D01*
X122114417Y-103201333D01*
X122019179Y-103153714D01*
X121828703Y-103106095D01*
X121590607Y-103106095D01*
X121400131Y-103153714D01*
X121304893Y-103201333D01*
X121257274Y-103248952D01*
X121209655Y-103344190D01*
X121209655Y-104296571D02*
X121209655Y-104391810D01*
X121257274Y-104487048D01*
X121304893Y-104534667D01*
X121400131Y-104582286D01*
X121590607Y-104629905D01*
X121828703Y-104629905D01*
X122019179Y-104582286D01*
X122114417Y-104534667D01*
X122162036Y-104487048D01*
X122209655Y-104391810D01*
X122209655Y-104296571D01*
X122162036Y-104201333D01*
X122114417Y-104153714D01*
X122019179Y-104106095D01*
X121828703Y-104058476D01*
X121590607Y-104058476D01*
X121400131Y-104106095D01*
X121304893Y-104153714D01*
X121257274Y-104201333D01*
X121209655Y-104296571D01*
X121304893Y-105010857D02*
X121257274Y-105058476D01*
X121209655Y-105153714D01*
X121209655Y-105391810D01*
X121257274Y-105487048D01*
X121304893Y-105534667D01*
X121400131Y-105582286D01*
X121495369Y-105582286D01*
X121638226Y-105534667D01*
X122209655Y-104963238D01*
X122209655Y-105582286D01*
X122209655Y-106487048D02*
X122209655Y-106010857D01*
X121209655Y-106010857D01*
X78209655Y-91716286D02*
X77209655Y-91716286D01*
X77209655Y-91954381D01*
X77257274Y-92097239D01*
X77352512Y-92192477D01*
X77447750Y-92240096D01*
X77638226Y-92287715D01*
X77781084Y-92287715D01*
X77971560Y-92240096D01*
X78066798Y-92192477D01*
X78162036Y-92097239D01*
X78209655Y-91954381D01*
X78209655Y-91716286D01*
X78162036Y-92668667D02*
X78209655Y-92811524D01*
X78209655Y-93049620D01*
X78162036Y-93144858D01*
X78114417Y-93192477D01*
X78019179Y-93240096D01*
X77923941Y-93240096D01*
X77828703Y-93192477D01*
X77781084Y-93144858D01*
X77733464Y-93049620D01*
X77685845Y-92859143D01*
X77638226Y-92763905D01*
X77590607Y-92716286D01*
X77495369Y-92668667D01*
X77400131Y-92668667D01*
X77304893Y-92716286D01*
X77257274Y-92763905D01*
X77209655Y-92859143D01*
X77209655Y-93097239D01*
X77257274Y-93240096D01*
X78209655Y-94192477D02*
X78209655Y-93621048D01*
X78209655Y-93906762D02*
X77209655Y-93906762D01*
X77352512Y-93811524D01*
X77447750Y-93716286D01*
X77495369Y-93621048D01*
X78209655Y-94668667D02*
X78209655Y-94859143D01*
X78162036Y-94954382D01*
X78114417Y-95002001D01*
X77971560Y-95097239D01*
X77781084Y-95144858D01*
X77400131Y-95144858D01*
X77304893Y-95097239D01*
X77257274Y-95049620D01*
X77209655Y-94954382D01*
X77209655Y-94763905D01*
X77257274Y-94668667D01*
X77304893Y-94621048D01*
X77400131Y-94573429D01*
X77638226Y-94573429D01*
X77733464Y-94621048D01*
X77781084Y-94668667D01*
X77828703Y-94763905D01*
X77828703Y-94954382D01*
X77781084Y-95049620D01*
X77733464Y-95097239D01*
X77638226Y-95144858D01*
X78209655Y-95677524D02*
X78209655Y-95201333D01*
X77209655Y-95201333D01*
X78114417Y-96582286D02*
X78162036Y-96534667D01*
X78209655Y-96391810D01*
X78209655Y-96296572D01*
X78162036Y-96153714D01*
X78066798Y-96058476D01*
X77971560Y-96010857D01*
X77781084Y-95963238D01*
X77638226Y-95963238D01*
X77447750Y-96010857D01*
X77352512Y-96058476D01*
X77257274Y-96153714D01*
X77209655Y-96296572D01*
X77209655Y-96391810D01*
X77257274Y-96534667D01*
X77304893Y-96582286D01*
X78209655Y-97010857D02*
X77209655Y-97010857D01*
X77209655Y-97248952D01*
X77257274Y-97391810D01*
X77352512Y-97487048D01*
X77447750Y-97534667D01*
X77638226Y-97582286D01*
X77781084Y-97582286D01*
X77971560Y-97534667D01*
X78066798Y-97487048D01*
X78162036Y-97391810D01*
X78209655Y-97248952D01*
X78209655Y-97010857D01*
X77828703Y-98010857D02*
X77828703Y-98772762D01*
X77209655Y-99439428D02*
X77209655Y-99534667D01*
X77257274Y-99629905D01*
X77304893Y-99677524D01*
X77400131Y-99725143D01*
X77590607Y-99772762D01*
X77828703Y-99772762D01*
X78019179Y-99725143D01*
X78114417Y-99677524D01*
X78162036Y-99629905D01*
X78209655Y-99534667D01*
X78209655Y-99439428D01*
X78162036Y-99344190D01*
X78114417Y-99296571D01*
X78019179Y-99248952D01*
X77828703Y-99201333D01*
X77590607Y-99201333D01*
X77400131Y-99248952D01*
X77304893Y-99296571D01*
X77257274Y-99344190D01*
X77209655Y-99439428D01*
X78209655Y-100725143D02*
X78209655Y-100153714D01*
X78209655Y-100439428D02*
X77209655Y-100439428D01*
X77352512Y-100344190D01*
X77447750Y-100248952D01*
X77495369Y-100153714D01*
X77209655Y-101582286D02*
X77209655Y-101391809D01*
X77257274Y-101296571D01*
X77304893Y-101248952D01*
X77447750Y-101153714D01*
X77638226Y-101106095D01*
X78019179Y-101106095D01*
X78114417Y-101153714D01*
X78162036Y-101201333D01*
X78209655Y-101296571D01*
X78209655Y-101487048D01*
X78162036Y-101582286D01*
X78114417Y-101629905D01*
X78019179Y-101677524D01*
X77781084Y-101677524D01*
X77685845Y-101629905D01*
X77638226Y-101582286D01*
X77590607Y-101487048D01*
X77590607Y-101296571D01*
X77638226Y-101201333D01*
X77685845Y-101153714D01*
X77781084Y-101106095D01*
X78209655Y-102106095D02*
X77209655Y-102106095D01*
X78209655Y-102677524D01*
X77209655Y-102677524D01*
X77209655Y-103344190D02*
X77209655Y-103439429D01*
X77257274Y-103534667D01*
X77304893Y-103582286D01*
X77400131Y-103629905D01*
X77590607Y-103677524D01*
X77828703Y-103677524D01*
X78019179Y-103629905D01*
X78114417Y-103582286D01*
X78162036Y-103534667D01*
X78209655Y-103439429D01*
X78209655Y-103344190D01*
X78162036Y-103248952D01*
X78114417Y-103201333D01*
X78019179Y-103153714D01*
X77828703Y-103106095D01*
X77590607Y-103106095D01*
X77400131Y-103153714D01*
X77304893Y-103201333D01*
X77257274Y-103248952D01*
X77209655Y-103344190D01*
X77209655Y-104296571D02*
X77209655Y-104391810D01*
X77257274Y-104487048D01*
X77304893Y-104534667D01*
X77400131Y-104582286D01*
X77590607Y-104629905D01*
X77828703Y-104629905D01*
X78019179Y-104582286D01*
X78114417Y-104534667D01*
X78162036Y-104487048D01*
X78209655Y-104391810D01*
X78209655Y-104296571D01*
X78162036Y-104201333D01*
X78114417Y-104153714D01*
X78019179Y-104106095D01*
X77828703Y-104058476D01*
X77590607Y-104058476D01*
X77400131Y-104106095D01*
X77304893Y-104153714D01*
X77257274Y-104201333D01*
X77209655Y-104296571D01*
X77304893Y-105010857D02*
X77257274Y-105058476D01*
X77209655Y-105153714D01*
X77209655Y-105391810D01*
X77257274Y-105487048D01*
X77304893Y-105534667D01*
X77400131Y-105582286D01*
X77495369Y-105582286D01*
X77638226Y-105534667D01*
X78209655Y-104963238D01*
X78209655Y-105582286D01*
X78209655Y-106487048D02*
X78209655Y-106010857D01*
X77209655Y-106010857D01*
X210209655Y-66716286D02*
X209209655Y-66716286D01*
X209209655Y-66954381D01*
X209257274Y-67097239D01*
X209352512Y-67192477D01*
X209447750Y-67240096D01*
X209638226Y-67287715D01*
X209781084Y-67287715D01*
X209971560Y-67240096D01*
X210066798Y-67192477D01*
X210162036Y-67097239D01*
X210209655Y-66954381D01*
X210209655Y-66716286D01*
X210162036Y-67668667D02*
X210209655Y-67811524D01*
X210209655Y-68049620D01*
X210162036Y-68144858D01*
X210114417Y-68192477D01*
X210019179Y-68240096D01*
X209923941Y-68240096D01*
X209828703Y-68192477D01*
X209781084Y-68144858D01*
X209733464Y-68049620D01*
X209685845Y-67859143D01*
X209638226Y-67763905D01*
X209590607Y-67716286D01*
X209495369Y-67668667D01*
X209400131Y-67668667D01*
X209304893Y-67716286D01*
X209257274Y-67763905D01*
X209209655Y-67859143D01*
X209209655Y-68097239D01*
X209257274Y-68240096D01*
X210209655Y-69192477D02*
X210209655Y-68621048D01*
X210209655Y-68906762D02*
X209209655Y-68906762D01*
X209352512Y-68811524D01*
X209447750Y-68716286D01*
X209495369Y-68621048D01*
X209638226Y-69763905D02*
X209590607Y-69668667D01*
X209542988Y-69621048D01*
X209447750Y-69573429D01*
X209400131Y-69573429D01*
X209304893Y-69621048D01*
X209257274Y-69668667D01*
X209209655Y-69763905D01*
X209209655Y-69954382D01*
X209257274Y-70049620D01*
X209304893Y-70097239D01*
X209400131Y-70144858D01*
X209447750Y-70144858D01*
X209542988Y-70097239D01*
X209590607Y-70049620D01*
X209638226Y-69954382D01*
X209638226Y-69763905D01*
X209685845Y-69668667D01*
X209733464Y-69621048D01*
X209828703Y-69573429D01*
X210019179Y-69573429D01*
X210114417Y-69621048D01*
X210162036Y-69668667D01*
X210209655Y-69763905D01*
X210209655Y-69954382D01*
X210162036Y-70049620D01*
X210114417Y-70097239D01*
X210019179Y-70144858D01*
X209828703Y-70144858D01*
X209733464Y-70097239D01*
X209685845Y-70049620D01*
X209638226Y-69954382D01*
X210209655Y-70677524D02*
X210209655Y-70201333D01*
X209209655Y-70201333D01*
X210114417Y-71582286D02*
X210162036Y-71534667D01*
X210209655Y-71391810D01*
X210209655Y-71296572D01*
X210162036Y-71153714D01*
X210066798Y-71058476D01*
X209971560Y-71010857D01*
X209781084Y-70963238D01*
X209638226Y-70963238D01*
X209447750Y-71010857D01*
X209352512Y-71058476D01*
X209257274Y-71153714D01*
X209209655Y-71296572D01*
X209209655Y-71391810D01*
X209257274Y-71534667D01*
X209304893Y-71582286D01*
X210209655Y-72010857D02*
X209209655Y-72010857D01*
X209209655Y-72248952D01*
X209257274Y-72391810D01*
X209352512Y-72487048D01*
X209447750Y-72534667D01*
X209638226Y-72582286D01*
X209781084Y-72582286D01*
X209971560Y-72534667D01*
X210066798Y-72487048D01*
X210162036Y-72391810D01*
X210209655Y-72248952D01*
X210209655Y-72010857D01*
X209828703Y-73010857D02*
X209828703Y-73772762D01*
X209209655Y-74439428D02*
X209209655Y-74534667D01*
X209257274Y-74629905D01*
X209304893Y-74677524D01*
X209400131Y-74725143D01*
X209590607Y-74772762D01*
X209828703Y-74772762D01*
X210019179Y-74725143D01*
X210114417Y-74677524D01*
X210162036Y-74629905D01*
X210209655Y-74534667D01*
X210209655Y-74439428D01*
X210162036Y-74344190D01*
X210114417Y-74296571D01*
X210019179Y-74248952D01*
X209828703Y-74201333D01*
X209590607Y-74201333D01*
X209400131Y-74248952D01*
X209304893Y-74296571D01*
X209257274Y-74344190D01*
X209209655Y-74439428D01*
X210209655Y-75725143D02*
X210209655Y-75153714D01*
X210209655Y-75439428D02*
X209209655Y-75439428D01*
X209352512Y-75344190D01*
X209447750Y-75248952D01*
X209495369Y-75153714D01*
X209209655Y-76582286D02*
X209209655Y-76391809D01*
X209257274Y-76296571D01*
X209304893Y-76248952D01*
X209447750Y-76153714D01*
X209638226Y-76106095D01*
X210019179Y-76106095D01*
X210114417Y-76153714D01*
X210162036Y-76201333D01*
X210209655Y-76296571D01*
X210209655Y-76487048D01*
X210162036Y-76582286D01*
X210114417Y-76629905D01*
X210019179Y-76677524D01*
X209781084Y-76677524D01*
X209685845Y-76629905D01*
X209638226Y-76582286D01*
X209590607Y-76487048D01*
X209590607Y-76296571D01*
X209638226Y-76201333D01*
X209685845Y-76153714D01*
X209781084Y-76106095D01*
X210209655Y-77106095D02*
X209209655Y-77106095D01*
X210209655Y-77677524D01*
X209209655Y-77677524D01*
X209209655Y-78344190D02*
X209209655Y-78439429D01*
X209257274Y-78534667D01*
X209304893Y-78582286D01*
X209400131Y-78629905D01*
X209590607Y-78677524D01*
X209828703Y-78677524D01*
X210019179Y-78629905D01*
X210114417Y-78582286D01*
X210162036Y-78534667D01*
X210209655Y-78439429D01*
X210209655Y-78344190D01*
X210162036Y-78248952D01*
X210114417Y-78201333D01*
X210019179Y-78153714D01*
X209828703Y-78106095D01*
X209590607Y-78106095D01*
X209400131Y-78153714D01*
X209304893Y-78201333D01*
X209257274Y-78248952D01*
X209209655Y-78344190D01*
X209209655Y-79296571D02*
X209209655Y-79391810D01*
X209257274Y-79487048D01*
X209304893Y-79534667D01*
X209400131Y-79582286D01*
X209590607Y-79629905D01*
X209828703Y-79629905D01*
X210019179Y-79582286D01*
X210114417Y-79534667D01*
X210162036Y-79487048D01*
X210209655Y-79391810D01*
X210209655Y-79296571D01*
X210162036Y-79201333D01*
X210114417Y-79153714D01*
X210019179Y-79106095D01*
X209828703Y-79058476D01*
X209590607Y-79058476D01*
X209400131Y-79106095D01*
X209304893Y-79153714D01*
X209257274Y-79201333D01*
X209209655Y-79296571D01*
X209304893Y-80010857D02*
X209257274Y-80058476D01*
X209209655Y-80153714D01*
X209209655Y-80391810D01*
X209257274Y-80487048D01*
X209304893Y-80534667D01*
X209400131Y-80582286D01*
X209495369Y-80582286D01*
X209638226Y-80534667D01*
X210209655Y-79963238D01*
X210209655Y-80582286D01*
X210209655Y-81487048D02*
X210209655Y-81010857D01*
X209209655Y-81010857D01*
X166209655Y-66716286D02*
X165209655Y-66716286D01*
X165209655Y-66954381D01*
X165257274Y-67097239D01*
X165352512Y-67192477D01*
X165447750Y-67240096D01*
X165638226Y-67287715D01*
X165781084Y-67287715D01*
X165971560Y-67240096D01*
X166066798Y-67192477D01*
X166162036Y-67097239D01*
X166209655Y-66954381D01*
X166209655Y-66716286D01*
X166162036Y-67668667D02*
X166209655Y-67811524D01*
X166209655Y-68049620D01*
X166162036Y-68144858D01*
X166114417Y-68192477D01*
X166019179Y-68240096D01*
X165923941Y-68240096D01*
X165828703Y-68192477D01*
X165781084Y-68144858D01*
X165733464Y-68049620D01*
X165685845Y-67859143D01*
X165638226Y-67763905D01*
X165590607Y-67716286D01*
X165495369Y-67668667D01*
X165400131Y-67668667D01*
X165304893Y-67716286D01*
X165257274Y-67763905D01*
X165209655Y-67859143D01*
X165209655Y-68097239D01*
X165257274Y-68240096D01*
X166209655Y-69192477D02*
X166209655Y-68621048D01*
X166209655Y-68906762D02*
X165209655Y-68906762D01*
X165352512Y-68811524D01*
X165447750Y-68716286D01*
X165495369Y-68621048D01*
X165209655Y-69525810D02*
X165209655Y-70192477D01*
X166209655Y-69763905D01*
X166209655Y-70677524D02*
X166209655Y-70201333D01*
X165209655Y-70201333D01*
X166114417Y-71582286D02*
X166162036Y-71534667D01*
X166209655Y-71391810D01*
X166209655Y-71296572D01*
X166162036Y-71153714D01*
X166066798Y-71058476D01*
X165971560Y-71010857D01*
X165781084Y-70963238D01*
X165638226Y-70963238D01*
X165447750Y-71010857D01*
X165352512Y-71058476D01*
X165257274Y-71153714D01*
X165209655Y-71296572D01*
X165209655Y-71391810D01*
X165257274Y-71534667D01*
X165304893Y-71582286D01*
X166209655Y-72010857D02*
X165209655Y-72010857D01*
X165209655Y-72248952D01*
X165257274Y-72391810D01*
X165352512Y-72487048D01*
X165447750Y-72534667D01*
X165638226Y-72582286D01*
X165781084Y-72582286D01*
X165971560Y-72534667D01*
X166066798Y-72487048D01*
X166162036Y-72391810D01*
X166209655Y-72248952D01*
X166209655Y-72010857D01*
X165828703Y-73010857D02*
X165828703Y-73772762D01*
X165209655Y-74439428D02*
X165209655Y-74534667D01*
X165257274Y-74629905D01*
X165304893Y-74677524D01*
X165400131Y-74725143D01*
X165590607Y-74772762D01*
X165828703Y-74772762D01*
X166019179Y-74725143D01*
X166114417Y-74677524D01*
X166162036Y-74629905D01*
X166209655Y-74534667D01*
X166209655Y-74439428D01*
X166162036Y-74344190D01*
X166114417Y-74296571D01*
X166019179Y-74248952D01*
X165828703Y-74201333D01*
X165590607Y-74201333D01*
X165400131Y-74248952D01*
X165304893Y-74296571D01*
X165257274Y-74344190D01*
X165209655Y-74439428D01*
X166209655Y-75725143D02*
X166209655Y-75153714D01*
X166209655Y-75439428D02*
X165209655Y-75439428D01*
X165352512Y-75344190D01*
X165447750Y-75248952D01*
X165495369Y-75153714D01*
X165209655Y-76582286D02*
X165209655Y-76391809D01*
X165257274Y-76296571D01*
X165304893Y-76248952D01*
X165447750Y-76153714D01*
X165638226Y-76106095D01*
X166019179Y-76106095D01*
X166114417Y-76153714D01*
X166162036Y-76201333D01*
X166209655Y-76296571D01*
X166209655Y-76487048D01*
X166162036Y-76582286D01*
X166114417Y-76629905D01*
X166019179Y-76677524D01*
X165781084Y-76677524D01*
X165685845Y-76629905D01*
X165638226Y-76582286D01*
X165590607Y-76487048D01*
X165590607Y-76296571D01*
X165638226Y-76201333D01*
X165685845Y-76153714D01*
X165781084Y-76106095D01*
X166209655Y-77106095D02*
X165209655Y-77106095D01*
X166209655Y-77677524D01*
X165209655Y-77677524D01*
X165209655Y-78344190D02*
X165209655Y-78439429D01*
X165257274Y-78534667D01*
X165304893Y-78582286D01*
X165400131Y-78629905D01*
X165590607Y-78677524D01*
X165828703Y-78677524D01*
X166019179Y-78629905D01*
X166114417Y-78582286D01*
X166162036Y-78534667D01*
X166209655Y-78439429D01*
X166209655Y-78344190D01*
X166162036Y-78248952D01*
X166114417Y-78201333D01*
X166019179Y-78153714D01*
X165828703Y-78106095D01*
X165590607Y-78106095D01*
X165400131Y-78153714D01*
X165304893Y-78201333D01*
X165257274Y-78248952D01*
X165209655Y-78344190D01*
X165209655Y-79296571D02*
X165209655Y-79391810D01*
X165257274Y-79487048D01*
X165304893Y-79534667D01*
X165400131Y-79582286D01*
X165590607Y-79629905D01*
X165828703Y-79629905D01*
X166019179Y-79582286D01*
X166114417Y-79534667D01*
X166162036Y-79487048D01*
X166209655Y-79391810D01*
X166209655Y-79296571D01*
X166162036Y-79201333D01*
X166114417Y-79153714D01*
X166019179Y-79106095D01*
X165828703Y-79058476D01*
X165590607Y-79058476D01*
X165400131Y-79106095D01*
X165304893Y-79153714D01*
X165257274Y-79201333D01*
X165209655Y-79296571D01*
X165304893Y-80010857D02*
X165257274Y-80058476D01*
X165209655Y-80153714D01*
X165209655Y-80391810D01*
X165257274Y-80487048D01*
X165304893Y-80534667D01*
X165400131Y-80582286D01*
X165495369Y-80582286D01*
X165638226Y-80534667D01*
X166209655Y-79963238D01*
X166209655Y-80582286D01*
X166209655Y-81487048D02*
X166209655Y-81010857D01*
X165209655Y-81010857D01*
X122209655Y-66716286D02*
X121209655Y-66716286D01*
X121209655Y-66954381D01*
X121257274Y-67097239D01*
X121352512Y-67192477D01*
X121447750Y-67240096D01*
X121638226Y-67287715D01*
X121781084Y-67287715D01*
X121971560Y-67240096D01*
X122066798Y-67192477D01*
X122162036Y-67097239D01*
X122209655Y-66954381D01*
X122209655Y-66716286D01*
X122162036Y-67668667D02*
X122209655Y-67811524D01*
X122209655Y-68049620D01*
X122162036Y-68144858D01*
X122114417Y-68192477D01*
X122019179Y-68240096D01*
X121923941Y-68240096D01*
X121828703Y-68192477D01*
X121781084Y-68144858D01*
X121733464Y-68049620D01*
X121685845Y-67859143D01*
X121638226Y-67763905D01*
X121590607Y-67716286D01*
X121495369Y-67668667D01*
X121400131Y-67668667D01*
X121304893Y-67716286D01*
X121257274Y-67763905D01*
X121209655Y-67859143D01*
X121209655Y-68097239D01*
X121257274Y-68240096D01*
X122209655Y-69192477D02*
X122209655Y-68621048D01*
X122209655Y-68906762D02*
X121209655Y-68906762D01*
X121352512Y-68811524D01*
X121447750Y-68716286D01*
X121495369Y-68621048D01*
X121209655Y-70049620D02*
X121209655Y-69859143D01*
X121257274Y-69763905D01*
X121304893Y-69716286D01*
X121447750Y-69621048D01*
X121638226Y-69573429D01*
X122019179Y-69573429D01*
X122114417Y-69621048D01*
X122162036Y-69668667D01*
X122209655Y-69763905D01*
X122209655Y-69954382D01*
X122162036Y-70049620D01*
X122114417Y-70097239D01*
X122019179Y-70144858D01*
X121781084Y-70144858D01*
X121685845Y-70097239D01*
X121638226Y-70049620D01*
X121590607Y-69954382D01*
X121590607Y-69763905D01*
X121638226Y-69668667D01*
X121685845Y-69621048D01*
X121781084Y-69573429D01*
X122209655Y-70677524D02*
X122209655Y-70201333D01*
X121209655Y-70201333D01*
X122114417Y-71582286D02*
X122162036Y-71534667D01*
X122209655Y-71391810D01*
X122209655Y-71296572D01*
X122162036Y-71153714D01*
X122066798Y-71058476D01*
X121971560Y-71010857D01*
X121781084Y-70963238D01*
X121638226Y-70963238D01*
X121447750Y-71010857D01*
X121352512Y-71058476D01*
X121257274Y-71153714D01*
X121209655Y-71296572D01*
X121209655Y-71391810D01*
X121257274Y-71534667D01*
X121304893Y-71582286D01*
X122209655Y-72010857D02*
X121209655Y-72010857D01*
X121209655Y-72248952D01*
X121257274Y-72391810D01*
X121352512Y-72487048D01*
X121447750Y-72534667D01*
X121638226Y-72582286D01*
X121781084Y-72582286D01*
X121971560Y-72534667D01*
X122066798Y-72487048D01*
X122162036Y-72391810D01*
X122209655Y-72248952D01*
X122209655Y-72010857D01*
X121828703Y-73010857D02*
X121828703Y-73772762D01*
X121209655Y-74439428D02*
X121209655Y-74534667D01*
X121257274Y-74629905D01*
X121304893Y-74677524D01*
X121400131Y-74725143D01*
X121590607Y-74772762D01*
X121828703Y-74772762D01*
X122019179Y-74725143D01*
X122114417Y-74677524D01*
X122162036Y-74629905D01*
X122209655Y-74534667D01*
X122209655Y-74439428D01*
X122162036Y-74344190D01*
X122114417Y-74296571D01*
X122019179Y-74248952D01*
X121828703Y-74201333D01*
X121590607Y-74201333D01*
X121400131Y-74248952D01*
X121304893Y-74296571D01*
X121257274Y-74344190D01*
X121209655Y-74439428D01*
X122209655Y-75725143D02*
X122209655Y-75153714D01*
X122209655Y-75439428D02*
X121209655Y-75439428D01*
X121352512Y-75344190D01*
X121447750Y-75248952D01*
X121495369Y-75153714D01*
X121209655Y-76582286D02*
X121209655Y-76391809D01*
X121257274Y-76296571D01*
X121304893Y-76248952D01*
X121447750Y-76153714D01*
X121638226Y-76106095D01*
X122019179Y-76106095D01*
X122114417Y-76153714D01*
X122162036Y-76201333D01*
X122209655Y-76296571D01*
X122209655Y-76487048D01*
X122162036Y-76582286D01*
X122114417Y-76629905D01*
X122019179Y-76677524D01*
X121781084Y-76677524D01*
X121685845Y-76629905D01*
X121638226Y-76582286D01*
X121590607Y-76487048D01*
X121590607Y-76296571D01*
X121638226Y-76201333D01*
X121685845Y-76153714D01*
X121781084Y-76106095D01*
X122209655Y-77106095D02*
X121209655Y-77106095D01*
X122209655Y-77677524D01*
X121209655Y-77677524D01*
X121209655Y-78344190D02*
X121209655Y-78439429D01*
X121257274Y-78534667D01*
X121304893Y-78582286D01*
X121400131Y-78629905D01*
X121590607Y-78677524D01*
X121828703Y-78677524D01*
X122019179Y-78629905D01*
X122114417Y-78582286D01*
X122162036Y-78534667D01*
X122209655Y-78439429D01*
X122209655Y-78344190D01*
X122162036Y-78248952D01*
X122114417Y-78201333D01*
X122019179Y-78153714D01*
X121828703Y-78106095D01*
X121590607Y-78106095D01*
X121400131Y-78153714D01*
X121304893Y-78201333D01*
X121257274Y-78248952D01*
X121209655Y-78344190D01*
X121209655Y-79296571D02*
X121209655Y-79391810D01*
X121257274Y-79487048D01*
X121304893Y-79534667D01*
X121400131Y-79582286D01*
X121590607Y-79629905D01*
X121828703Y-79629905D01*
X122019179Y-79582286D01*
X122114417Y-79534667D01*
X122162036Y-79487048D01*
X122209655Y-79391810D01*
X122209655Y-79296571D01*
X122162036Y-79201333D01*
X122114417Y-79153714D01*
X122019179Y-79106095D01*
X121828703Y-79058476D01*
X121590607Y-79058476D01*
X121400131Y-79106095D01*
X121304893Y-79153714D01*
X121257274Y-79201333D01*
X121209655Y-79296571D01*
X121304893Y-80010857D02*
X121257274Y-80058476D01*
X121209655Y-80153714D01*
X121209655Y-80391810D01*
X121257274Y-80487048D01*
X121304893Y-80534667D01*
X121400131Y-80582286D01*
X121495369Y-80582286D01*
X121638226Y-80534667D01*
X122209655Y-79963238D01*
X122209655Y-80582286D01*
X122209655Y-81487048D02*
X122209655Y-81010857D01*
X121209655Y-81010857D01*
X78209655Y-66716286D02*
X77209655Y-66716286D01*
X77209655Y-66954381D01*
X77257274Y-67097239D01*
X77352512Y-67192477D01*
X77447750Y-67240096D01*
X77638226Y-67287715D01*
X77781084Y-67287715D01*
X77971560Y-67240096D01*
X78066798Y-67192477D01*
X78162036Y-67097239D01*
X78209655Y-66954381D01*
X78209655Y-66716286D01*
X78162036Y-67668667D02*
X78209655Y-67811524D01*
X78209655Y-68049620D01*
X78162036Y-68144858D01*
X78114417Y-68192477D01*
X78019179Y-68240096D01*
X77923941Y-68240096D01*
X77828703Y-68192477D01*
X77781084Y-68144858D01*
X77733464Y-68049620D01*
X77685845Y-67859143D01*
X77638226Y-67763905D01*
X77590607Y-67716286D01*
X77495369Y-67668667D01*
X77400131Y-67668667D01*
X77304893Y-67716286D01*
X77257274Y-67763905D01*
X77209655Y-67859143D01*
X77209655Y-68097239D01*
X77257274Y-68240096D01*
X78209655Y-69192477D02*
X78209655Y-68621048D01*
X78209655Y-68906762D02*
X77209655Y-68906762D01*
X77352512Y-68811524D01*
X77447750Y-68716286D01*
X77495369Y-68621048D01*
X77209655Y-70097239D02*
X77209655Y-69621048D01*
X77685845Y-69573429D01*
X77638226Y-69621048D01*
X77590607Y-69716286D01*
X77590607Y-69954382D01*
X77638226Y-70049620D01*
X77685845Y-70097239D01*
X77781084Y-70144858D01*
X78019179Y-70144858D01*
X78114417Y-70097239D01*
X78162036Y-70049620D01*
X78209655Y-69954382D01*
X78209655Y-69716286D01*
X78162036Y-69621048D01*
X78114417Y-69573429D01*
X78209655Y-70677524D02*
X78209655Y-70201333D01*
X77209655Y-70201333D01*
X78114417Y-71582286D02*
X78162036Y-71534667D01*
X78209655Y-71391810D01*
X78209655Y-71296572D01*
X78162036Y-71153714D01*
X78066798Y-71058476D01*
X77971560Y-71010857D01*
X77781084Y-70963238D01*
X77638226Y-70963238D01*
X77447750Y-71010857D01*
X77352512Y-71058476D01*
X77257274Y-71153714D01*
X77209655Y-71296572D01*
X77209655Y-71391810D01*
X77257274Y-71534667D01*
X77304893Y-71582286D01*
X78209655Y-72010857D02*
X77209655Y-72010857D01*
X77209655Y-72248952D01*
X77257274Y-72391810D01*
X77352512Y-72487048D01*
X77447750Y-72534667D01*
X77638226Y-72582286D01*
X77781084Y-72582286D01*
X77971560Y-72534667D01*
X78066798Y-72487048D01*
X78162036Y-72391810D01*
X78209655Y-72248952D01*
X78209655Y-72010857D01*
X77828703Y-73010857D02*
X77828703Y-73772762D01*
X77209655Y-74439428D02*
X77209655Y-74534667D01*
X77257274Y-74629905D01*
X77304893Y-74677524D01*
X77400131Y-74725143D01*
X77590607Y-74772762D01*
X77828703Y-74772762D01*
X78019179Y-74725143D01*
X78114417Y-74677524D01*
X78162036Y-74629905D01*
X78209655Y-74534667D01*
X78209655Y-74439428D01*
X78162036Y-74344190D01*
X78114417Y-74296571D01*
X78019179Y-74248952D01*
X77828703Y-74201333D01*
X77590607Y-74201333D01*
X77400131Y-74248952D01*
X77304893Y-74296571D01*
X77257274Y-74344190D01*
X77209655Y-74439428D01*
X78209655Y-75725143D02*
X78209655Y-75153714D01*
X78209655Y-75439428D02*
X77209655Y-75439428D01*
X77352512Y-75344190D01*
X77447750Y-75248952D01*
X77495369Y-75153714D01*
X77209655Y-76582286D02*
X77209655Y-76391809D01*
X77257274Y-76296571D01*
X77304893Y-76248952D01*
X77447750Y-76153714D01*
X77638226Y-76106095D01*
X78019179Y-76106095D01*
X78114417Y-76153714D01*
X78162036Y-76201333D01*
X78209655Y-76296571D01*
X78209655Y-76487048D01*
X78162036Y-76582286D01*
X78114417Y-76629905D01*
X78019179Y-76677524D01*
X77781084Y-76677524D01*
X77685845Y-76629905D01*
X77638226Y-76582286D01*
X77590607Y-76487048D01*
X77590607Y-76296571D01*
X77638226Y-76201333D01*
X77685845Y-76153714D01*
X77781084Y-76106095D01*
X78209655Y-77106095D02*
X77209655Y-77106095D01*
X78209655Y-77677524D01*
X77209655Y-77677524D01*
X77209655Y-78344190D02*
X77209655Y-78439429D01*
X77257274Y-78534667D01*
X77304893Y-78582286D01*
X77400131Y-78629905D01*
X77590607Y-78677524D01*
X77828703Y-78677524D01*
X78019179Y-78629905D01*
X78114417Y-78582286D01*
X78162036Y-78534667D01*
X78209655Y-78439429D01*
X78209655Y-78344190D01*
X78162036Y-78248952D01*
X78114417Y-78201333D01*
X78019179Y-78153714D01*
X77828703Y-78106095D01*
X77590607Y-78106095D01*
X77400131Y-78153714D01*
X77304893Y-78201333D01*
X77257274Y-78248952D01*
X77209655Y-78344190D01*
X77209655Y-79296571D02*
X77209655Y-79391810D01*
X77257274Y-79487048D01*
X77304893Y-79534667D01*
X77400131Y-79582286D01*
X77590607Y-79629905D01*
X77828703Y-79629905D01*
X78019179Y-79582286D01*
X78114417Y-79534667D01*
X78162036Y-79487048D01*
X78209655Y-79391810D01*
X78209655Y-79296571D01*
X78162036Y-79201333D01*
X78114417Y-79153714D01*
X78019179Y-79106095D01*
X77828703Y-79058476D01*
X77590607Y-79058476D01*
X77400131Y-79106095D01*
X77304893Y-79153714D01*
X77257274Y-79201333D01*
X77209655Y-79296571D01*
X77304893Y-80010857D02*
X77257274Y-80058476D01*
X77209655Y-80153714D01*
X77209655Y-80391810D01*
X77257274Y-80487048D01*
X77304893Y-80534667D01*
X77400131Y-80582286D01*
X77495369Y-80582286D01*
X77638226Y-80534667D01*
X78209655Y-79963238D01*
X78209655Y-80582286D01*
X78209655Y-81487048D02*
X78209655Y-81010857D01*
X77209655Y-81010857D01*
X210209655Y-41716286D02*
X209209655Y-41716286D01*
X209209655Y-41954381D01*
X209257274Y-42097239D01*
X209352512Y-42192477D01*
X209447750Y-42240096D01*
X209638226Y-42287715D01*
X209781084Y-42287715D01*
X209971560Y-42240096D01*
X210066798Y-42192477D01*
X210162036Y-42097239D01*
X210209655Y-41954381D01*
X210209655Y-41716286D01*
X210162036Y-42668667D02*
X210209655Y-42811524D01*
X210209655Y-43049620D01*
X210162036Y-43144858D01*
X210114417Y-43192477D01*
X210019179Y-43240096D01*
X209923941Y-43240096D01*
X209828703Y-43192477D01*
X209781084Y-43144858D01*
X209733464Y-43049620D01*
X209685845Y-42859143D01*
X209638226Y-42763905D01*
X209590607Y-42716286D01*
X209495369Y-42668667D01*
X209400131Y-42668667D01*
X209304893Y-42716286D01*
X209257274Y-42763905D01*
X209209655Y-42859143D01*
X209209655Y-43097239D01*
X209257274Y-43240096D01*
X210209655Y-44192477D02*
X210209655Y-43621048D01*
X210209655Y-43906762D02*
X209209655Y-43906762D01*
X209352512Y-43811524D01*
X209447750Y-43716286D01*
X209495369Y-43621048D01*
X209542988Y-45049620D02*
X210209655Y-45049620D01*
X209162036Y-44811524D02*
X209876322Y-44573429D01*
X209876322Y-45192477D01*
X210209655Y-45677524D02*
X210209655Y-45201333D01*
X209209655Y-45201333D01*
X210114417Y-46582286D02*
X210162036Y-46534667D01*
X210209655Y-46391810D01*
X210209655Y-46296572D01*
X210162036Y-46153714D01*
X210066798Y-46058476D01*
X209971560Y-46010857D01*
X209781084Y-45963238D01*
X209638226Y-45963238D01*
X209447750Y-46010857D01*
X209352512Y-46058476D01*
X209257274Y-46153714D01*
X209209655Y-46296572D01*
X209209655Y-46391810D01*
X209257274Y-46534667D01*
X209304893Y-46582286D01*
X210209655Y-47010857D02*
X209209655Y-47010857D01*
X209209655Y-47248952D01*
X209257274Y-47391810D01*
X209352512Y-47487048D01*
X209447750Y-47534667D01*
X209638226Y-47582286D01*
X209781084Y-47582286D01*
X209971560Y-47534667D01*
X210066798Y-47487048D01*
X210162036Y-47391810D01*
X210209655Y-47248952D01*
X210209655Y-47010857D01*
X209828703Y-48010857D02*
X209828703Y-48772762D01*
X209209655Y-49439428D02*
X209209655Y-49534667D01*
X209257274Y-49629905D01*
X209304893Y-49677524D01*
X209400131Y-49725143D01*
X209590607Y-49772762D01*
X209828703Y-49772762D01*
X210019179Y-49725143D01*
X210114417Y-49677524D01*
X210162036Y-49629905D01*
X210209655Y-49534667D01*
X210209655Y-49439428D01*
X210162036Y-49344190D01*
X210114417Y-49296571D01*
X210019179Y-49248952D01*
X209828703Y-49201333D01*
X209590607Y-49201333D01*
X209400131Y-49248952D01*
X209304893Y-49296571D01*
X209257274Y-49344190D01*
X209209655Y-49439428D01*
X210209655Y-50725143D02*
X210209655Y-50153714D01*
X210209655Y-50439428D02*
X209209655Y-50439428D01*
X209352512Y-50344190D01*
X209447750Y-50248952D01*
X209495369Y-50153714D01*
X209209655Y-51582286D02*
X209209655Y-51391809D01*
X209257274Y-51296571D01*
X209304893Y-51248952D01*
X209447750Y-51153714D01*
X209638226Y-51106095D01*
X210019179Y-51106095D01*
X210114417Y-51153714D01*
X210162036Y-51201333D01*
X210209655Y-51296571D01*
X210209655Y-51487048D01*
X210162036Y-51582286D01*
X210114417Y-51629905D01*
X210019179Y-51677524D01*
X209781084Y-51677524D01*
X209685845Y-51629905D01*
X209638226Y-51582286D01*
X209590607Y-51487048D01*
X209590607Y-51296571D01*
X209638226Y-51201333D01*
X209685845Y-51153714D01*
X209781084Y-51106095D01*
X210209655Y-52106095D02*
X209209655Y-52106095D01*
X210209655Y-52677524D01*
X209209655Y-52677524D01*
X209209655Y-53344190D02*
X209209655Y-53439429D01*
X209257274Y-53534667D01*
X209304893Y-53582286D01*
X209400131Y-53629905D01*
X209590607Y-53677524D01*
X209828703Y-53677524D01*
X210019179Y-53629905D01*
X210114417Y-53582286D01*
X210162036Y-53534667D01*
X210209655Y-53439429D01*
X210209655Y-53344190D01*
X210162036Y-53248952D01*
X210114417Y-53201333D01*
X210019179Y-53153714D01*
X209828703Y-53106095D01*
X209590607Y-53106095D01*
X209400131Y-53153714D01*
X209304893Y-53201333D01*
X209257274Y-53248952D01*
X209209655Y-53344190D01*
X209209655Y-54296571D02*
X209209655Y-54391810D01*
X209257274Y-54487048D01*
X209304893Y-54534667D01*
X209400131Y-54582286D01*
X209590607Y-54629905D01*
X209828703Y-54629905D01*
X210019179Y-54582286D01*
X210114417Y-54534667D01*
X210162036Y-54487048D01*
X210209655Y-54391810D01*
X210209655Y-54296571D01*
X210162036Y-54201333D01*
X210114417Y-54153714D01*
X210019179Y-54106095D01*
X209828703Y-54058476D01*
X209590607Y-54058476D01*
X209400131Y-54106095D01*
X209304893Y-54153714D01*
X209257274Y-54201333D01*
X209209655Y-54296571D01*
X209304893Y-55010857D02*
X209257274Y-55058476D01*
X209209655Y-55153714D01*
X209209655Y-55391810D01*
X209257274Y-55487048D01*
X209304893Y-55534667D01*
X209400131Y-55582286D01*
X209495369Y-55582286D01*
X209638226Y-55534667D01*
X210209655Y-54963238D01*
X210209655Y-55582286D01*
X210209655Y-56487048D02*
X210209655Y-56010857D01*
X209209655Y-56010857D01*
X166209655Y-41716286D02*
X165209655Y-41716286D01*
X165209655Y-41954381D01*
X165257274Y-42097239D01*
X165352512Y-42192477D01*
X165447750Y-42240096D01*
X165638226Y-42287715D01*
X165781084Y-42287715D01*
X165971560Y-42240096D01*
X166066798Y-42192477D01*
X166162036Y-42097239D01*
X166209655Y-41954381D01*
X166209655Y-41716286D01*
X166162036Y-42668667D02*
X166209655Y-42811524D01*
X166209655Y-43049620D01*
X166162036Y-43144858D01*
X166114417Y-43192477D01*
X166019179Y-43240096D01*
X165923941Y-43240096D01*
X165828703Y-43192477D01*
X165781084Y-43144858D01*
X165733464Y-43049620D01*
X165685845Y-42859143D01*
X165638226Y-42763905D01*
X165590607Y-42716286D01*
X165495369Y-42668667D01*
X165400131Y-42668667D01*
X165304893Y-42716286D01*
X165257274Y-42763905D01*
X165209655Y-42859143D01*
X165209655Y-43097239D01*
X165257274Y-43240096D01*
X166209655Y-44192477D02*
X166209655Y-43621048D01*
X166209655Y-43906762D02*
X165209655Y-43906762D01*
X165352512Y-43811524D01*
X165447750Y-43716286D01*
X165495369Y-43621048D01*
X165209655Y-44525810D02*
X165209655Y-45144858D01*
X165590607Y-44811524D01*
X165590607Y-44954382D01*
X165638226Y-45049620D01*
X165685845Y-45097239D01*
X165781084Y-45144858D01*
X166019179Y-45144858D01*
X166114417Y-45097239D01*
X166162036Y-45049620D01*
X166209655Y-44954382D01*
X166209655Y-44668667D01*
X166162036Y-44573429D01*
X166114417Y-44525810D01*
X166209655Y-45677524D02*
X166209655Y-45201333D01*
X165209655Y-45201333D01*
X166114417Y-46582286D02*
X166162036Y-46534667D01*
X166209655Y-46391810D01*
X166209655Y-46296572D01*
X166162036Y-46153714D01*
X166066798Y-46058476D01*
X165971560Y-46010857D01*
X165781084Y-45963238D01*
X165638226Y-45963238D01*
X165447750Y-46010857D01*
X165352512Y-46058476D01*
X165257274Y-46153714D01*
X165209655Y-46296572D01*
X165209655Y-46391810D01*
X165257274Y-46534667D01*
X165304893Y-46582286D01*
X166209655Y-47010857D02*
X165209655Y-47010857D01*
X165209655Y-47248952D01*
X165257274Y-47391810D01*
X165352512Y-47487048D01*
X165447750Y-47534667D01*
X165638226Y-47582286D01*
X165781084Y-47582286D01*
X165971560Y-47534667D01*
X166066798Y-47487048D01*
X166162036Y-47391810D01*
X166209655Y-47248952D01*
X166209655Y-47010857D01*
X165828703Y-48010857D02*
X165828703Y-48772762D01*
X165209655Y-49439428D02*
X165209655Y-49534667D01*
X165257274Y-49629905D01*
X165304893Y-49677524D01*
X165400131Y-49725143D01*
X165590607Y-49772762D01*
X165828703Y-49772762D01*
X166019179Y-49725143D01*
X166114417Y-49677524D01*
X166162036Y-49629905D01*
X166209655Y-49534667D01*
X166209655Y-49439428D01*
X166162036Y-49344190D01*
X166114417Y-49296571D01*
X166019179Y-49248952D01*
X165828703Y-49201333D01*
X165590607Y-49201333D01*
X165400131Y-49248952D01*
X165304893Y-49296571D01*
X165257274Y-49344190D01*
X165209655Y-49439428D01*
X166209655Y-50725143D02*
X166209655Y-50153714D01*
X166209655Y-50439428D02*
X165209655Y-50439428D01*
X165352512Y-50344190D01*
X165447750Y-50248952D01*
X165495369Y-50153714D01*
X165209655Y-51582286D02*
X165209655Y-51391809D01*
X165257274Y-51296571D01*
X165304893Y-51248952D01*
X165447750Y-51153714D01*
X165638226Y-51106095D01*
X166019179Y-51106095D01*
X166114417Y-51153714D01*
X166162036Y-51201333D01*
X166209655Y-51296571D01*
X166209655Y-51487048D01*
X166162036Y-51582286D01*
X166114417Y-51629905D01*
X166019179Y-51677524D01*
X165781084Y-51677524D01*
X165685845Y-51629905D01*
X165638226Y-51582286D01*
X165590607Y-51487048D01*
X165590607Y-51296571D01*
X165638226Y-51201333D01*
X165685845Y-51153714D01*
X165781084Y-51106095D01*
X166209655Y-52106095D02*
X165209655Y-52106095D01*
X166209655Y-52677524D01*
X165209655Y-52677524D01*
X165209655Y-53344190D02*
X165209655Y-53439429D01*
X165257274Y-53534667D01*
X165304893Y-53582286D01*
X165400131Y-53629905D01*
X165590607Y-53677524D01*
X165828703Y-53677524D01*
X166019179Y-53629905D01*
X166114417Y-53582286D01*
X166162036Y-53534667D01*
X166209655Y-53439429D01*
X166209655Y-53344190D01*
X166162036Y-53248952D01*
X166114417Y-53201333D01*
X166019179Y-53153714D01*
X165828703Y-53106095D01*
X165590607Y-53106095D01*
X165400131Y-53153714D01*
X165304893Y-53201333D01*
X165257274Y-53248952D01*
X165209655Y-53344190D01*
X165209655Y-54296571D02*
X165209655Y-54391810D01*
X165257274Y-54487048D01*
X165304893Y-54534667D01*
X165400131Y-54582286D01*
X165590607Y-54629905D01*
X165828703Y-54629905D01*
X166019179Y-54582286D01*
X166114417Y-54534667D01*
X166162036Y-54487048D01*
X166209655Y-54391810D01*
X166209655Y-54296571D01*
X166162036Y-54201333D01*
X166114417Y-54153714D01*
X166019179Y-54106095D01*
X165828703Y-54058476D01*
X165590607Y-54058476D01*
X165400131Y-54106095D01*
X165304893Y-54153714D01*
X165257274Y-54201333D01*
X165209655Y-54296571D01*
X165304893Y-55010857D02*
X165257274Y-55058476D01*
X165209655Y-55153714D01*
X165209655Y-55391810D01*
X165257274Y-55487048D01*
X165304893Y-55534667D01*
X165400131Y-55582286D01*
X165495369Y-55582286D01*
X165638226Y-55534667D01*
X166209655Y-54963238D01*
X166209655Y-55582286D01*
X166209655Y-56487048D02*
X166209655Y-56010857D01*
X165209655Y-56010857D01*
X122209655Y-41716286D02*
X121209655Y-41716286D01*
X121209655Y-41954381D01*
X121257274Y-42097239D01*
X121352512Y-42192477D01*
X121447750Y-42240096D01*
X121638226Y-42287715D01*
X121781084Y-42287715D01*
X121971560Y-42240096D01*
X122066798Y-42192477D01*
X122162036Y-42097239D01*
X122209655Y-41954381D01*
X122209655Y-41716286D01*
X122162036Y-42668667D02*
X122209655Y-42811524D01*
X122209655Y-43049620D01*
X122162036Y-43144858D01*
X122114417Y-43192477D01*
X122019179Y-43240096D01*
X121923941Y-43240096D01*
X121828703Y-43192477D01*
X121781084Y-43144858D01*
X121733464Y-43049620D01*
X121685845Y-42859143D01*
X121638226Y-42763905D01*
X121590607Y-42716286D01*
X121495369Y-42668667D01*
X121400131Y-42668667D01*
X121304893Y-42716286D01*
X121257274Y-42763905D01*
X121209655Y-42859143D01*
X121209655Y-43097239D01*
X121257274Y-43240096D01*
X122209655Y-44192477D02*
X122209655Y-43621048D01*
X122209655Y-43906762D02*
X121209655Y-43906762D01*
X121352512Y-43811524D01*
X121447750Y-43716286D01*
X121495369Y-43621048D01*
X121304893Y-44573429D02*
X121257274Y-44621048D01*
X121209655Y-44716286D01*
X121209655Y-44954382D01*
X121257274Y-45049620D01*
X121304893Y-45097239D01*
X121400131Y-45144858D01*
X121495369Y-45144858D01*
X121638226Y-45097239D01*
X122209655Y-44525810D01*
X122209655Y-45144858D01*
X122209655Y-45677524D02*
X122209655Y-45201333D01*
X121209655Y-45201333D01*
X122114417Y-46582286D02*
X122162036Y-46534667D01*
X122209655Y-46391810D01*
X122209655Y-46296572D01*
X122162036Y-46153714D01*
X122066798Y-46058476D01*
X121971560Y-46010857D01*
X121781084Y-45963238D01*
X121638226Y-45963238D01*
X121447750Y-46010857D01*
X121352512Y-46058476D01*
X121257274Y-46153714D01*
X121209655Y-46296572D01*
X121209655Y-46391810D01*
X121257274Y-46534667D01*
X121304893Y-46582286D01*
X122209655Y-47010857D02*
X121209655Y-47010857D01*
X121209655Y-47248952D01*
X121257274Y-47391810D01*
X121352512Y-47487048D01*
X121447750Y-47534667D01*
X121638226Y-47582286D01*
X121781084Y-47582286D01*
X121971560Y-47534667D01*
X122066798Y-47487048D01*
X122162036Y-47391810D01*
X122209655Y-47248952D01*
X122209655Y-47010857D01*
X121828703Y-48010857D02*
X121828703Y-48772762D01*
X121209655Y-49439428D02*
X121209655Y-49534667D01*
X121257274Y-49629905D01*
X121304893Y-49677524D01*
X121400131Y-49725143D01*
X121590607Y-49772762D01*
X121828703Y-49772762D01*
X122019179Y-49725143D01*
X122114417Y-49677524D01*
X122162036Y-49629905D01*
X122209655Y-49534667D01*
X122209655Y-49439428D01*
X122162036Y-49344190D01*
X122114417Y-49296571D01*
X122019179Y-49248952D01*
X121828703Y-49201333D01*
X121590607Y-49201333D01*
X121400131Y-49248952D01*
X121304893Y-49296571D01*
X121257274Y-49344190D01*
X121209655Y-49439428D01*
X122209655Y-50725143D02*
X122209655Y-50153714D01*
X122209655Y-50439428D02*
X121209655Y-50439428D01*
X121352512Y-50344190D01*
X121447750Y-50248952D01*
X121495369Y-50153714D01*
X121209655Y-51582286D02*
X121209655Y-51391809D01*
X121257274Y-51296571D01*
X121304893Y-51248952D01*
X121447750Y-51153714D01*
X121638226Y-51106095D01*
X122019179Y-51106095D01*
X122114417Y-51153714D01*
X122162036Y-51201333D01*
X122209655Y-51296571D01*
X122209655Y-51487048D01*
X122162036Y-51582286D01*
X122114417Y-51629905D01*
X122019179Y-51677524D01*
X121781084Y-51677524D01*
X121685845Y-51629905D01*
X121638226Y-51582286D01*
X121590607Y-51487048D01*
X121590607Y-51296571D01*
X121638226Y-51201333D01*
X121685845Y-51153714D01*
X121781084Y-51106095D01*
X122209655Y-52106095D02*
X121209655Y-52106095D01*
X122209655Y-52677524D01*
X121209655Y-52677524D01*
X121209655Y-53344190D02*
X121209655Y-53439429D01*
X121257274Y-53534667D01*
X121304893Y-53582286D01*
X121400131Y-53629905D01*
X121590607Y-53677524D01*
X121828703Y-53677524D01*
X122019179Y-53629905D01*
X122114417Y-53582286D01*
X122162036Y-53534667D01*
X122209655Y-53439429D01*
X122209655Y-53344190D01*
X122162036Y-53248952D01*
X122114417Y-53201333D01*
X122019179Y-53153714D01*
X121828703Y-53106095D01*
X121590607Y-53106095D01*
X121400131Y-53153714D01*
X121304893Y-53201333D01*
X121257274Y-53248952D01*
X121209655Y-53344190D01*
X121209655Y-54296571D02*
X121209655Y-54391810D01*
X121257274Y-54487048D01*
X121304893Y-54534667D01*
X121400131Y-54582286D01*
X121590607Y-54629905D01*
X121828703Y-54629905D01*
X122019179Y-54582286D01*
X122114417Y-54534667D01*
X122162036Y-54487048D01*
X122209655Y-54391810D01*
X122209655Y-54296571D01*
X122162036Y-54201333D01*
X122114417Y-54153714D01*
X122019179Y-54106095D01*
X121828703Y-54058476D01*
X121590607Y-54058476D01*
X121400131Y-54106095D01*
X121304893Y-54153714D01*
X121257274Y-54201333D01*
X121209655Y-54296571D01*
X121304893Y-55010857D02*
X121257274Y-55058476D01*
X121209655Y-55153714D01*
X121209655Y-55391810D01*
X121257274Y-55487048D01*
X121304893Y-55534667D01*
X121400131Y-55582286D01*
X121495369Y-55582286D01*
X121638226Y-55534667D01*
X122209655Y-54963238D01*
X122209655Y-55582286D01*
X122209655Y-56487048D02*
X122209655Y-56010857D01*
X121209655Y-56010857D01*
X193134343Y-129710153D02*
X193181962Y-129662534D01*
X193229581Y-129519677D01*
X193229581Y-129424439D01*
X193181962Y-129281581D01*
X193086724Y-129186343D01*
X192991486Y-129138724D01*
X192801010Y-129091105D01*
X192658152Y-129091105D01*
X192467676Y-129138724D01*
X192372438Y-129186343D01*
X192277200Y-129281581D01*
X192229581Y-129424439D01*
X192229581Y-129519677D01*
X192277200Y-129662534D01*
X192324819Y-129710153D01*
X193229581Y-130662534D02*
X193229581Y-130091105D01*
X193229581Y-130376819D02*
X192229581Y-130376819D01*
X192372438Y-130281581D01*
X192467676Y-130186343D01*
X192515295Y-130091105D01*
X193229581Y-131614915D02*
X193229581Y-131043486D01*
X193229581Y-131329200D02*
X192229581Y-131329200D01*
X192372438Y-131233962D01*
X192467676Y-131138724D01*
X192515295Y-131043486D01*
X192229581Y-132233962D02*
X192229581Y-132329201D01*
X192277200Y-132424439D01*
X192324819Y-132472058D01*
X192420057Y-132519677D01*
X192610533Y-132567296D01*
X192848629Y-132567296D01*
X193039105Y-132519677D01*
X193134343Y-132472058D01*
X193181962Y-132424439D01*
X193229581Y-132329201D01*
X193229581Y-132233962D01*
X193181962Y-132138724D01*
X193134343Y-132091105D01*
X193039105Y-132043486D01*
X192848629Y-131995867D01*
X192610533Y-131995867D01*
X192420057Y-132043486D01*
X192324819Y-132091105D01*
X192277200Y-132138724D01*
X192229581Y-132233962D01*
X149134343Y-130233962D02*
X149181962Y-130186343D01*
X149229581Y-130043486D01*
X149229581Y-129948248D01*
X149181962Y-129805390D01*
X149086724Y-129710152D01*
X148991486Y-129662533D01*
X148801010Y-129614914D01*
X148658152Y-129614914D01*
X148467676Y-129662533D01*
X148372438Y-129710152D01*
X148277200Y-129805390D01*
X148229581Y-129948248D01*
X148229581Y-130043486D01*
X148277200Y-130186343D01*
X148324819Y-130233962D01*
X149229581Y-131186343D02*
X149229581Y-130614914D01*
X149229581Y-130900628D02*
X148229581Y-130900628D01*
X148372438Y-130805390D01*
X148467676Y-130710152D01*
X148515295Y-130614914D01*
X148705771Y-131948248D02*
X148705771Y-131614914D01*
X149229581Y-131614914D02*
X148229581Y-131614914D01*
X148229581Y-132091105D01*
X105134343Y-130210153D02*
X105181962Y-130162534D01*
X105229581Y-130019677D01*
X105229581Y-129924439D01*
X105181962Y-129781581D01*
X105086724Y-129686343D01*
X104991486Y-129638724D01*
X104801010Y-129591105D01*
X104658152Y-129591105D01*
X104467676Y-129638724D01*
X104372438Y-129686343D01*
X104277200Y-129781581D01*
X104229581Y-129924439D01*
X104229581Y-130019677D01*
X104277200Y-130162534D01*
X104324819Y-130210153D01*
X105229581Y-131162534D02*
X105229581Y-130591105D01*
X105229581Y-130876819D02*
X104229581Y-130876819D01*
X104372438Y-130781581D01*
X104467676Y-130686343D01*
X104515295Y-130591105D01*
X104705771Y-131591105D02*
X104705771Y-131924439D01*
X105229581Y-132067296D02*
X105229581Y-131591105D01*
X104229581Y-131591105D01*
X104229581Y-132067296D01*
X61134343Y-130162534D02*
X61181962Y-130114915D01*
X61229581Y-129972058D01*
X61229581Y-129876820D01*
X61181962Y-129733962D01*
X61086724Y-129638724D01*
X60991486Y-129591105D01*
X60801010Y-129543486D01*
X60658152Y-129543486D01*
X60467676Y-129591105D01*
X60372438Y-129638724D01*
X60277200Y-129733962D01*
X60229581Y-129876820D01*
X60229581Y-129972058D01*
X60277200Y-130114915D01*
X60324819Y-130162534D01*
X61229581Y-131114915D02*
X61229581Y-130543486D01*
X61229581Y-130829200D02*
X60229581Y-130829200D01*
X60372438Y-130733962D01*
X60467676Y-130638724D01*
X60515295Y-130543486D01*
X61229581Y-131543486D02*
X60229581Y-131543486D01*
X60229581Y-131781581D01*
X60277200Y-131924439D01*
X60372438Y-132019677D01*
X60467676Y-132067296D01*
X60658152Y-132114915D01*
X60801010Y-132114915D01*
X60991486Y-132067296D01*
X61086724Y-132019677D01*
X61181962Y-131924439D01*
X61229581Y-131781581D01*
X61229581Y-131543486D01*
X193134343Y-105162534D02*
X193181962Y-105114915D01*
X193229581Y-104972058D01*
X193229581Y-104876820D01*
X193181962Y-104733962D01*
X193086724Y-104638724D01*
X192991486Y-104591105D01*
X192801010Y-104543486D01*
X192658152Y-104543486D01*
X192467676Y-104591105D01*
X192372438Y-104638724D01*
X192277200Y-104733962D01*
X192229581Y-104876820D01*
X192229581Y-104972058D01*
X192277200Y-105114915D01*
X192324819Y-105162534D01*
X193229581Y-106114915D02*
X193229581Y-105543486D01*
X193229581Y-105829200D02*
X192229581Y-105829200D01*
X192372438Y-105733962D01*
X192467676Y-105638724D01*
X192515295Y-105543486D01*
X193134343Y-107114915D02*
X193181962Y-107067296D01*
X193229581Y-106924439D01*
X193229581Y-106829201D01*
X193181962Y-106686343D01*
X193086724Y-106591105D01*
X192991486Y-106543486D01*
X192801010Y-106495867D01*
X192658152Y-106495867D01*
X192467676Y-106543486D01*
X192372438Y-106591105D01*
X192277200Y-106686343D01*
X192229581Y-106829201D01*
X192229581Y-106924439D01*
X192277200Y-107067296D01*
X192324819Y-107114915D01*
X149134343Y-105162534D02*
X149181962Y-105114915D01*
X149229581Y-104972058D01*
X149229581Y-104876820D01*
X149181962Y-104733962D01*
X149086724Y-104638724D01*
X148991486Y-104591105D01*
X148801010Y-104543486D01*
X148658152Y-104543486D01*
X148467676Y-104591105D01*
X148372438Y-104638724D01*
X148277200Y-104733962D01*
X148229581Y-104876820D01*
X148229581Y-104972058D01*
X148277200Y-105114915D01*
X148324819Y-105162534D01*
X149229581Y-106114915D02*
X149229581Y-105543486D01*
X149229581Y-105829200D02*
X148229581Y-105829200D01*
X148372438Y-105733962D01*
X148467676Y-105638724D01*
X148515295Y-105543486D01*
X148705771Y-106876820D02*
X148753390Y-107019677D01*
X148801010Y-107067296D01*
X148896248Y-107114915D01*
X149039105Y-107114915D01*
X149134343Y-107067296D01*
X149181962Y-107019677D01*
X149229581Y-106924439D01*
X149229581Y-106543486D01*
X148229581Y-106543486D01*
X148229581Y-106876820D01*
X148277200Y-106972058D01*
X148324819Y-107019677D01*
X148420057Y-107067296D01*
X148515295Y-107067296D01*
X148610533Y-107019677D01*
X148658152Y-106972058D01*
X148705771Y-106876820D01*
X148705771Y-106543486D01*
X105134343Y-105233962D02*
X105181962Y-105186343D01*
X105229581Y-105043486D01*
X105229581Y-104948248D01*
X105181962Y-104805390D01*
X105086724Y-104710152D01*
X104991486Y-104662533D01*
X104801010Y-104614914D01*
X104658152Y-104614914D01*
X104467676Y-104662533D01*
X104372438Y-104710152D01*
X104277200Y-104805390D01*
X104229581Y-104948248D01*
X104229581Y-105043486D01*
X104277200Y-105186343D01*
X104324819Y-105233962D01*
X105229581Y-106186343D02*
X105229581Y-105614914D01*
X105229581Y-105900628D02*
X104229581Y-105900628D01*
X104372438Y-105805390D01*
X104467676Y-105710152D01*
X104515295Y-105614914D01*
X104943867Y-106567295D02*
X104943867Y-107043486D01*
X105229581Y-106472057D02*
X104229581Y-106805390D01*
X105229581Y-107138724D01*
X61134343Y-105186343D02*
X61181962Y-105138724D01*
X61229581Y-104995867D01*
X61229581Y-104900629D01*
X61181962Y-104757771D01*
X61086724Y-104662533D01*
X60991486Y-104614914D01*
X60801010Y-104567295D01*
X60658152Y-104567295D01*
X60467676Y-104614914D01*
X60372438Y-104662533D01*
X60277200Y-104757771D01*
X60229581Y-104900629D01*
X60229581Y-104995867D01*
X60277200Y-105138724D01*
X60324819Y-105186343D01*
X61229581Y-106138724D02*
X61229581Y-105567295D01*
X61229581Y-105853009D02*
X60229581Y-105853009D01*
X60372438Y-105757771D01*
X60467676Y-105662533D01*
X60515295Y-105567295D01*
X61229581Y-106614914D02*
X61229581Y-106805390D01*
X61181962Y-106900629D01*
X61134343Y-106948248D01*
X60991486Y-107043486D01*
X60801010Y-107091105D01*
X60420057Y-107091105D01*
X60324819Y-107043486D01*
X60277200Y-106995867D01*
X60229581Y-106900629D01*
X60229581Y-106710152D01*
X60277200Y-106614914D01*
X60324819Y-106567295D01*
X60420057Y-106519676D01*
X60658152Y-106519676D01*
X60753390Y-106567295D01*
X60801010Y-106614914D01*
X60848629Y-106710152D01*
X60848629Y-106900629D01*
X60801010Y-106995867D01*
X60753390Y-107043486D01*
X60658152Y-107091105D01*
X193134343Y-80186343D02*
X193181962Y-80138724D01*
X193229581Y-79995867D01*
X193229581Y-79900629D01*
X193181962Y-79757771D01*
X193086724Y-79662533D01*
X192991486Y-79614914D01*
X192801010Y-79567295D01*
X192658152Y-79567295D01*
X192467676Y-79614914D01*
X192372438Y-79662533D01*
X192277200Y-79757771D01*
X192229581Y-79900629D01*
X192229581Y-79995867D01*
X192277200Y-80138724D01*
X192324819Y-80186343D01*
X193229581Y-81138724D02*
X193229581Y-80567295D01*
X193229581Y-80853009D02*
X192229581Y-80853009D01*
X192372438Y-80757771D01*
X192467676Y-80662533D01*
X192515295Y-80567295D01*
X192658152Y-81710152D02*
X192610533Y-81614914D01*
X192562914Y-81567295D01*
X192467676Y-81519676D01*
X192420057Y-81519676D01*
X192324819Y-81567295D01*
X192277200Y-81614914D01*
X192229581Y-81710152D01*
X192229581Y-81900629D01*
X192277200Y-81995867D01*
X192324819Y-82043486D01*
X192420057Y-82091105D01*
X192467676Y-82091105D01*
X192562914Y-82043486D01*
X192610533Y-81995867D01*
X192658152Y-81900629D01*
X192658152Y-81710152D01*
X192705771Y-81614914D01*
X192753390Y-81567295D01*
X192848629Y-81519676D01*
X193039105Y-81519676D01*
X193134343Y-81567295D01*
X193181962Y-81614914D01*
X193229581Y-81710152D01*
X193229581Y-81900629D01*
X193181962Y-81995867D01*
X193134343Y-82043486D01*
X193039105Y-82091105D01*
X192848629Y-82091105D01*
X192753390Y-82043486D01*
X192705771Y-81995867D01*
X192658152Y-81900629D01*
X149134343Y-80186343D02*
X149181962Y-80138724D01*
X149229581Y-79995867D01*
X149229581Y-79900629D01*
X149181962Y-79757771D01*
X149086724Y-79662533D01*
X148991486Y-79614914D01*
X148801010Y-79567295D01*
X148658152Y-79567295D01*
X148467676Y-79614914D01*
X148372438Y-79662533D01*
X148277200Y-79757771D01*
X148229581Y-79900629D01*
X148229581Y-79995867D01*
X148277200Y-80138724D01*
X148324819Y-80186343D01*
X149229581Y-81138724D02*
X149229581Y-80567295D01*
X149229581Y-80853009D02*
X148229581Y-80853009D01*
X148372438Y-80757771D01*
X148467676Y-80662533D01*
X148515295Y-80567295D01*
X148229581Y-81472057D02*
X148229581Y-82138724D01*
X149229581Y-81710152D01*
X105134343Y-80186343D02*
X105181962Y-80138724D01*
X105229581Y-79995867D01*
X105229581Y-79900629D01*
X105181962Y-79757771D01*
X105086724Y-79662533D01*
X104991486Y-79614914D01*
X104801010Y-79567295D01*
X104658152Y-79567295D01*
X104467676Y-79614914D01*
X104372438Y-79662533D01*
X104277200Y-79757771D01*
X104229581Y-79900629D01*
X104229581Y-79995867D01*
X104277200Y-80138724D01*
X104324819Y-80186343D01*
X105229581Y-81138724D02*
X105229581Y-80567295D01*
X105229581Y-80853009D02*
X104229581Y-80853009D01*
X104372438Y-80757771D01*
X104467676Y-80662533D01*
X104515295Y-80567295D01*
X104229581Y-81995867D02*
X104229581Y-81805390D01*
X104277200Y-81710152D01*
X104324819Y-81662533D01*
X104467676Y-81567295D01*
X104658152Y-81519676D01*
X105039105Y-81519676D01*
X105134343Y-81567295D01*
X105181962Y-81614914D01*
X105229581Y-81710152D01*
X105229581Y-81900629D01*
X105181962Y-81995867D01*
X105134343Y-82043486D01*
X105039105Y-82091105D01*
X104801010Y-82091105D01*
X104705771Y-82043486D01*
X104658152Y-81995867D01*
X104610533Y-81900629D01*
X104610533Y-81710152D01*
X104658152Y-81614914D01*
X104705771Y-81567295D01*
X104801010Y-81519676D01*
X61134343Y-80186343D02*
X61181962Y-80138724D01*
X61229581Y-79995867D01*
X61229581Y-79900629D01*
X61181962Y-79757771D01*
X61086724Y-79662533D01*
X60991486Y-79614914D01*
X60801010Y-79567295D01*
X60658152Y-79567295D01*
X60467676Y-79614914D01*
X60372438Y-79662533D01*
X60277200Y-79757771D01*
X60229581Y-79900629D01*
X60229581Y-79995867D01*
X60277200Y-80138724D01*
X60324819Y-80186343D01*
X61229581Y-81138724D02*
X61229581Y-80567295D01*
X61229581Y-80853009D02*
X60229581Y-80853009D01*
X60372438Y-80757771D01*
X60467676Y-80662533D01*
X60515295Y-80567295D01*
X60229581Y-82043486D02*
X60229581Y-81567295D01*
X60705771Y-81519676D01*
X60658152Y-81567295D01*
X60610533Y-81662533D01*
X60610533Y-81900629D01*
X60658152Y-81995867D01*
X60705771Y-82043486D01*
X60801010Y-82091105D01*
X61039105Y-82091105D01*
X61134343Y-82043486D01*
X61181962Y-81995867D01*
X61229581Y-81900629D01*
X61229581Y-81662533D01*
X61181962Y-81567295D01*
X61134343Y-81519676D01*
X193134343Y-55186343D02*
X193181962Y-55138724D01*
X193229581Y-54995867D01*
X193229581Y-54900629D01*
X193181962Y-54757771D01*
X193086724Y-54662533D01*
X192991486Y-54614914D01*
X192801010Y-54567295D01*
X192658152Y-54567295D01*
X192467676Y-54614914D01*
X192372438Y-54662533D01*
X192277200Y-54757771D01*
X192229581Y-54900629D01*
X192229581Y-54995867D01*
X192277200Y-55138724D01*
X192324819Y-55186343D01*
X193229581Y-56138724D02*
X193229581Y-55567295D01*
X193229581Y-55853009D02*
X192229581Y-55853009D01*
X192372438Y-55757771D01*
X192467676Y-55662533D01*
X192515295Y-55567295D01*
X192562914Y-56995867D02*
X193229581Y-56995867D01*
X192181962Y-56757771D02*
X192896248Y-56519676D01*
X192896248Y-57138724D01*
X149134343Y-55186343D02*
X149181962Y-55138724D01*
X149229581Y-54995867D01*
X149229581Y-54900629D01*
X149181962Y-54757771D01*
X149086724Y-54662533D01*
X148991486Y-54614914D01*
X148801010Y-54567295D01*
X148658152Y-54567295D01*
X148467676Y-54614914D01*
X148372438Y-54662533D01*
X148277200Y-54757771D01*
X148229581Y-54900629D01*
X148229581Y-54995867D01*
X148277200Y-55138724D01*
X148324819Y-55186343D01*
X149229581Y-56138724D02*
X149229581Y-55567295D01*
X149229581Y-55853009D02*
X148229581Y-55853009D01*
X148372438Y-55757771D01*
X148467676Y-55662533D01*
X148515295Y-55567295D01*
X148229581Y-56472057D02*
X148229581Y-57091105D01*
X148610533Y-56757771D01*
X148610533Y-56900629D01*
X148658152Y-56995867D01*
X148705771Y-57043486D01*
X148801010Y-57091105D01*
X149039105Y-57091105D01*
X149134343Y-57043486D01*
X149181962Y-56995867D01*
X149229581Y-56900629D01*
X149229581Y-56614914D01*
X149181962Y-56519676D01*
X149134343Y-56472057D01*
X105134343Y-55186343D02*
X105181962Y-55138724D01*
X105229581Y-54995867D01*
X105229581Y-54900629D01*
X105181962Y-54757771D01*
X105086724Y-54662533D01*
X104991486Y-54614914D01*
X104801010Y-54567295D01*
X104658152Y-54567295D01*
X104467676Y-54614914D01*
X104372438Y-54662533D01*
X104277200Y-54757771D01*
X104229581Y-54900629D01*
X104229581Y-54995867D01*
X104277200Y-55138724D01*
X104324819Y-55186343D01*
X105229581Y-56138724D02*
X105229581Y-55567295D01*
X105229581Y-55853009D02*
X104229581Y-55853009D01*
X104372438Y-55757771D01*
X104467676Y-55662533D01*
X104515295Y-55567295D01*
X104324819Y-56519676D02*
X104277200Y-56567295D01*
X104229581Y-56662533D01*
X104229581Y-56900629D01*
X104277200Y-56995867D01*
X104324819Y-57043486D01*
X104420057Y-57091105D01*
X104515295Y-57091105D01*
X104658152Y-57043486D01*
X105229581Y-56472057D01*
X105229581Y-57091105D01*
X206935143Y-127456953D02*
X206982762Y-127409334D01*
X207030381Y-127266477D01*
X207030381Y-127171239D01*
X206982762Y-127028381D01*
X206887524Y-126933143D01*
X206792286Y-126885524D01*
X206601810Y-126837905D01*
X206458952Y-126837905D01*
X206268476Y-126885524D01*
X206173238Y-126933143D01*
X206078000Y-127028381D01*
X206030381Y-127171239D01*
X206030381Y-127266477D01*
X206078000Y-127409334D01*
X206125619Y-127456953D01*
X207030381Y-128409334D02*
X207030381Y-127837905D01*
X207030381Y-128123619D02*
X206030381Y-128123619D01*
X206173238Y-128028381D01*
X206268476Y-127933143D01*
X206316095Y-127837905D01*
X207030381Y-129361715D02*
X207030381Y-128790286D01*
X207030381Y-129076000D02*
X206030381Y-129076000D01*
X206173238Y-128980762D01*
X206268476Y-128885524D01*
X206316095Y-128790286D01*
X206030381Y-129980762D02*
X206030381Y-130076001D01*
X206078000Y-130171239D01*
X206125619Y-130218858D01*
X206220857Y-130266477D01*
X206411333Y-130314096D01*
X206649429Y-130314096D01*
X206839905Y-130266477D01*
X206935143Y-130218858D01*
X206982762Y-130171239D01*
X207030381Y-130076001D01*
X207030381Y-129980762D01*
X206982762Y-129885524D01*
X206935143Y-129837905D01*
X206839905Y-129790286D01*
X206649429Y-129742667D01*
X206411333Y-129742667D01*
X206220857Y-129790286D01*
X206125619Y-129837905D01*
X206078000Y-129885524D01*
X206030381Y-129980762D01*
X162935143Y-127980762D02*
X162982762Y-127933143D01*
X163030381Y-127790286D01*
X163030381Y-127695048D01*
X162982762Y-127552190D01*
X162887524Y-127456952D01*
X162792286Y-127409333D01*
X162601810Y-127361714D01*
X162458952Y-127361714D01*
X162268476Y-127409333D01*
X162173238Y-127456952D01*
X162078000Y-127552190D01*
X162030381Y-127695048D01*
X162030381Y-127790286D01*
X162078000Y-127933143D01*
X162125619Y-127980762D01*
X163030381Y-128933143D02*
X163030381Y-128361714D01*
X163030381Y-128647428D02*
X162030381Y-128647428D01*
X162173238Y-128552190D01*
X162268476Y-128456952D01*
X162316095Y-128361714D01*
X162506571Y-129695048D02*
X162506571Y-129361714D01*
X163030381Y-129361714D02*
X162030381Y-129361714D01*
X162030381Y-129837905D01*
X118935143Y-127956953D02*
X118982762Y-127909334D01*
X119030381Y-127766477D01*
X119030381Y-127671239D01*
X118982762Y-127528381D01*
X118887524Y-127433143D01*
X118792286Y-127385524D01*
X118601810Y-127337905D01*
X118458952Y-127337905D01*
X118268476Y-127385524D01*
X118173238Y-127433143D01*
X118078000Y-127528381D01*
X118030381Y-127671239D01*
X118030381Y-127766477D01*
X118078000Y-127909334D01*
X118125619Y-127956953D01*
X119030381Y-128909334D02*
X119030381Y-128337905D01*
X119030381Y-128623619D02*
X118030381Y-128623619D01*
X118173238Y-128528381D01*
X118268476Y-128433143D01*
X118316095Y-128337905D01*
X118506571Y-129337905D02*
X118506571Y-129671239D01*
X119030381Y-129814096D02*
X119030381Y-129337905D01*
X118030381Y-129337905D01*
X118030381Y-129814096D01*
X74935143Y-127909334D02*
X74982762Y-127861715D01*
X75030381Y-127718858D01*
X75030381Y-127623620D01*
X74982762Y-127480762D01*
X74887524Y-127385524D01*
X74792286Y-127337905D01*
X74601810Y-127290286D01*
X74458952Y-127290286D01*
X74268476Y-127337905D01*
X74173238Y-127385524D01*
X74078000Y-127480762D01*
X74030381Y-127623620D01*
X74030381Y-127718858D01*
X74078000Y-127861715D01*
X74125619Y-127909334D01*
X75030381Y-128861715D02*
X75030381Y-128290286D01*
X75030381Y-128576000D02*
X74030381Y-128576000D01*
X74173238Y-128480762D01*
X74268476Y-128385524D01*
X74316095Y-128290286D01*
X75030381Y-129290286D02*
X74030381Y-129290286D01*
X74030381Y-129528381D01*
X74078000Y-129671239D01*
X74173238Y-129766477D01*
X74268476Y-129814096D01*
X74458952Y-129861715D01*
X74601810Y-129861715D01*
X74792286Y-129814096D01*
X74887524Y-129766477D01*
X74982762Y-129671239D01*
X75030381Y-129528381D01*
X75030381Y-129290286D01*
X206935143Y-102909334D02*
X206982762Y-102861715D01*
X207030381Y-102718858D01*
X207030381Y-102623620D01*
X206982762Y-102480762D01*
X206887524Y-102385524D01*
X206792286Y-102337905D01*
X206601810Y-102290286D01*
X206458952Y-102290286D01*
X206268476Y-102337905D01*
X206173238Y-102385524D01*
X206078000Y-102480762D01*
X206030381Y-102623620D01*
X206030381Y-102718858D01*
X206078000Y-102861715D01*
X206125619Y-102909334D01*
X207030381Y-103861715D02*
X207030381Y-103290286D01*
X207030381Y-103576000D02*
X206030381Y-103576000D01*
X206173238Y-103480762D01*
X206268476Y-103385524D01*
X206316095Y-103290286D01*
X206935143Y-104861715D02*
X206982762Y-104814096D01*
X207030381Y-104671239D01*
X207030381Y-104576001D01*
X206982762Y-104433143D01*
X206887524Y-104337905D01*
X206792286Y-104290286D01*
X206601810Y-104242667D01*
X206458952Y-104242667D01*
X206268476Y-104290286D01*
X206173238Y-104337905D01*
X206078000Y-104433143D01*
X206030381Y-104576001D01*
X206030381Y-104671239D01*
X206078000Y-104814096D01*
X206125619Y-104861715D01*
X162935143Y-102909334D02*
X162982762Y-102861715D01*
X163030381Y-102718858D01*
X163030381Y-102623620D01*
X162982762Y-102480762D01*
X162887524Y-102385524D01*
X162792286Y-102337905D01*
X162601810Y-102290286D01*
X162458952Y-102290286D01*
X162268476Y-102337905D01*
X162173238Y-102385524D01*
X162078000Y-102480762D01*
X162030381Y-102623620D01*
X162030381Y-102718858D01*
X162078000Y-102861715D01*
X162125619Y-102909334D01*
X163030381Y-103861715D02*
X163030381Y-103290286D01*
X163030381Y-103576000D02*
X162030381Y-103576000D01*
X162173238Y-103480762D01*
X162268476Y-103385524D01*
X162316095Y-103290286D01*
X162506571Y-104623620D02*
X162554190Y-104766477D01*
X162601810Y-104814096D01*
X162697048Y-104861715D01*
X162839905Y-104861715D01*
X162935143Y-104814096D01*
X162982762Y-104766477D01*
X163030381Y-104671239D01*
X163030381Y-104290286D01*
X162030381Y-104290286D01*
X162030381Y-104623620D01*
X162078000Y-104718858D01*
X162125619Y-104766477D01*
X162220857Y-104814096D01*
X162316095Y-104814096D01*
X162411333Y-104766477D01*
X162458952Y-104718858D01*
X162506571Y-104623620D01*
X162506571Y-104290286D01*
X118935143Y-102980762D02*
X118982762Y-102933143D01*
X119030381Y-102790286D01*
X119030381Y-102695048D01*
X118982762Y-102552190D01*
X118887524Y-102456952D01*
X118792286Y-102409333D01*
X118601810Y-102361714D01*
X118458952Y-102361714D01*
X118268476Y-102409333D01*
X118173238Y-102456952D01*
X118078000Y-102552190D01*
X118030381Y-102695048D01*
X118030381Y-102790286D01*
X118078000Y-102933143D01*
X118125619Y-102980762D01*
X119030381Y-103933143D02*
X119030381Y-103361714D01*
X119030381Y-103647428D02*
X118030381Y-103647428D01*
X118173238Y-103552190D01*
X118268476Y-103456952D01*
X118316095Y-103361714D01*
X118744667Y-104314095D02*
X118744667Y-104790286D01*
X119030381Y-104218857D02*
X118030381Y-104552190D01*
X119030381Y-104885524D01*
X74935143Y-102933143D02*
X74982762Y-102885524D01*
X75030381Y-102742667D01*
X75030381Y-102647429D01*
X74982762Y-102504571D01*
X74887524Y-102409333D01*
X74792286Y-102361714D01*
X74601810Y-102314095D01*
X74458952Y-102314095D01*
X74268476Y-102361714D01*
X74173238Y-102409333D01*
X74078000Y-102504571D01*
X74030381Y-102647429D01*
X74030381Y-102742667D01*
X74078000Y-102885524D01*
X74125619Y-102933143D01*
X75030381Y-103885524D02*
X75030381Y-103314095D01*
X75030381Y-103599809D02*
X74030381Y-103599809D01*
X74173238Y-103504571D01*
X74268476Y-103409333D01*
X74316095Y-103314095D01*
X75030381Y-104361714D02*
X75030381Y-104552190D01*
X74982762Y-104647429D01*
X74935143Y-104695048D01*
X74792286Y-104790286D01*
X74601810Y-104837905D01*
X74220857Y-104837905D01*
X74125619Y-104790286D01*
X74078000Y-104742667D01*
X74030381Y-104647429D01*
X74030381Y-104456952D01*
X74078000Y-104361714D01*
X74125619Y-104314095D01*
X74220857Y-104266476D01*
X74458952Y-104266476D01*
X74554190Y-104314095D01*
X74601810Y-104361714D01*
X74649429Y-104456952D01*
X74649429Y-104647429D01*
X74601810Y-104742667D01*
X74554190Y-104790286D01*
X74458952Y-104837905D01*
X206935143Y-77933143D02*
X206982762Y-77885524D01*
X207030381Y-77742667D01*
X207030381Y-77647429D01*
X206982762Y-77504571D01*
X206887524Y-77409333D01*
X206792286Y-77361714D01*
X206601810Y-77314095D01*
X206458952Y-77314095D01*
X206268476Y-77361714D01*
X206173238Y-77409333D01*
X206078000Y-77504571D01*
X206030381Y-77647429D01*
X206030381Y-77742667D01*
X206078000Y-77885524D01*
X206125619Y-77933143D01*
X207030381Y-78885524D02*
X207030381Y-78314095D01*
X207030381Y-78599809D02*
X206030381Y-78599809D01*
X206173238Y-78504571D01*
X206268476Y-78409333D01*
X206316095Y-78314095D01*
X206458952Y-79456952D02*
X206411333Y-79361714D01*
X206363714Y-79314095D01*
X206268476Y-79266476D01*
X206220857Y-79266476D01*
X206125619Y-79314095D01*
X206078000Y-79361714D01*
X206030381Y-79456952D01*
X206030381Y-79647429D01*
X206078000Y-79742667D01*
X206125619Y-79790286D01*
X206220857Y-79837905D01*
X206268476Y-79837905D01*
X206363714Y-79790286D01*
X206411333Y-79742667D01*
X206458952Y-79647429D01*
X206458952Y-79456952D01*
X206506571Y-79361714D01*
X206554190Y-79314095D01*
X206649429Y-79266476D01*
X206839905Y-79266476D01*
X206935143Y-79314095D01*
X206982762Y-79361714D01*
X207030381Y-79456952D01*
X207030381Y-79647429D01*
X206982762Y-79742667D01*
X206935143Y-79790286D01*
X206839905Y-79837905D01*
X206649429Y-79837905D01*
X206554190Y-79790286D01*
X206506571Y-79742667D01*
X206458952Y-79647429D01*
X162935143Y-77933143D02*
X162982762Y-77885524D01*
X163030381Y-77742667D01*
X163030381Y-77647429D01*
X162982762Y-77504571D01*
X162887524Y-77409333D01*
X162792286Y-77361714D01*
X162601810Y-77314095D01*
X162458952Y-77314095D01*
X162268476Y-77361714D01*
X162173238Y-77409333D01*
X162078000Y-77504571D01*
X162030381Y-77647429D01*
X162030381Y-77742667D01*
X162078000Y-77885524D01*
X162125619Y-77933143D01*
X163030381Y-78885524D02*
X163030381Y-78314095D01*
X163030381Y-78599809D02*
X162030381Y-78599809D01*
X162173238Y-78504571D01*
X162268476Y-78409333D01*
X162316095Y-78314095D01*
X162030381Y-79218857D02*
X162030381Y-79885524D01*
X163030381Y-79456952D01*
X118935143Y-77933143D02*
X118982762Y-77885524D01*
X119030381Y-77742667D01*
X119030381Y-77647429D01*
X118982762Y-77504571D01*
X118887524Y-77409333D01*
X118792286Y-77361714D01*
X118601810Y-77314095D01*
X118458952Y-77314095D01*
X118268476Y-77361714D01*
X118173238Y-77409333D01*
X118078000Y-77504571D01*
X118030381Y-77647429D01*
X118030381Y-77742667D01*
X118078000Y-77885524D01*
X118125619Y-77933143D01*
X119030381Y-78885524D02*
X119030381Y-78314095D01*
X119030381Y-78599809D02*
X118030381Y-78599809D01*
X118173238Y-78504571D01*
X118268476Y-78409333D01*
X118316095Y-78314095D01*
X118030381Y-79742667D02*
X118030381Y-79552190D01*
X118078000Y-79456952D01*
X118125619Y-79409333D01*
X118268476Y-79314095D01*
X118458952Y-79266476D01*
X118839905Y-79266476D01*
X118935143Y-79314095D01*
X118982762Y-79361714D01*
X119030381Y-79456952D01*
X119030381Y-79647429D01*
X118982762Y-79742667D01*
X118935143Y-79790286D01*
X118839905Y-79837905D01*
X118601810Y-79837905D01*
X118506571Y-79790286D01*
X118458952Y-79742667D01*
X118411333Y-79647429D01*
X118411333Y-79456952D01*
X118458952Y-79361714D01*
X118506571Y-79314095D01*
X118601810Y-79266476D01*
X74935143Y-77933143D02*
X74982762Y-77885524D01*
X75030381Y-77742667D01*
X75030381Y-77647429D01*
X74982762Y-77504571D01*
X74887524Y-77409333D01*
X74792286Y-77361714D01*
X74601810Y-77314095D01*
X74458952Y-77314095D01*
X74268476Y-77361714D01*
X74173238Y-77409333D01*
X74078000Y-77504571D01*
X74030381Y-77647429D01*
X74030381Y-77742667D01*
X74078000Y-77885524D01*
X74125619Y-77933143D01*
X75030381Y-78885524D02*
X75030381Y-78314095D01*
X75030381Y-78599809D02*
X74030381Y-78599809D01*
X74173238Y-78504571D01*
X74268476Y-78409333D01*
X74316095Y-78314095D01*
X74030381Y-79790286D02*
X74030381Y-79314095D01*
X74506571Y-79266476D01*
X74458952Y-79314095D01*
X74411333Y-79409333D01*
X74411333Y-79647429D01*
X74458952Y-79742667D01*
X74506571Y-79790286D01*
X74601810Y-79837905D01*
X74839905Y-79837905D01*
X74935143Y-79790286D01*
X74982762Y-79742667D01*
X75030381Y-79647429D01*
X75030381Y-79409333D01*
X74982762Y-79314095D01*
X74935143Y-79266476D01*
X206935143Y-52933143D02*
X206982762Y-52885524D01*
X207030381Y-52742667D01*
X207030381Y-52647429D01*
X206982762Y-52504571D01*
X206887524Y-52409333D01*
X206792286Y-52361714D01*
X206601810Y-52314095D01*
X206458952Y-52314095D01*
X206268476Y-52361714D01*
X206173238Y-52409333D01*
X206078000Y-52504571D01*
X206030381Y-52647429D01*
X206030381Y-52742667D01*
X206078000Y-52885524D01*
X206125619Y-52933143D01*
X207030381Y-53885524D02*
X207030381Y-53314095D01*
X207030381Y-53599809D02*
X206030381Y-53599809D01*
X206173238Y-53504571D01*
X206268476Y-53409333D01*
X206316095Y-53314095D01*
X206363714Y-54742667D02*
X207030381Y-54742667D01*
X205982762Y-54504571D02*
X206697048Y-54266476D01*
X206697048Y-54885524D01*
X162935143Y-52933143D02*
X162982762Y-52885524D01*
X163030381Y-52742667D01*
X163030381Y-52647429D01*
X162982762Y-52504571D01*
X162887524Y-52409333D01*
X162792286Y-52361714D01*
X162601810Y-52314095D01*
X162458952Y-52314095D01*
X162268476Y-52361714D01*
X162173238Y-52409333D01*
X162078000Y-52504571D01*
X162030381Y-52647429D01*
X162030381Y-52742667D01*
X162078000Y-52885524D01*
X162125619Y-52933143D01*
X163030381Y-53885524D02*
X163030381Y-53314095D01*
X163030381Y-53599809D02*
X162030381Y-53599809D01*
X162173238Y-53504571D01*
X162268476Y-53409333D01*
X162316095Y-53314095D01*
X162030381Y-54218857D02*
X162030381Y-54837905D01*
X162411333Y-54504571D01*
X162411333Y-54647429D01*
X162458952Y-54742667D01*
X162506571Y-54790286D01*
X162601810Y-54837905D01*
X162839905Y-54837905D01*
X162935143Y-54790286D01*
X162982762Y-54742667D01*
X163030381Y-54647429D01*
X163030381Y-54361714D01*
X162982762Y-54266476D01*
X162935143Y-54218857D01*
X118935143Y-52933143D02*
X118982762Y-52885524D01*
X119030381Y-52742667D01*
X119030381Y-52647429D01*
X118982762Y-52504571D01*
X118887524Y-52409333D01*
X118792286Y-52361714D01*
X118601810Y-52314095D01*
X118458952Y-52314095D01*
X118268476Y-52361714D01*
X118173238Y-52409333D01*
X118078000Y-52504571D01*
X118030381Y-52647429D01*
X118030381Y-52742667D01*
X118078000Y-52885524D01*
X118125619Y-52933143D01*
X119030381Y-53885524D02*
X119030381Y-53314095D01*
X119030381Y-53599809D02*
X118030381Y-53599809D01*
X118173238Y-53504571D01*
X118268476Y-53409333D01*
X118316095Y-53314095D01*
X118125619Y-54266476D02*
X118078000Y-54314095D01*
X118030381Y-54409333D01*
X118030381Y-54647429D01*
X118078000Y-54742667D01*
X118125619Y-54790286D01*
X118220857Y-54837905D01*
X118316095Y-54837905D01*
X118458952Y-54790286D01*
X119030381Y-54218857D01*
X119030381Y-54837905D01*
X191249143Y-118187953D02*
X191296762Y-118140334D01*
X191344381Y-117997477D01*
X191344381Y-117902239D01*
X191296762Y-117759381D01*
X191201524Y-117664143D01*
X191106286Y-117616524D01*
X190915810Y-117568905D01*
X190772952Y-117568905D01*
X190582476Y-117616524D01*
X190487238Y-117664143D01*
X190392000Y-117759381D01*
X190344381Y-117902239D01*
X190344381Y-117997477D01*
X190392000Y-118140334D01*
X190439619Y-118187953D01*
X191344381Y-119140334D02*
X191344381Y-118568905D01*
X191344381Y-118854619D02*
X190344381Y-118854619D01*
X190487238Y-118759381D01*
X190582476Y-118664143D01*
X190630095Y-118568905D01*
X191344381Y-120092715D02*
X191344381Y-119521286D01*
X191344381Y-119807000D02*
X190344381Y-119807000D01*
X190487238Y-119711762D01*
X190582476Y-119616524D01*
X190630095Y-119521286D01*
X190344381Y-120711762D02*
X190344381Y-120807001D01*
X190392000Y-120902239D01*
X190439619Y-120949858D01*
X190534857Y-120997477D01*
X190725333Y-121045096D01*
X190963429Y-121045096D01*
X191153905Y-120997477D01*
X191249143Y-120949858D01*
X191296762Y-120902239D01*
X191344381Y-120807001D01*
X191344381Y-120711762D01*
X191296762Y-120616524D01*
X191249143Y-120568905D01*
X191153905Y-120521286D01*
X190963429Y-120473667D01*
X190725333Y-120473667D01*
X190534857Y-120521286D01*
X190439619Y-120568905D01*
X190392000Y-120616524D01*
X190344381Y-120711762D01*
X147249143Y-118711762D02*
X147296762Y-118664143D01*
X147344381Y-118521286D01*
X147344381Y-118426048D01*
X147296762Y-118283190D01*
X147201524Y-118187952D01*
X147106286Y-118140333D01*
X146915810Y-118092714D01*
X146772952Y-118092714D01*
X146582476Y-118140333D01*
X146487238Y-118187952D01*
X146392000Y-118283190D01*
X146344381Y-118426048D01*
X146344381Y-118521286D01*
X146392000Y-118664143D01*
X146439619Y-118711762D01*
X147344381Y-119664143D02*
X147344381Y-119092714D01*
X147344381Y-119378428D02*
X146344381Y-119378428D01*
X146487238Y-119283190D01*
X146582476Y-119187952D01*
X146630095Y-119092714D01*
X146820571Y-120426048D02*
X146820571Y-120092714D01*
X147344381Y-120092714D02*
X146344381Y-120092714D01*
X146344381Y-120568905D01*
X103249143Y-118687953D02*
X103296762Y-118640334D01*
X103344381Y-118497477D01*
X103344381Y-118402239D01*
X103296762Y-118259381D01*
X103201524Y-118164143D01*
X103106286Y-118116524D01*
X102915810Y-118068905D01*
X102772952Y-118068905D01*
X102582476Y-118116524D01*
X102487238Y-118164143D01*
X102392000Y-118259381D01*
X102344381Y-118402239D01*
X102344381Y-118497477D01*
X102392000Y-118640334D01*
X102439619Y-118687953D01*
X103344381Y-119640334D02*
X103344381Y-119068905D01*
X103344381Y-119354619D02*
X102344381Y-119354619D01*
X102487238Y-119259381D01*
X102582476Y-119164143D01*
X102630095Y-119068905D01*
X102820571Y-120068905D02*
X102820571Y-120402239D01*
X103344381Y-120545096D02*
X103344381Y-120068905D01*
X102344381Y-120068905D01*
X102344381Y-120545096D01*
X59249143Y-118640334D02*
X59296762Y-118592715D01*
X59344381Y-118449858D01*
X59344381Y-118354620D01*
X59296762Y-118211762D01*
X59201524Y-118116524D01*
X59106286Y-118068905D01*
X58915810Y-118021286D01*
X58772952Y-118021286D01*
X58582476Y-118068905D01*
X58487238Y-118116524D01*
X58392000Y-118211762D01*
X58344381Y-118354620D01*
X58344381Y-118449858D01*
X58392000Y-118592715D01*
X58439619Y-118640334D01*
X59344381Y-119592715D02*
X59344381Y-119021286D01*
X59344381Y-119307000D02*
X58344381Y-119307000D01*
X58487238Y-119211762D01*
X58582476Y-119116524D01*
X58630095Y-119021286D01*
X59344381Y-120021286D02*
X58344381Y-120021286D01*
X58344381Y-120259381D01*
X58392000Y-120402239D01*
X58487238Y-120497477D01*
X58582476Y-120545096D01*
X58772952Y-120592715D01*
X58915810Y-120592715D01*
X59106286Y-120545096D01*
X59201524Y-120497477D01*
X59296762Y-120402239D01*
X59344381Y-120259381D01*
X59344381Y-120021286D01*
X191249143Y-93640334D02*
X191296762Y-93592715D01*
X191344381Y-93449858D01*
X191344381Y-93354620D01*
X191296762Y-93211762D01*
X191201524Y-93116524D01*
X191106286Y-93068905D01*
X190915810Y-93021286D01*
X190772952Y-93021286D01*
X190582476Y-93068905D01*
X190487238Y-93116524D01*
X190392000Y-93211762D01*
X190344381Y-93354620D01*
X190344381Y-93449858D01*
X190392000Y-93592715D01*
X190439619Y-93640334D01*
X191344381Y-94592715D02*
X191344381Y-94021286D01*
X191344381Y-94307000D02*
X190344381Y-94307000D01*
X190487238Y-94211762D01*
X190582476Y-94116524D01*
X190630095Y-94021286D01*
X191249143Y-95592715D02*
X191296762Y-95545096D01*
X191344381Y-95402239D01*
X191344381Y-95307001D01*
X191296762Y-95164143D01*
X191201524Y-95068905D01*
X191106286Y-95021286D01*
X190915810Y-94973667D01*
X190772952Y-94973667D01*
X190582476Y-95021286D01*
X190487238Y-95068905D01*
X190392000Y-95164143D01*
X190344381Y-95307001D01*
X190344381Y-95402239D01*
X190392000Y-95545096D01*
X190439619Y-95592715D01*
X147249143Y-93640334D02*
X147296762Y-93592715D01*
X147344381Y-93449858D01*
X147344381Y-93354620D01*
X147296762Y-93211762D01*
X147201524Y-93116524D01*
X147106286Y-93068905D01*
X146915810Y-93021286D01*
X146772952Y-93021286D01*
X146582476Y-93068905D01*
X146487238Y-93116524D01*
X146392000Y-93211762D01*
X146344381Y-93354620D01*
X146344381Y-93449858D01*
X146392000Y-93592715D01*
X146439619Y-93640334D01*
X147344381Y-94592715D02*
X147344381Y-94021286D01*
X147344381Y-94307000D02*
X146344381Y-94307000D01*
X146487238Y-94211762D01*
X146582476Y-94116524D01*
X146630095Y-94021286D01*
X146820571Y-95354620D02*
X146868190Y-95497477D01*
X146915810Y-95545096D01*
X147011048Y-95592715D01*
X147153905Y-95592715D01*
X147249143Y-95545096D01*
X147296762Y-95497477D01*
X147344381Y-95402239D01*
X147344381Y-95021286D01*
X146344381Y-95021286D01*
X146344381Y-95354620D01*
X146392000Y-95449858D01*
X146439619Y-95497477D01*
X146534857Y-95545096D01*
X146630095Y-95545096D01*
X146725333Y-95497477D01*
X146772952Y-95449858D01*
X146820571Y-95354620D01*
X146820571Y-95021286D01*
X103249143Y-93711762D02*
X103296762Y-93664143D01*
X103344381Y-93521286D01*
X103344381Y-93426048D01*
X103296762Y-93283190D01*
X103201524Y-93187952D01*
X103106286Y-93140333D01*
X102915810Y-93092714D01*
X102772952Y-93092714D01*
X102582476Y-93140333D01*
X102487238Y-93187952D01*
X102392000Y-93283190D01*
X102344381Y-93426048D01*
X102344381Y-93521286D01*
X102392000Y-93664143D01*
X102439619Y-93711762D01*
X103344381Y-94664143D02*
X103344381Y-94092714D01*
X103344381Y-94378428D02*
X102344381Y-94378428D01*
X102487238Y-94283190D01*
X102582476Y-94187952D01*
X102630095Y-94092714D01*
X103058667Y-95045095D02*
X103058667Y-95521286D01*
X103344381Y-94949857D02*
X102344381Y-95283190D01*
X103344381Y-95616524D01*
X59249143Y-93664143D02*
X59296762Y-93616524D01*
X59344381Y-93473667D01*
X59344381Y-93378429D01*
X59296762Y-93235571D01*
X59201524Y-93140333D01*
X59106286Y-93092714D01*
X58915810Y-93045095D01*
X58772952Y-93045095D01*
X58582476Y-93092714D01*
X58487238Y-93140333D01*
X58392000Y-93235571D01*
X58344381Y-93378429D01*
X58344381Y-93473667D01*
X58392000Y-93616524D01*
X58439619Y-93664143D01*
X59344381Y-94616524D02*
X59344381Y-94045095D01*
X59344381Y-94330809D02*
X58344381Y-94330809D01*
X58487238Y-94235571D01*
X58582476Y-94140333D01*
X58630095Y-94045095D01*
X59344381Y-95092714D02*
X59344381Y-95283190D01*
X59296762Y-95378429D01*
X59249143Y-95426048D01*
X59106286Y-95521286D01*
X58915810Y-95568905D01*
X58534857Y-95568905D01*
X58439619Y-95521286D01*
X58392000Y-95473667D01*
X58344381Y-95378429D01*
X58344381Y-95187952D01*
X58392000Y-95092714D01*
X58439619Y-95045095D01*
X58534857Y-94997476D01*
X58772952Y-94997476D01*
X58868190Y-95045095D01*
X58915810Y-95092714D01*
X58963429Y-95187952D01*
X58963429Y-95378429D01*
X58915810Y-95473667D01*
X58868190Y-95521286D01*
X58772952Y-95568905D01*
X191249143Y-68664143D02*
X191296762Y-68616524D01*
X191344381Y-68473667D01*
X191344381Y-68378429D01*
X191296762Y-68235571D01*
X191201524Y-68140333D01*
X191106286Y-68092714D01*
X190915810Y-68045095D01*
X190772952Y-68045095D01*
X190582476Y-68092714D01*
X190487238Y-68140333D01*
X190392000Y-68235571D01*
X190344381Y-68378429D01*
X190344381Y-68473667D01*
X190392000Y-68616524D01*
X190439619Y-68664143D01*
X191344381Y-69616524D02*
X191344381Y-69045095D01*
X191344381Y-69330809D02*
X190344381Y-69330809D01*
X190487238Y-69235571D01*
X190582476Y-69140333D01*
X190630095Y-69045095D01*
X190772952Y-70187952D02*
X190725333Y-70092714D01*
X190677714Y-70045095D01*
X190582476Y-69997476D01*
X190534857Y-69997476D01*
X190439619Y-70045095D01*
X190392000Y-70092714D01*
X190344381Y-70187952D01*
X190344381Y-70378429D01*
X190392000Y-70473667D01*
X190439619Y-70521286D01*
X190534857Y-70568905D01*
X190582476Y-70568905D01*
X190677714Y-70521286D01*
X190725333Y-70473667D01*
X190772952Y-70378429D01*
X190772952Y-70187952D01*
X190820571Y-70092714D01*
X190868190Y-70045095D01*
X190963429Y-69997476D01*
X191153905Y-69997476D01*
X191249143Y-70045095D01*
X191296762Y-70092714D01*
X191344381Y-70187952D01*
X191344381Y-70378429D01*
X191296762Y-70473667D01*
X191249143Y-70521286D01*
X191153905Y-70568905D01*
X190963429Y-70568905D01*
X190868190Y-70521286D01*
X190820571Y-70473667D01*
X190772952Y-70378429D01*
X147249143Y-68664143D02*
X147296762Y-68616524D01*
X147344381Y-68473667D01*
X147344381Y-68378429D01*
X147296762Y-68235571D01*
X147201524Y-68140333D01*
X147106286Y-68092714D01*
X146915810Y-68045095D01*
X146772952Y-68045095D01*
X146582476Y-68092714D01*
X146487238Y-68140333D01*
X146392000Y-68235571D01*
X146344381Y-68378429D01*
X146344381Y-68473667D01*
X146392000Y-68616524D01*
X146439619Y-68664143D01*
X147344381Y-69616524D02*
X147344381Y-69045095D01*
X147344381Y-69330809D02*
X146344381Y-69330809D01*
X146487238Y-69235571D01*
X146582476Y-69140333D01*
X146630095Y-69045095D01*
X146344381Y-69949857D02*
X146344381Y-70616524D01*
X147344381Y-70187952D01*
X103249143Y-68664143D02*
X103296762Y-68616524D01*
X103344381Y-68473667D01*
X103344381Y-68378429D01*
X103296762Y-68235571D01*
X103201524Y-68140333D01*
X103106286Y-68092714D01*
X102915810Y-68045095D01*
X102772952Y-68045095D01*
X102582476Y-68092714D01*
X102487238Y-68140333D01*
X102392000Y-68235571D01*
X102344381Y-68378429D01*
X102344381Y-68473667D01*
X102392000Y-68616524D01*
X102439619Y-68664143D01*
X103344381Y-69616524D02*
X103344381Y-69045095D01*
X103344381Y-69330809D02*
X102344381Y-69330809D01*
X102487238Y-69235571D01*
X102582476Y-69140333D01*
X102630095Y-69045095D01*
X102344381Y-70473667D02*
X102344381Y-70283190D01*
X102392000Y-70187952D01*
X102439619Y-70140333D01*
X102582476Y-70045095D01*
X102772952Y-69997476D01*
X103153905Y-69997476D01*
X103249143Y-70045095D01*
X103296762Y-70092714D01*
X103344381Y-70187952D01*
X103344381Y-70378429D01*
X103296762Y-70473667D01*
X103249143Y-70521286D01*
X103153905Y-70568905D01*
X102915810Y-70568905D01*
X102820571Y-70521286D01*
X102772952Y-70473667D01*
X102725333Y-70378429D01*
X102725333Y-70187952D01*
X102772952Y-70092714D01*
X102820571Y-70045095D01*
X102915810Y-69997476D01*
X59249143Y-68664143D02*
X59296762Y-68616524D01*
X59344381Y-68473667D01*
X59344381Y-68378429D01*
X59296762Y-68235571D01*
X59201524Y-68140333D01*
X59106286Y-68092714D01*
X58915810Y-68045095D01*
X58772952Y-68045095D01*
X58582476Y-68092714D01*
X58487238Y-68140333D01*
X58392000Y-68235571D01*
X58344381Y-68378429D01*
X58344381Y-68473667D01*
X58392000Y-68616524D01*
X58439619Y-68664143D01*
X59344381Y-69616524D02*
X59344381Y-69045095D01*
X59344381Y-69330809D02*
X58344381Y-69330809D01*
X58487238Y-69235571D01*
X58582476Y-69140333D01*
X58630095Y-69045095D01*
X58344381Y-70521286D02*
X58344381Y-70045095D01*
X58820571Y-69997476D01*
X58772952Y-70045095D01*
X58725333Y-70140333D01*
X58725333Y-70378429D01*
X58772952Y-70473667D01*
X58820571Y-70521286D01*
X58915810Y-70568905D01*
X59153905Y-70568905D01*
X59249143Y-70521286D01*
X59296762Y-70473667D01*
X59344381Y-70378429D01*
X59344381Y-70140333D01*
X59296762Y-70045095D01*
X59249143Y-69997476D01*
X191249143Y-43664143D02*
X191296762Y-43616524D01*
X191344381Y-43473667D01*
X191344381Y-43378429D01*
X191296762Y-43235571D01*
X191201524Y-43140333D01*
X191106286Y-43092714D01*
X190915810Y-43045095D01*
X190772952Y-43045095D01*
X190582476Y-43092714D01*
X190487238Y-43140333D01*
X190392000Y-43235571D01*
X190344381Y-43378429D01*
X190344381Y-43473667D01*
X190392000Y-43616524D01*
X190439619Y-43664143D01*
X191344381Y-44616524D02*
X191344381Y-44045095D01*
X191344381Y-44330809D02*
X190344381Y-44330809D01*
X190487238Y-44235571D01*
X190582476Y-44140333D01*
X190630095Y-44045095D01*
X190677714Y-45473667D02*
X191344381Y-45473667D01*
X190296762Y-45235571D02*
X191011048Y-44997476D01*
X191011048Y-45616524D01*
X147249143Y-43664143D02*
X147296762Y-43616524D01*
X147344381Y-43473667D01*
X147344381Y-43378429D01*
X147296762Y-43235571D01*
X147201524Y-43140333D01*
X147106286Y-43092714D01*
X146915810Y-43045095D01*
X146772952Y-43045095D01*
X146582476Y-43092714D01*
X146487238Y-43140333D01*
X146392000Y-43235571D01*
X146344381Y-43378429D01*
X146344381Y-43473667D01*
X146392000Y-43616524D01*
X146439619Y-43664143D01*
X147344381Y-44616524D02*
X147344381Y-44045095D01*
X147344381Y-44330809D02*
X146344381Y-44330809D01*
X146487238Y-44235571D01*
X146582476Y-44140333D01*
X146630095Y-44045095D01*
X146344381Y-44949857D02*
X146344381Y-45568905D01*
X146725333Y-45235571D01*
X146725333Y-45378429D01*
X146772952Y-45473667D01*
X146820571Y-45521286D01*
X146915810Y-45568905D01*
X147153905Y-45568905D01*
X147249143Y-45521286D01*
X147296762Y-45473667D01*
X147344381Y-45378429D01*
X147344381Y-45092714D01*
X147296762Y-44997476D01*
X147249143Y-44949857D01*
X103249143Y-43664143D02*
X103296762Y-43616524D01*
X103344381Y-43473667D01*
X103344381Y-43378429D01*
X103296762Y-43235571D01*
X103201524Y-43140333D01*
X103106286Y-43092714D01*
X102915810Y-43045095D01*
X102772952Y-43045095D01*
X102582476Y-43092714D01*
X102487238Y-43140333D01*
X102392000Y-43235571D01*
X102344381Y-43378429D01*
X102344381Y-43473667D01*
X102392000Y-43616524D01*
X102439619Y-43664143D01*
X103344381Y-44616524D02*
X103344381Y-44045095D01*
X103344381Y-44330809D02*
X102344381Y-44330809D01*
X102487238Y-44235571D01*
X102582476Y-44140333D01*
X102630095Y-44045095D01*
X102439619Y-44997476D02*
X102392000Y-45045095D01*
X102344381Y-45140333D01*
X102344381Y-45378429D01*
X102392000Y-45473667D01*
X102439619Y-45521286D01*
X102534857Y-45568905D01*
X102630095Y-45568905D01*
X102772952Y-45521286D01*
X103344381Y-44949857D01*
X103344381Y-45568905D01*
X78209655Y-41716286D02*
X77209655Y-41716286D01*
X77209655Y-41954381D01*
X77257274Y-42097239D01*
X77352512Y-42192477D01*
X77447750Y-42240096D01*
X77638226Y-42287715D01*
X77781084Y-42287715D01*
X77971560Y-42240096D01*
X78066798Y-42192477D01*
X78162036Y-42097239D01*
X78209655Y-41954381D01*
X78209655Y-41716286D01*
X78162036Y-42668667D02*
X78209655Y-42811524D01*
X78209655Y-43049620D01*
X78162036Y-43144858D01*
X78114417Y-43192477D01*
X78019179Y-43240096D01*
X77923941Y-43240096D01*
X77828703Y-43192477D01*
X77781084Y-43144858D01*
X77733464Y-43049620D01*
X77685845Y-42859143D01*
X77638226Y-42763905D01*
X77590607Y-42716286D01*
X77495369Y-42668667D01*
X77400131Y-42668667D01*
X77304893Y-42716286D01*
X77257274Y-42763905D01*
X77209655Y-42859143D01*
X77209655Y-43097239D01*
X77257274Y-43240096D01*
X78209655Y-44192477D02*
X78209655Y-43621048D01*
X78209655Y-43906762D02*
X77209655Y-43906762D01*
X77352512Y-43811524D01*
X77447750Y-43716286D01*
X77495369Y-43621048D01*
X78209655Y-45144858D02*
X78209655Y-44573429D01*
X78209655Y-44859143D02*
X77209655Y-44859143D01*
X77352512Y-44763905D01*
X77447750Y-44668667D01*
X77495369Y-44573429D01*
X78209655Y-45677524D02*
X78209655Y-45201333D01*
X77209655Y-45201333D01*
X78114417Y-46582286D02*
X78162036Y-46534667D01*
X78209655Y-46391810D01*
X78209655Y-46296572D01*
X78162036Y-46153714D01*
X78066798Y-46058476D01*
X77971560Y-46010857D01*
X77781084Y-45963238D01*
X77638226Y-45963238D01*
X77447750Y-46010857D01*
X77352512Y-46058476D01*
X77257274Y-46153714D01*
X77209655Y-46296572D01*
X77209655Y-46391810D01*
X77257274Y-46534667D01*
X77304893Y-46582286D01*
X78209655Y-47010857D02*
X77209655Y-47010857D01*
X77209655Y-47248952D01*
X77257274Y-47391810D01*
X77352512Y-47487048D01*
X77447750Y-47534667D01*
X77638226Y-47582286D01*
X77781084Y-47582286D01*
X77971560Y-47534667D01*
X78066798Y-47487048D01*
X78162036Y-47391810D01*
X78209655Y-47248952D01*
X78209655Y-47010857D01*
X77828703Y-48010857D02*
X77828703Y-48772762D01*
X77209655Y-49439428D02*
X77209655Y-49534667D01*
X77257274Y-49629905D01*
X77304893Y-49677524D01*
X77400131Y-49725143D01*
X77590607Y-49772762D01*
X77828703Y-49772762D01*
X78019179Y-49725143D01*
X78114417Y-49677524D01*
X78162036Y-49629905D01*
X78209655Y-49534667D01*
X78209655Y-49439428D01*
X78162036Y-49344190D01*
X78114417Y-49296571D01*
X78019179Y-49248952D01*
X77828703Y-49201333D01*
X77590607Y-49201333D01*
X77400131Y-49248952D01*
X77304893Y-49296571D01*
X77257274Y-49344190D01*
X77209655Y-49439428D01*
X78209655Y-50725143D02*
X78209655Y-50153714D01*
X78209655Y-50439428D02*
X77209655Y-50439428D01*
X77352512Y-50344190D01*
X77447750Y-50248952D01*
X77495369Y-50153714D01*
X77209655Y-51582286D02*
X77209655Y-51391809D01*
X77257274Y-51296571D01*
X77304893Y-51248952D01*
X77447750Y-51153714D01*
X77638226Y-51106095D01*
X78019179Y-51106095D01*
X78114417Y-51153714D01*
X78162036Y-51201333D01*
X78209655Y-51296571D01*
X78209655Y-51487048D01*
X78162036Y-51582286D01*
X78114417Y-51629905D01*
X78019179Y-51677524D01*
X77781084Y-51677524D01*
X77685845Y-51629905D01*
X77638226Y-51582286D01*
X77590607Y-51487048D01*
X77590607Y-51296571D01*
X77638226Y-51201333D01*
X77685845Y-51153714D01*
X77781084Y-51106095D01*
X78209655Y-52106095D02*
X77209655Y-52106095D01*
X78209655Y-52677524D01*
X77209655Y-52677524D01*
X77209655Y-53344190D02*
X77209655Y-53439429D01*
X77257274Y-53534667D01*
X77304893Y-53582286D01*
X77400131Y-53629905D01*
X77590607Y-53677524D01*
X77828703Y-53677524D01*
X78019179Y-53629905D01*
X78114417Y-53582286D01*
X78162036Y-53534667D01*
X78209655Y-53439429D01*
X78209655Y-53344190D01*
X78162036Y-53248952D01*
X78114417Y-53201333D01*
X78019179Y-53153714D01*
X77828703Y-53106095D01*
X77590607Y-53106095D01*
X77400131Y-53153714D01*
X77304893Y-53201333D01*
X77257274Y-53248952D01*
X77209655Y-53344190D01*
X77209655Y-54296571D02*
X77209655Y-54391810D01*
X77257274Y-54487048D01*
X77304893Y-54534667D01*
X77400131Y-54582286D01*
X77590607Y-54629905D01*
X77828703Y-54629905D01*
X78019179Y-54582286D01*
X78114417Y-54534667D01*
X78162036Y-54487048D01*
X78209655Y-54391810D01*
X78209655Y-54296571D01*
X78162036Y-54201333D01*
X78114417Y-54153714D01*
X78019179Y-54106095D01*
X77828703Y-54058476D01*
X77590607Y-54058476D01*
X77400131Y-54106095D01*
X77304893Y-54153714D01*
X77257274Y-54201333D01*
X77209655Y-54296571D01*
X77304893Y-55010857D02*
X77257274Y-55058476D01*
X77209655Y-55153714D01*
X77209655Y-55391810D01*
X77257274Y-55487048D01*
X77304893Y-55534667D01*
X77400131Y-55582286D01*
X77495369Y-55582286D01*
X77638226Y-55534667D01*
X78209655Y-54963238D01*
X78209655Y-55582286D01*
X78209655Y-56487048D02*
X78209655Y-56010857D01*
X77209655Y-56010857D01*
X59249143Y-43664143D02*
X59296762Y-43616524D01*
X59344381Y-43473667D01*
X59344381Y-43378429D01*
X59296762Y-43235571D01*
X59201524Y-43140333D01*
X59106286Y-43092714D01*
X58915810Y-43045095D01*
X58772952Y-43045095D01*
X58582476Y-43092714D01*
X58487238Y-43140333D01*
X58392000Y-43235571D01*
X58344381Y-43378429D01*
X58344381Y-43473667D01*
X58392000Y-43616524D01*
X58439619Y-43664143D01*
X59344381Y-44616524D02*
X59344381Y-44045095D01*
X59344381Y-44330809D02*
X58344381Y-44330809D01*
X58487238Y-44235571D01*
X58582476Y-44140333D01*
X58630095Y-44045095D01*
X59344381Y-45568905D02*
X59344381Y-44997476D01*
X59344381Y-45283190D02*
X58344381Y-45283190D01*
X58487238Y-45187952D01*
X58582476Y-45092714D01*
X58630095Y-44997476D01*
X61134343Y-55186343D02*
X61181962Y-55138724D01*
X61229581Y-54995867D01*
X61229581Y-54900629D01*
X61181962Y-54757771D01*
X61086724Y-54662533D01*
X60991486Y-54614914D01*
X60801010Y-54567295D01*
X60658152Y-54567295D01*
X60467676Y-54614914D01*
X60372438Y-54662533D01*
X60277200Y-54757771D01*
X60229581Y-54900629D01*
X60229581Y-54995867D01*
X60277200Y-55138724D01*
X60324819Y-55186343D01*
X61229581Y-56138724D02*
X61229581Y-55567295D01*
X61229581Y-55853009D02*
X60229581Y-55853009D01*
X60372438Y-55757771D01*
X60467676Y-55662533D01*
X60515295Y-55567295D01*
X61229581Y-57091105D02*
X61229581Y-56519676D01*
X61229581Y-56805390D02*
X60229581Y-56805390D01*
X60372438Y-56710152D01*
X60467676Y-56614914D01*
X60515295Y-56519676D01*
X48531343Y-48281343D02*
X48578962Y-48233724D01*
X48626581Y-48090867D01*
X48626581Y-47995629D01*
X48578962Y-47852771D01*
X48483724Y-47757533D01*
X48388486Y-47709914D01*
X48198010Y-47662295D01*
X48055152Y-47662295D01*
X47864676Y-47709914D01*
X47769438Y-47757533D01*
X47674200Y-47852771D01*
X47626581Y-47995629D01*
X47626581Y-48090867D01*
X47674200Y-48233724D01*
X47721819Y-48281343D01*
X48626581Y-49233724D02*
X48626581Y-48662295D01*
X48626581Y-48948009D02*
X47626581Y-48948009D01*
X47769438Y-48852771D01*
X47864676Y-48757533D01*
X47912295Y-48662295D01*
X48626581Y-50186105D02*
X48626581Y-49614676D01*
X48626581Y-49900390D02*
X47626581Y-49900390D01*
X47769438Y-49805152D01*
X47864676Y-49709914D01*
X47912295Y-49614676D01*
X74935143Y-52933143D02*
X74982762Y-52885524D01*
X75030381Y-52742667D01*
X75030381Y-52647429D01*
X74982762Y-52504571D01*
X74887524Y-52409333D01*
X74792286Y-52361714D01*
X74601810Y-52314095D01*
X74458952Y-52314095D01*
X74268476Y-52361714D01*
X74173238Y-52409333D01*
X74078000Y-52504571D01*
X74030381Y-52647429D01*
X74030381Y-52742667D01*
X74078000Y-52885524D01*
X74125619Y-52933143D01*
X75030381Y-53885524D02*
X75030381Y-53314095D01*
X75030381Y-53599809D02*
X74030381Y-53599809D01*
X74173238Y-53504571D01*
X74268476Y-53409333D01*
X74316095Y-53314095D01*
X75030381Y-54837905D02*
X75030381Y-54266476D01*
X75030381Y-54552190D02*
X74030381Y-54552190D01*
X74173238Y-54456952D01*
X74268476Y-54361714D01*
X74316095Y-54266476D01*
M02*
