G04 #@! TF.FileFunction,Soldermask,Bot*
%FSLAX46Y46*%
G04 Gerber Fmt 4.6, Leading zero omitted, Abs format (unit mm)*
G04 Created by KiCad (PCBNEW (2015-11-29 BZR 6336, Git 7b0d981)-product) date czw, 10 gru 2015, 08:29:52*
%MOMM*%
G01*
G04 APERTURE LIST*
%ADD10C,0.100000*%
%ADD11R,1.200000X1.150000*%
%ADD12R,2.127200X2.432000*%
%ADD13O,2.127200X2.432000*%
%ADD14R,1.150000X1.200000*%
%ADD15R,2.432000X2.127200*%
%ADD16O,2.432000X2.127200*%
G04 APERTURE END LIST*
D10*
D11*
X179324200Y-125674200D03*
X180824200Y-125674200D03*
X135324200Y-125674200D03*
X136824200Y-125674200D03*
X91324200Y-125674200D03*
X92824200Y-125674200D03*
X47324200Y-125674200D03*
X48824200Y-125674200D03*
X179324200Y-100674200D03*
X180824200Y-100674200D03*
X135324200Y-100674200D03*
X136824200Y-100674200D03*
X91324200Y-100674200D03*
X92824200Y-100674200D03*
X47324200Y-100674200D03*
X48824200Y-100674200D03*
X179324200Y-75674200D03*
X180824200Y-75674200D03*
X135324200Y-75674200D03*
X136824200Y-75674200D03*
X91324200Y-75674200D03*
X92824200Y-75674200D03*
X47324200Y-75674200D03*
X48824200Y-75674200D03*
X179324200Y-50674200D03*
X180824200Y-50674200D03*
X135324200Y-50674200D03*
X136824200Y-50674200D03*
X91324200Y-50674200D03*
X92824200Y-50674200D03*
D12*
X209507274Y-115324762D03*
D13*
X206967274Y-115324762D03*
X204427274Y-115324762D03*
X201887274Y-115324762D03*
X199347274Y-115324762D03*
X196807274Y-115324762D03*
X194267274Y-115324762D03*
X191727274Y-115324762D03*
X189187274Y-115324762D03*
X186647274Y-115324762D03*
X184107274Y-115324762D03*
X181567274Y-115324762D03*
X179027274Y-115324762D03*
X176487274Y-115324762D03*
X173947274Y-115324762D03*
X171407274Y-115324762D03*
D12*
X165507274Y-115324762D03*
D13*
X162967274Y-115324762D03*
X160427274Y-115324762D03*
X157887274Y-115324762D03*
X155347274Y-115324762D03*
X152807274Y-115324762D03*
X150267274Y-115324762D03*
X147727274Y-115324762D03*
X145187274Y-115324762D03*
X142647274Y-115324762D03*
X140107274Y-115324762D03*
X137567274Y-115324762D03*
X135027274Y-115324762D03*
X132487274Y-115324762D03*
X129947274Y-115324762D03*
X127407274Y-115324762D03*
D12*
X121507274Y-115324762D03*
D13*
X118967274Y-115324762D03*
X116427274Y-115324762D03*
X113887274Y-115324762D03*
X111347274Y-115324762D03*
X108807274Y-115324762D03*
X106267274Y-115324762D03*
X103727274Y-115324762D03*
X101187274Y-115324762D03*
X98647274Y-115324762D03*
X96107274Y-115324762D03*
X93567274Y-115324762D03*
X91027274Y-115324762D03*
X88487274Y-115324762D03*
X85947274Y-115324762D03*
X83407274Y-115324762D03*
D12*
X77507274Y-115324762D03*
D13*
X74967274Y-115324762D03*
X72427274Y-115324762D03*
X69887274Y-115324762D03*
X67347274Y-115324762D03*
X64807274Y-115324762D03*
X62267274Y-115324762D03*
X59727274Y-115324762D03*
X57187274Y-115324762D03*
X54647274Y-115324762D03*
X52107274Y-115324762D03*
X49567274Y-115324762D03*
X47027274Y-115324762D03*
X44487274Y-115324762D03*
X41947274Y-115324762D03*
X39407274Y-115324762D03*
D12*
X209507274Y-90324762D03*
D13*
X206967274Y-90324762D03*
X204427274Y-90324762D03*
X201887274Y-90324762D03*
X199347274Y-90324762D03*
X196807274Y-90324762D03*
X194267274Y-90324762D03*
X191727274Y-90324762D03*
X189187274Y-90324762D03*
X186647274Y-90324762D03*
X184107274Y-90324762D03*
X181567274Y-90324762D03*
X179027274Y-90324762D03*
X176487274Y-90324762D03*
X173947274Y-90324762D03*
X171407274Y-90324762D03*
D12*
X165507274Y-90324762D03*
D13*
X162967274Y-90324762D03*
X160427274Y-90324762D03*
X157887274Y-90324762D03*
X155347274Y-90324762D03*
X152807274Y-90324762D03*
X150267274Y-90324762D03*
X147727274Y-90324762D03*
X145187274Y-90324762D03*
X142647274Y-90324762D03*
X140107274Y-90324762D03*
X137567274Y-90324762D03*
X135027274Y-90324762D03*
X132487274Y-90324762D03*
X129947274Y-90324762D03*
X127407274Y-90324762D03*
D12*
X121507274Y-90324762D03*
D13*
X118967274Y-90324762D03*
X116427274Y-90324762D03*
X113887274Y-90324762D03*
X111347274Y-90324762D03*
X108807274Y-90324762D03*
X106267274Y-90324762D03*
X103727274Y-90324762D03*
X101187274Y-90324762D03*
X98647274Y-90324762D03*
X96107274Y-90324762D03*
X93567274Y-90324762D03*
X91027274Y-90324762D03*
X88487274Y-90324762D03*
X85947274Y-90324762D03*
X83407274Y-90324762D03*
D12*
X77507274Y-90324762D03*
D13*
X74967274Y-90324762D03*
X72427274Y-90324762D03*
X69887274Y-90324762D03*
X67347274Y-90324762D03*
X64807274Y-90324762D03*
X62267274Y-90324762D03*
X59727274Y-90324762D03*
X57187274Y-90324762D03*
X54647274Y-90324762D03*
X52107274Y-90324762D03*
X49567274Y-90324762D03*
X47027274Y-90324762D03*
X44487274Y-90324762D03*
X41947274Y-90324762D03*
X39407274Y-90324762D03*
D12*
X209507274Y-65324762D03*
D13*
X206967274Y-65324762D03*
X204427274Y-65324762D03*
X201887274Y-65324762D03*
X199347274Y-65324762D03*
X196807274Y-65324762D03*
X194267274Y-65324762D03*
X191727274Y-65324762D03*
X189187274Y-65324762D03*
X186647274Y-65324762D03*
X184107274Y-65324762D03*
X181567274Y-65324762D03*
X179027274Y-65324762D03*
X176487274Y-65324762D03*
X173947274Y-65324762D03*
X171407274Y-65324762D03*
D12*
X165507274Y-65324762D03*
D13*
X162967274Y-65324762D03*
X160427274Y-65324762D03*
X157887274Y-65324762D03*
X155347274Y-65324762D03*
X152807274Y-65324762D03*
X150267274Y-65324762D03*
X147727274Y-65324762D03*
X145187274Y-65324762D03*
X142647274Y-65324762D03*
X140107274Y-65324762D03*
X137567274Y-65324762D03*
X135027274Y-65324762D03*
X132487274Y-65324762D03*
X129947274Y-65324762D03*
X127407274Y-65324762D03*
D12*
X121507274Y-65324762D03*
D13*
X118967274Y-65324762D03*
X116427274Y-65324762D03*
X113887274Y-65324762D03*
X111347274Y-65324762D03*
X108807274Y-65324762D03*
X106267274Y-65324762D03*
X103727274Y-65324762D03*
X101187274Y-65324762D03*
X98647274Y-65324762D03*
X96107274Y-65324762D03*
X93567274Y-65324762D03*
X91027274Y-65324762D03*
X88487274Y-65324762D03*
X85947274Y-65324762D03*
X83407274Y-65324762D03*
D12*
X77507274Y-65324762D03*
D13*
X74967274Y-65324762D03*
X72427274Y-65324762D03*
X69887274Y-65324762D03*
X67347274Y-65324762D03*
X64807274Y-65324762D03*
X62267274Y-65324762D03*
X59727274Y-65324762D03*
X57187274Y-65324762D03*
X54647274Y-65324762D03*
X52107274Y-65324762D03*
X49567274Y-65324762D03*
X47027274Y-65324762D03*
X44487274Y-65324762D03*
X41947274Y-65324762D03*
X39407274Y-65324762D03*
D12*
X209507274Y-40324762D03*
D13*
X206967274Y-40324762D03*
X204427274Y-40324762D03*
X201887274Y-40324762D03*
X199347274Y-40324762D03*
X196807274Y-40324762D03*
X194267274Y-40324762D03*
X191727274Y-40324762D03*
X189187274Y-40324762D03*
X186647274Y-40324762D03*
X184107274Y-40324762D03*
X181567274Y-40324762D03*
X179027274Y-40324762D03*
X176487274Y-40324762D03*
X173947274Y-40324762D03*
X171407274Y-40324762D03*
D12*
X165507274Y-40324762D03*
D13*
X162967274Y-40324762D03*
X160427274Y-40324762D03*
X157887274Y-40324762D03*
X155347274Y-40324762D03*
X152807274Y-40324762D03*
X150267274Y-40324762D03*
X147727274Y-40324762D03*
X145187274Y-40324762D03*
X142647274Y-40324762D03*
X140107274Y-40324762D03*
X137567274Y-40324762D03*
X135027274Y-40324762D03*
X132487274Y-40324762D03*
X129947274Y-40324762D03*
X127407274Y-40324762D03*
D12*
X121507274Y-40324762D03*
D13*
X118967274Y-40324762D03*
X116427274Y-40324762D03*
X113887274Y-40324762D03*
X111347274Y-40324762D03*
X108807274Y-40324762D03*
X106267274Y-40324762D03*
X103727274Y-40324762D03*
X101187274Y-40324762D03*
X98647274Y-40324762D03*
X96107274Y-40324762D03*
X93567274Y-40324762D03*
X91027274Y-40324762D03*
X88487274Y-40324762D03*
X85947274Y-40324762D03*
X83407274Y-40324762D03*
D14*
X190877200Y-131579200D03*
X190877200Y-130079200D03*
X146877200Y-131579200D03*
X146877200Y-130079200D03*
X102877200Y-131579200D03*
X102877200Y-130079200D03*
X58877200Y-131579200D03*
X58877200Y-130079200D03*
X190877200Y-106579200D03*
X190877200Y-105079200D03*
X146877200Y-106579200D03*
X146877200Y-105079200D03*
X102877200Y-106579200D03*
X102877200Y-105079200D03*
X58877200Y-106579200D03*
X58877200Y-105079200D03*
X190877200Y-81579200D03*
X190877200Y-80079200D03*
X146877200Y-81579200D03*
X146877200Y-80079200D03*
X102877200Y-81579200D03*
X102877200Y-80079200D03*
X58877200Y-81579200D03*
X58877200Y-80079200D03*
X190877200Y-56579200D03*
X190877200Y-55079200D03*
X146877200Y-56579200D03*
X146877200Y-55079200D03*
X102877200Y-56579200D03*
X102877200Y-55079200D03*
X206699200Y-124949200D03*
X206699200Y-126449200D03*
X162699200Y-124949200D03*
X162699200Y-126449200D03*
X118699200Y-124949200D03*
X118699200Y-126449200D03*
X74699200Y-124949200D03*
X74699200Y-126449200D03*
X206699200Y-99949200D03*
X206699200Y-101449200D03*
X162699200Y-99949200D03*
X162699200Y-101449200D03*
X118699200Y-99949200D03*
X118699200Y-101449200D03*
X74699200Y-99949200D03*
X74699200Y-101449200D03*
X206699200Y-74949200D03*
X206699200Y-76449200D03*
X162699200Y-74949200D03*
X162699200Y-76449200D03*
X118699200Y-74949200D03*
X118699200Y-76449200D03*
X74699200Y-74949200D03*
X74699200Y-76449200D03*
X206699200Y-49949200D03*
X206699200Y-51449200D03*
X162699200Y-49949200D03*
X162699200Y-51449200D03*
X118699200Y-49949200D03*
X118699200Y-51449200D03*
X190974200Y-123149200D03*
X190974200Y-121649200D03*
X146974200Y-123149200D03*
X146974200Y-121649200D03*
X102974200Y-123149200D03*
X102974200Y-121649200D03*
X58974200Y-123149200D03*
X58974200Y-121649200D03*
X190974200Y-98149200D03*
X190974200Y-96649200D03*
X146974200Y-98149200D03*
X146974200Y-96649200D03*
X102974200Y-98149200D03*
X102974200Y-96649200D03*
X58974200Y-98149200D03*
X58974200Y-96649200D03*
X190974200Y-73149200D03*
X190974200Y-71649200D03*
X146974200Y-73149200D03*
X146974200Y-71649200D03*
X102974200Y-73149200D03*
X102974200Y-71649200D03*
X58974200Y-73149200D03*
X58974200Y-71649200D03*
X190974200Y-48149200D03*
X190974200Y-46649200D03*
X146974200Y-48149200D03*
X146974200Y-46649200D03*
X102974200Y-48149200D03*
X102974200Y-46649200D03*
D15*
X173499200Y-130099200D03*
D16*
X173499200Y-127559200D03*
X173499200Y-125019200D03*
X173499200Y-122479200D03*
X173499200Y-119939200D03*
D15*
X129499200Y-130099200D03*
D16*
X129499200Y-127559200D03*
X129499200Y-125019200D03*
X129499200Y-122479200D03*
X129499200Y-119939200D03*
D15*
X85499200Y-130099200D03*
D16*
X85499200Y-127559200D03*
X85499200Y-125019200D03*
X85499200Y-122479200D03*
X85499200Y-119939200D03*
D15*
X41499200Y-130099200D03*
D16*
X41499200Y-127559200D03*
X41499200Y-125019200D03*
X41499200Y-122479200D03*
X41499200Y-119939200D03*
D15*
X173499200Y-105099200D03*
D16*
X173499200Y-102559200D03*
X173499200Y-100019200D03*
X173499200Y-97479200D03*
X173499200Y-94939200D03*
D15*
X129499200Y-105099200D03*
D16*
X129499200Y-102559200D03*
X129499200Y-100019200D03*
X129499200Y-97479200D03*
X129499200Y-94939200D03*
D15*
X85499200Y-105099200D03*
D16*
X85499200Y-102559200D03*
X85499200Y-100019200D03*
X85499200Y-97479200D03*
X85499200Y-94939200D03*
D15*
X41499200Y-105099200D03*
D16*
X41499200Y-102559200D03*
X41499200Y-100019200D03*
X41499200Y-97479200D03*
X41499200Y-94939200D03*
D15*
X173499200Y-80099200D03*
D16*
X173499200Y-77559200D03*
X173499200Y-75019200D03*
X173499200Y-72479200D03*
X173499200Y-69939200D03*
D15*
X129499200Y-80099200D03*
D16*
X129499200Y-77559200D03*
X129499200Y-75019200D03*
X129499200Y-72479200D03*
X129499200Y-69939200D03*
D15*
X85499200Y-80099200D03*
D16*
X85499200Y-77559200D03*
X85499200Y-75019200D03*
X85499200Y-72479200D03*
X85499200Y-69939200D03*
D15*
X41499200Y-80099200D03*
D16*
X41499200Y-77559200D03*
X41499200Y-75019200D03*
X41499200Y-72479200D03*
X41499200Y-69939200D03*
D15*
X173499200Y-55099200D03*
D16*
X173499200Y-52559200D03*
X173499200Y-50019200D03*
X173499200Y-47479200D03*
X173499200Y-44939200D03*
D15*
X129499200Y-55099200D03*
D16*
X129499200Y-52559200D03*
X129499200Y-50019200D03*
X129499200Y-47479200D03*
X129499200Y-44939200D03*
D15*
X85499200Y-55099200D03*
D16*
X85499200Y-52559200D03*
X85499200Y-50019200D03*
X85499200Y-47479200D03*
X85499200Y-44939200D03*
D12*
X77507274Y-40324762D03*
D13*
X74967274Y-40324762D03*
X72427274Y-40324762D03*
X69887274Y-40324762D03*
X67347274Y-40324762D03*
X64807274Y-40324762D03*
X62267274Y-40324762D03*
X59727274Y-40324762D03*
X57187274Y-40324762D03*
X54647274Y-40324762D03*
X52107274Y-40324762D03*
X49567274Y-40324762D03*
X47027274Y-40324762D03*
X44487274Y-40324762D03*
X41947274Y-40324762D03*
X39407274Y-40324762D03*
D15*
X41499200Y-55099200D03*
D16*
X41499200Y-52559200D03*
X41499200Y-50019200D03*
X41499200Y-47479200D03*
X41499200Y-44939200D03*
D14*
X58974200Y-48149200D03*
X58974200Y-46649200D03*
X58877200Y-56579200D03*
X58877200Y-55079200D03*
D11*
X47324200Y-50674200D03*
X48824200Y-50674200D03*
D14*
X74699200Y-49949200D03*
X74699200Y-51449200D03*
M02*
