M48
;DRILL file {KiCad (2015-11-29 BZR 6336, Git 7b0d981)-product} date czw, 10 gru 2015, 08:29:42
;FORMAT={-:-/ absolute / inch / decimal}
FMAT,2
INCH,TZ
T1C0.016
T2C0.040
%
G90
G05
M72
T1
X1.758Y-2.094
X1.758Y-3.0783
X1.758Y-4.0625
X1.758Y-5.0468
X1.774Y-1.934
X1.774Y-2.9183
X1.774Y-3.9025
X1.774Y-4.8868
X1.79Y-1.774
X1.79Y-2.7583
X1.79Y-3.7425
X1.79Y-4.7268
X1.8208Y-2.3071
X1.8208Y-3.2913
X1.8208Y-4.2756
X1.8208Y-5.2598
X1.8398Y-2.058
X1.8398Y-3.0423
X1.8398Y-4.0265
X1.8398Y-5.0108
X1.8581Y-2.2419
X1.8581Y-3.2262
X1.8581Y-4.2104
X1.8581Y-5.1947
X1.9426Y-1.8806
X1.9426Y-2.8649
X1.9426Y-3.8491
X1.9426Y-4.8334
X1.9827Y-1.9511
X1.9827Y-2.9354
X1.9827Y-3.9196
X1.9827Y-4.9039
X2.06Y-1.9158
X2.06Y-2.9001
X2.06Y-3.8843
X2.06Y-4.8686
X2.1008Y-1.8893
X2.1008Y-2.8735
X2.1008Y-3.8578
X2.1008Y-4.842
X2.1013Y-2.0187
X2.1013Y-3.0029
X2.1013Y-3.9872
X2.1013Y-4.9714
X2.105Y-2.2691
X2.105Y-3.2534
X2.105Y-4.2376
X2.105Y-5.2219
X2.106Y-1.8233
X2.106Y-2.8076
X2.106Y-3.7918
X2.106Y-4.7761
X2.1076Y-1.7505
X2.1076Y-2.7347
X2.1076Y-3.719
X2.1076Y-4.7032
X2.1929Y-1.8819
X2.1929Y-2.8661
X2.1929Y-3.8504
X2.1929Y-4.8346
X2.2554Y-1.8771
X2.2554Y-2.8613
X2.2554Y-3.8456
X2.2554Y-4.8298
X2.262Y-2.23
X2.262Y-3.2143
X2.262Y-4.1985
X2.262Y-5.1828
X2.3564Y-2.1004
X2.3564Y-3.0846
X2.3564Y-4.0689
X2.3564Y-5.0531
X2.366Y-2.054
X2.366Y-3.0383
X2.366Y-4.0225
X2.366Y-5.0068
X2.4169Y-2.0339
X2.4169Y-3.0182
X2.4169Y-4.0024
X2.4169Y-4.9867
X2.4258Y-1.8594
X2.4258Y-2.8437
X2.4258Y-3.8279
X2.4258Y-4.8122
X2.4752Y-2.237
X2.4752Y-3.2212
X2.4752Y-4.2055
X2.4752Y-5.1897
X2.5059Y-1.9606
X2.5059Y-2.9449
X2.5059Y-3.9291
X2.5059Y-4.9134
X2.5371Y-2.1407
X2.5371Y-3.125
X2.5371Y-4.1092
X2.5371Y-5.0935
X2.5433Y-1.8465
X2.5433Y-2.8307
X2.5433Y-3.815
X2.5433Y-4.7992
X2.5511Y-2.0492
X2.5511Y-3.0334
X2.5511Y-4.0177
X2.5511Y-5.0019
X2.5889Y-1.8595
X2.5889Y-2.8438
X2.5889Y-3.828
X2.5889Y-4.8123
X2.606Y-1.998
X2.606Y-2.9823
X2.606Y-3.9665
X2.606Y-4.9508
X2.6803Y-2.2337
X2.6803Y-3.218
X2.6803Y-4.2022
X2.6803Y-5.1865
X2.702Y-1.95
X2.702Y-2.9343
X2.702Y-3.9185
X2.702Y-4.9028
X2.726Y-1.7182
X2.726Y-2.7025
X2.726Y-3.6867
X2.726Y-4.671
X2.7674Y-1.951
X2.7674Y-2.9352
X2.7674Y-3.9195
X2.7674Y-4.9037
X2.768Y-1.873
X2.768Y-2.8573
X2.768Y-3.8415
X2.768Y-4.8258
X2.7932Y-2.2184
X2.7932Y-3.2026
X2.7932Y-4.1869
X2.7932Y-5.1711
X2.798Y-1.822
X2.798Y-2.8063
X2.798Y-3.7905
X2.798Y-4.7748
X2.942Y-1.91
X2.942Y-2.8943
X2.942Y-3.8785
X2.942Y-4.8628
X3.4903Y-2.094
X3.4903Y-3.0783
X3.4903Y-4.0625
X3.4903Y-5.0468
X3.5063Y-1.934
X3.5063Y-2.9183
X3.5063Y-3.9025
X3.5063Y-4.8868
X3.5223Y-1.774
X3.5223Y-2.7583
X3.5223Y-3.7425
X3.5223Y-4.7268
X3.5531Y-2.3071
X3.5531Y-3.2913
X3.5531Y-4.2756
X3.5531Y-5.2598
X3.5721Y-2.058
X3.5721Y-3.0423
X3.5721Y-4.0265
X3.5721Y-5.0108
X3.5904Y-2.2419
X3.5904Y-3.2262
X3.5904Y-4.2104
X3.5904Y-5.1947
X3.6749Y-1.8806
X3.6749Y-2.8649
X3.6749Y-3.8491
X3.6749Y-4.8334
X3.715Y-1.9511
X3.715Y-2.9354
X3.715Y-3.9196
X3.715Y-4.9039
X3.7923Y-1.9158
X3.7923Y-2.9001
X3.7923Y-3.8843
X3.7923Y-4.8686
X3.833Y-1.8893
X3.833Y-2.8735
X3.833Y-3.8578
X3.833Y-4.842
X3.8336Y-2.0187
X3.8336Y-3.0029
X3.8336Y-3.9872
X3.8336Y-4.9714
X3.8372Y-2.2691
X3.8372Y-3.2534
X3.8372Y-4.2376
X3.8372Y-5.2219
X3.8383Y-1.8233
X3.8383Y-2.8076
X3.8383Y-3.7918
X3.8383Y-4.7761
X3.8398Y-1.7505
X3.8398Y-2.7347
X3.8398Y-3.719
X3.8398Y-4.7032
X3.9252Y-1.8819
X3.9252Y-2.8661
X3.9252Y-3.8504
X3.9252Y-4.8346
X3.9876Y-1.8771
X3.9876Y-2.8613
X3.9876Y-3.8456
X3.9876Y-4.8298
X3.9943Y-2.23
X3.9943Y-3.2143
X3.9943Y-4.1985
X3.9943Y-5.1828
X4.0887Y-2.1004
X4.0887Y-3.0846
X4.0887Y-4.0689
X4.0887Y-5.0531
X4.0983Y-2.054
X4.0983Y-3.0383
X4.0983Y-4.0225
X4.0983Y-5.0068
X4.1492Y-2.0339
X4.1492Y-3.0182
X4.1492Y-4.0024
X4.1492Y-4.9867
X4.1581Y-1.8594
X4.1581Y-2.8437
X4.1581Y-3.8279
X4.1581Y-4.8122
X4.2074Y-2.237
X4.2074Y-3.2212
X4.2074Y-4.2055
X4.2074Y-5.1897
X4.2382Y-1.9606
X4.2382Y-2.9449
X4.2382Y-3.9291
X4.2382Y-4.9134
X4.2694Y-2.1407
X4.2694Y-3.125
X4.2694Y-4.1092
X4.2694Y-5.0935
X4.2756Y-1.8465
X4.2756Y-2.8307
X4.2756Y-3.815
X4.2756Y-4.7992
X4.2834Y-2.0492
X4.2834Y-3.0334
X4.2834Y-4.0177
X4.2834Y-5.0019
X4.3212Y-1.8595
X4.3212Y-2.8438
X4.3212Y-3.828
X4.3212Y-4.8123
X4.3383Y-1.998
X4.3383Y-2.9823
X4.3383Y-3.9665
X4.3383Y-4.9508
X4.4126Y-2.2337
X4.4126Y-3.218
X4.4126Y-4.2022
X4.4126Y-5.1865
X4.4343Y-1.95
X4.4343Y-2.9343
X4.4343Y-3.9185
X4.4343Y-4.9028
X4.4583Y-1.7182
X4.4583Y-2.7025
X4.4583Y-3.6867
X4.4583Y-4.671
X4.4997Y-1.951
X4.4997Y-2.9352
X4.4997Y-3.9195
X4.4997Y-4.9037
X4.5003Y-1.873
X4.5003Y-2.8573
X4.5003Y-3.8415
X4.5003Y-4.8258
X4.5255Y-2.2184
X4.5255Y-3.2026
X4.5255Y-4.1869
X4.5255Y-5.1711
X4.5303Y-1.822
X4.5303Y-2.8063
X4.5303Y-3.7905
X4.5303Y-4.7748
X4.6743Y-1.91
X4.6743Y-2.8943
X4.6743Y-3.8785
X4.6743Y-4.8628
X5.2226Y-2.094
X5.2226Y-3.0783
X5.2226Y-4.0625
X5.2226Y-5.0468
X5.2386Y-1.934
X5.2386Y-2.9183
X5.2386Y-3.9025
X5.2386Y-4.8868
X5.2546Y-1.774
X5.2546Y-2.7583
X5.2546Y-3.7425
X5.2546Y-4.7268
X5.2854Y-2.3071
X5.2854Y-3.2913
X5.2854Y-4.2756
X5.2854Y-5.2598
X5.3044Y-2.058
X5.3044Y-3.0423
X5.3044Y-4.0265
X5.3044Y-5.0108
X5.3226Y-2.2419
X5.3226Y-3.2262
X5.3226Y-4.2104
X5.3226Y-5.1947
X5.4072Y-1.8806
X5.4072Y-2.8649
X5.4072Y-3.8491
X5.4072Y-4.8334
X5.4473Y-1.9511
X5.4473Y-2.9354
X5.4473Y-3.9196
X5.4473Y-4.9039
X5.5246Y-1.9158
X5.5246Y-2.9001
X5.5246Y-3.8843
X5.5246Y-4.8686
X5.5653Y-1.8893
X5.5653Y-2.8735
X5.5653Y-3.8578
X5.5653Y-4.842
X5.5659Y-2.0187
X5.5659Y-3.0029
X5.5659Y-3.9872
X5.5659Y-4.9714
X5.5695Y-2.2691
X5.5695Y-3.2534
X5.5695Y-4.2376
X5.5695Y-5.2219
X5.5706Y-1.8233
X5.5706Y-2.8076
X5.5706Y-3.7918
X5.5706Y-4.7761
X5.5721Y-1.7505
X5.5721Y-2.7347
X5.5721Y-3.719
X5.5721Y-4.7032
X5.6575Y-1.8819
X5.6575Y-2.8661
X5.6575Y-3.8504
X5.6575Y-4.8346
X5.7199Y-1.8771
X5.7199Y-2.8613
X5.7199Y-3.8456
X5.7199Y-4.8298
X5.7266Y-2.23
X5.7266Y-3.2143
X5.7266Y-4.1985
X5.7266Y-5.1828
X5.8209Y-2.1004
X5.8209Y-3.0846
X5.8209Y-4.0689
X5.8209Y-5.0531
X5.8306Y-2.054
X5.8306Y-3.0383
X5.8306Y-4.0225
X5.8306Y-5.0068
X5.8815Y-2.0339
X5.8815Y-3.0182
X5.8815Y-4.0024
X5.8815Y-4.9867
X5.8904Y-1.8594
X5.8904Y-2.8437
X5.8904Y-3.8279
X5.8904Y-4.8122
X5.9397Y-2.237
X5.9397Y-3.2212
X5.9397Y-4.2055
X5.9397Y-5.1897
X5.9704Y-1.9606
X5.9704Y-2.9449
X5.9704Y-3.9291
X5.9704Y-4.9134
X6.0016Y-2.1407
X6.0016Y-3.125
X6.0016Y-4.1092
X6.0016Y-5.0935
X6.0079Y-1.8465
X6.0079Y-2.8307
X6.0079Y-3.815
X6.0079Y-4.7992
X6.0157Y-2.0492
X6.0157Y-3.0334
X6.0157Y-4.0177
X6.0157Y-5.0019
X6.0535Y-1.8595
X6.0535Y-2.8438
X6.0535Y-3.828
X6.0535Y-4.8123
X6.0706Y-1.998
X6.0706Y-2.9823
X6.0706Y-3.9665
X6.0706Y-4.9508
X6.1449Y-2.2337
X6.1449Y-3.218
X6.1449Y-4.2022
X6.1449Y-5.1865
X6.1666Y-1.95
X6.1666Y-2.9343
X6.1666Y-3.9185
X6.1666Y-4.9028
X6.1905Y-1.7182
X6.1905Y-2.7025
X6.1905Y-3.6867
X6.1905Y-4.671
X6.232Y-1.951
X6.232Y-2.9352
X6.232Y-3.9195
X6.232Y-4.9037
X6.2326Y-1.873
X6.2326Y-2.8573
X6.2326Y-3.8415
X6.2326Y-4.8258
X6.2578Y-2.2184
X6.2578Y-3.2026
X6.2578Y-4.1869
X6.2578Y-5.1711
X6.2626Y-1.822
X6.2626Y-2.8063
X6.2626Y-3.7905
X6.2626Y-4.7748
X6.4066Y-1.91
X6.4066Y-2.8943
X6.4066Y-3.8785
X6.4066Y-4.8628
X6.9549Y-2.094
X6.9549Y-3.0783
X6.9549Y-4.0625
X6.9549Y-5.0468
X6.9709Y-1.934
X6.9709Y-2.9183
X6.9709Y-3.9025
X6.9709Y-4.8868
X6.9869Y-1.774
X6.9869Y-2.7583
X6.9869Y-3.7425
X6.9869Y-4.7268
X7.0177Y-2.3071
X7.0177Y-3.2913
X7.0177Y-4.2756
X7.0177Y-5.2598
X7.0367Y-2.058
X7.0367Y-3.0423
X7.0367Y-4.0265
X7.0367Y-5.0108
X7.0549Y-2.2419
X7.0549Y-3.2262
X7.0549Y-4.2104
X7.0549Y-5.1947
X7.1395Y-1.8806
X7.1395Y-2.8649
X7.1395Y-3.8491
X7.1395Y-4.8334
X7.1795Y-1.9511
X7.1795Y-2.9354
X7.1795Y-3.9196
X7.1795Y-4.9039
X7.2568Y-1.9158
X7.2568Y-2.9001
X7.2568Y-3.8843
X7.2568Y-4.8686
X7.2976Y-1.8893
X7.2976Y-2.8735
X7.2976Y-3.8578
X7.2976Y-4.842
X7.2982Y-2.0187
X7.2982Y-3.0029
X7.2982Y-3.9872
X7.2982Y-4.9714
X7.3018Y-2.2691
X7.3018Y-3.2534
X7.3018Y-4.2376
X7.3018Y-5.2219
X7.3029Y-1.8233
X7.3029Y-2.8076
X7.3029Y-3.7918
X7.3029Y-4.7761
X7.3044Y-1.7505
X7.3044Y-2.7347
X7.3044Y-3.719
X7.3044Y-4.7032
X7.3898Y-1.8819
X7.3898Y-2.8661
X7.3898Y-3.8504
X7.3898Y-4.8346
X7.4522Y-1.8771
X7.4522Y-2.8613
X7.4522Y-3.8456
X7.4522Y-4.8298
X7.4589Y-2.23
X7.4589Y-3.2143
X7.4589Y-4.1985
X7.4589Y-5.1828
X7.5532Y-2.1004
X7.5532Y-3.0846
X7.5532Y-4.0689
X7.5532Y-5.0531
X7.5629Y-2.054
X7.5629Y-3.0383
X7.5629Y-4.0225
X7.5629Y-5.0068
X7.6138Y-2.0339
X7.6138Y-3.0182
X7.6138Y-4.0024
X7.6138Y-4.9867
X7.6226Y-1.8594
X7.6226Y-2.8437
X7.6226Y-3.8279
X7.6226Y-4.8122
X7.672Y-2.237
X7.672Y-3.2212
X7.672Y-4.2055
X7.672Y-5.1897
X7.7027Y-1.9606
X7.7027Y-2.9449
X7.7027Y-3.9291
X7.7027Y-4.9134
X7.7339Y-2.1407
X7.7339Y-3.125
X7.7339Y-4.1092
X7.7339Y-5.0935
X7.7402Y-1.8465
X7.7402Y-2.8307
X7.7402Y-3.815
X7.7402Y-4.7992
X7.748Y-2.0492
X7.748Y-3.0334
X7.748Y-4.0177
X7.748Y-5.0019
X7.7857Y-1.8595
X7.7857Y-2.8438
X7.7857Y-3.828
X7.7857Y-4.8123
X7.8029Y-1.998
X7.8029Y-2.9823
X7.8029Y-3.9665
X7.8029Y-4.9508
X7.8772Y-2.2337
X7.8772Y-3.218
X7.8772Y-4.2022
X7.8772Y-5.1865
X7.8989Y-1.95
X7.8989Y-2.9343
X7.8989Y-3.9185
X7.8989Y-4.9028
X7.9228Y-1.7182
X7.9228Y-2.7025
X7.9228Y-3.6867
X7.9228Y-4.671
X7.9643Y-1.951
X7.9643Y-2.9352
X7.9643Y-3.9195
X7.9643Y-4.9037
X7.9649Y-1.873
X7.9649Y-2.8573
X7.9649Y-3.8415
X7.9649Y-4.8258
X7.9901Y-2.2184
X7.9901Y-3.2026
X7.9901Y-4.1869
X7.9901Y-5.1711
X7.9949Y-1.822
X7.9949Y-2.8063
X7.9949Y-3.7905
X7.9949Y-4.7748
X8.1389Y-1.91
X8.1389Y-2.8943
X8.1389Y-3.8785
X8.1389Y-4.8628
T2
X1.5515Y-1.5876
X1.5515Y-2.5718
X1.5515Y-3.5561
X1.5515Y-4.5403
X1.6338Y-1.7693
X1.6338Y-1.8693
X1.6338Y-1.9693
X1.6338Y-2.0693
X1.6338Y-2.1693
X1.6338Y-2.7535
X1.6338Y-2.8535
X1.6338Y-2.9535
X1.6338Y-3.0535
X1.6338Y-3.1535
X1.6338Y-3.7378
X1.6338Y-3.8378
X1.6338Y-3.9378
X1.6338Y-4.0378
X1.6338Y-4.1378
X1.6338Y-4.722
X1.6338Y-4.822
X1.6338Y-4.922
X1.6338Y-5.022
X1.6338Y-5.122
X1.6515Y-1.5876
X1.6515Y-2.5718
X1.6515Y-3.5561
X1.6515Y-4.5403
X1.7515Y-1.5876
X1.7515Y-2.5718
X1.7515Y-3.5561
X1.7515Y-4.5403
X1.8515Y-1.5876
X1.8515Y-2.5718
X1.8515Y-3.5561
X1.8515Y-4.5403
X1.9515Y-1.5876
X1.9515Y-2.5718
X1.9515Y-3.5561
X1.9515Y-4.5403
X2.0515Y-1.5876
X2.0515Y-2.5718
X2.0515Y-3.5561
X2.0515Y-4.5403
X2.1515Y-1.5876
X2.1515Y-2.5718
X2.1515Y-3.5561
X2.1515Y-4.5403
X2.2515Y-1.5876
X2.2515Y-2.5718
X2.2515Y-3.5561
X2.2515Y-4.5403
X2.3515Y-1.5876
X2.3515Y-2.5718
X2.3515Y-3.5561
X2.3515Y-4.5403
X2.4515Y-1.5876
X2.4515Y-2.5718
X2.4515Y-3.5561
X2.4515Y-4.5403
X2.5515Y-1.5876
X2.5515Y-2.5718
X2.5515Y-3.5561
X2.5515Y-4.5403
X2.6515Y-1.5876
X2.6515Y-2.5718
X2.6515Y-3.5561
X2.6515Y-4.5403
X2.7515Y-1.5876
X2.7515Y-2.5718
X2.7515Y-3.5561
X2.7515Y-4.5403
X2.8515Y-1.5876
X2.8515Y-2.5718
X2.8515Y-3.5561
X2.8515Y-4.5403
X2.9515Y-1.5876
X2.9515Y-2.5718
X2.9515Y-3.5561
X2.9515Y-4.5403
X3.0515Y-1.5876
X3.0515Y-2.5718
X3.0515Y-3.5561
X3.0515Y-4.5403
X3.2838Y-1.5876
X3.2838Y-2.5718
X3.2838Y-3.5561
X3.2838Y-4.5403
X3.3661Y-1.7693
X3.3661Y-1.8693
X3.3661Y-1.9693
X3.3661Y-2.0693
X3.3661Y-2.1693
X3.3661Y-2.7535
X3.3661Y-2.8535
X3.3661Y-2.9535
X3.3661Y-3.0535
X3.3661Y-3.1535
X3.3661Y-3.7378
X3.3661Y-3.8378
X3.3661Y-3.9378
X3.3661Y-4.0378
X3.3661Y-4.1378
X3.3661Y-4.722
X3.3661Y-4.822
X3.3661Y-4.922
X3.3661Y-5.022
X3.3661Y-5.122
X3.3838Y-1.5876
X3.3838Y-2.5718
X3.3838Y-3.5561
X3.3838Y-4.5403
X3.4838Y-1.5876
X3.4838Y-2.5718
X3.4838Y-3.5561
X3.4838Y-4.5403
X3.5838Y-1.5876
X3.5838Y-2.5718
X3.5838Y-3.5561
X3.5838Y-4.5403
X3.6838Y-1.5876
X3.6838Y-2.5718
X3.6838Y-3.5561
X3.6838Y-4.5403
X3.7838Y-1.5876
X3.7838Y-2.5718
X3.7838Y-3.5561
X3.7838Y-4.5403
X3.8838Y-1.5876
X3.8838Y-2.5718
X3.8838Y-3.5561
X3.8838Y-4.5403
X3.9838Y-1.5876
X3.9838Y-2.5718
X3.9838Y-3.5561
X3.9838Y-4.5403
X4.0838Y-1.5876
X4.0838Y-2.5718
X4.0838Y-3.5561
X4.0838Y-4.5403
X4.1838Y-1.5876
X4.1838Y-2.5718
X4.1838Y-3.5561
X4.1838Y-4.5403
X4.2838Y-1.5876
X4.2838Y-2.5718
X4.2838Y-3.5561
X4.2838Y-4.5403
X4.3838Y-1.5876
X4.3838Y-2.5718
X4.3838Y-3.5561
X4.3838Y-4.5403
X4.4838Y-1.5876
X4.4838Y-2.5718
X4.4838Y-3.5561
X4.4838Y-4.5403
X4.5838Y-1.5876
X4.5838Y-2.5718
X4.5838Y-3.5561
X4.5838Y-4.5403
X4.6838Y-1.5876
X4.6838Y-2.5718
X4.6838Y-3.5561
X4.6838Y-4.5403
X4.7838Y-1.5876
X4.7838Y-2.5718
X4.7838Y-3.5561
X4.7838Y-4.5403
X5.016Y-1.5876
X5.016Y-2.5718
X5.016Y-3.5561
X5.016Y-4.5403
X5.0984Y-1.7693
X5.0984Y-1.8693
X5.0984Y-1.9693
X5.0984Y-2.0693
X5.0984Y-2.1693
X5.0984Y-2.7535
X5.0984Y-2.8535
X5.0984Y-2.9535
X5.0984Y-3.0535
X5.0984Y-3.1535
X5.0984Y-3.7378
X5.0984Y-3.8378
X5.0984Y-3.9378
X5.0984Y-4.0378
X5.0984Y-4.1378
X5.0984Y-4.722
X5.0984Y-4.822
X5.0984Y-4.922
X5.0984Y-5.022
X5.0984Y-5.122
X5.116Y-1.5876
X5.116Y-2.5718
X5.116Y-3.5561
X5.116Y-4.5403
X5.216Y-1.5876
X5.216Y-2.5718
X5.216Y-3.5561
X5.216Y-4.5403
X5.316Y-1.5876
X5.316Y-2.5718
X5.316Y-3.5561
X5.316Y-4.5403
X5.416Y-1.5876
X5.416Y-2.5718
X5.416Y-3.5561
X5.416Y-4.5403
X5.516Y-1.5876
X5.516Y-2.5718
X5.516Y-3.5561
X5.516Y-4.5403
X5.616Y-1.5876
X5.616Y-2.5718
X5.616Y-3.5561
X5.616Y-4.5403
X5.716Y-1.5876
X5.716Y-2.5718
X5.716Y-3.5561
X5.716Y-4.5403
X5.816Y-1.5876
X5.816Y-2.5718
X5.816Y-3.5561
X5.816Y-4.5403
X5.916Y-1.5876
X5.916Y-2.5718
X5.916Y-3.5561
X5.916Y-4.5403
X6.016Y-1.5876
X6.016Y-2.5718
X6.016Y-3.5561
X6.016Y-4.5403
X6.116Y-1.5876
X6.116Y-2.5718
X6.116Y-3.5561
X6.116Y-4.5403
X6.216Y-1.5876
X6.216Y-2.5718
X6.216Y-3.5561
X6.216Y-4.5403
X6.316Y-1.5876
X6.316Y-2.5718
X6.316Y-3.5561
X6.316Y-4.5403
X6.416Y-1.5876
X6.416Y-2.5718
X6.416Y-3.5561
X6.416Y-4.5403
X6.516Y-1.5876
X6.516Y-2.5718
X6.516Y-3.5561
X6.516Y-4.5403
X6.7483Y-1.5876
X6.7483Y-2.5718
X6.7483Y-3.5561
X6.7483Y-4.5403
X6.8307Y-1.7693
X6.8307Y-1.8693
X6.8307Y-1.9693
X6.8307Y-2.0693
X6.8307Y-2.1693
X6.8307Y-2.7535
X6.8307Y-2.8535
X6.8307Y-2.9535
X6.8307Y-3.0535
X6.8307Y-3.1535
X6.8307Y-3.7378
X6.8307Y-3.8378
X6.8307Y-3.9378
X6.8307Y-4.0378
X6.8307Y-4.1378
X6.8307Y-4.722
X6.8307Y-4.822
X6.8307Y-4.922
X6.8307Y-5.022
X6.8307Y-5.122
X6.8483Y-1.5876
X6.8483Y-2.5718
X6.8483Y-3.5561
X6.8483Y-4.5403
X6.9483Y-1.5876
X6.9483Y-2.5718
X6.9483Y-3.5561
X6.9483Y-4.5403
X7.0483Y-1.5876
X7.0483Y-2.5718
X7.0483Y-3.5561
X7.0483Y-4.5403
X7.1483Y-1.5876
X7.1483Y-2.5718
X7.1483Y-3.5561
X7.1483Y-4.5403
X7.2483Y-1.5876
X7.2483Y-2.5718
X7.2483Y-3.5561
X7.2483Y-4.5403
X7.3483Y-1.5876
X7.3483Y-2.5718
X7.3483Y-3.5561
X7.3483Y-4.5403
X7.4483Y-1.5876
X7.4483Y-2.5718
X7.4483Y-3.5561
X7.4483Y-4.5403
X7.5483Y-1.5876
X7.5483Y-2.5718
X7.5483Y-3.5561
X7.5483Y-4.5403
X7.6483Y-1.5876
X7.6483Y-2.5718
X7.6483Y-3.5561
X7.6483Y-4.5403
X7.7483Y-1.5876
X7.7483Y-2.5718
X7.7483Y-3.5561
X7.7483Y-4.5403
X7.8483Y-1.5876
X7.8483Y-2.5718
X7.8483Y-3.5561
X7.8483Y-4.5403
X7.9483Y-1.5876
X7.9483Y-2.5718
X7.9483Y-3.5561
X7.9483Y-4.5403
X8.0483Y-1.5876
X8.0483Y-2.5718
X8.0483Y-3.5561
X8.0483Y-4.5403
X8.1483Y-1.5876
X8.1483Y-2.5718
X8.1483Y-3.5561
X8.1483Y-4.5403
X8.2483Y-1.5876
X8.2483Y-2.5718
X8.2483Y-3.5561
X8.2483Y-4.5403
T0
M30
