G04 #@! TF.FileFunction,Soldermask,Top*
%FSLAX46Y46*%
G04 Gerber Fmt 4.6, Leading zero omitted, Abs format (unit mm)*
G04 Created by KiCad (PCBNEW (2015-11-29 BZR 6336, Git 7b0d981)-product) date czw, 10 gru 2015, 08:29:52*
%MOMM*%
G01*
G04 APERTURE LIST*
%ADD10C,0.100000*%
%ADD11R,2.127200X2.432000*%
%ADD12O,2.127200X2.432000*%
%ADD13R,1.200100X1.200100*%
%ADD14R,1.460000X1.050000*%
%ADD15R,1.050000X1.460000*%
%ADD16R,0.900000X1.300000*%
%ADD17R,0.800000X1.500000*%
%ADD18R,1.300000X0.900000*%
%ADD19R,1.850000X0.850000*%
%ADD20R,2.432000X2.127200*%
%ADD21O,2.432000X2.127200*%
G04 APERTURE END LIST*
D10*
D11*
X209507274Y-115324762D03*
D12*
X206967274Y-115324762D03*
X204427274Y-115324762D03*
X201887274Y-115324762D03*
X199347274Y-115324762D03*
X196807274Y-115324762D03*
X194267274Y-115324762D03*
X191727274Y-115324762D03*
X189187274Y-115324762D03*
X186647274Y-115324762D03*
X184107274Y-115324762D03*
X181567274Y-115324762D03*
X179027274Y-115324762D03*
X176487274Y-115324762D03*
X173947274Y-115324762D03*
X171407274Y-115324762D03*
D11*
X165507274Y-115324762D03*
D12*
X162967274Y-115324762D03*
X160427274Y-115324762D03*
X157887274Y-115324762D03*
X155347274Y-115324762D03*
X152807274Y-115324762D03*
X150267274Y-115324762D03*
X147727274Y-115324762D03*
X145187274Y-115324762D03*
X142647274Y-115324762D03*
X140107274Y-115324762D03*
X137567274Y-115324762D03*
X135027274Y-115324762D03*
X132487274Y-115324762D03*
X129947274Y-115324762D03*
X127407274Y-115324762D03*
D11*
X121507274Y-115324762D03*
D12*
X118967274Y-115324762D03*
X116427274Y-115324762D03*
X113887274Y-115324762D03*
X111347274Y-115324762D03*
X108807274Y-115324762D03*
X106267274Y-115324762D03*
X103727274Y-115324762D03*
X101187274Y-115324762D03*
X98647274Y-115324762D03*
X96107274Y-115324762D03*
X93567274Y-115324762D03*
X91027274Y-115324762D03*
X88487274Y-115324762D03*
X85947274Y-115324762D03*
X83407274Y-115324762D03*
D11*
X77507274Y-115324762D03*
D12*
X74967274Y-115324762D03*
X72427274Y-115324762D03*
X69887274Y-115324762D03*
X67347274Y-115324762D03*
X64807274Y-115324762D03*
X62267274Y-115324762D03*
X59727274Y-115324762D03*
X57187274Y-115324762D03*
X54647274Y-115324762D03*
X52107274Y-115324762D03*
X49567274Y-115324762D03*
X47027274Y-115324762D03*
X44487274Y-115324762D03*
X41947274Y-115324762D03*
X39407274Y-115324762D03*
D11*
X209507274Y-90324762D03*
D12*
X206967274Y-90324762D03*
X204427274Y-90324762D03*
X201887274Y-90324762D03*
X199347274Y-90324762D03*
X196807274Y-90324762D03*
X194267274Y-90324762D03*
X191727274Y-90324762D03*
X189187274Y-90324762D03*
X186647274Y-90324762D03*
X184107274Y-90324762D03*
X181567274Y-90324762D03*
X179027274Y-90324762D03*
X176487274Y-90324762D03*
X173947274Y-90324762D03*
X171407274Y-90324762D03*
D11*
X165507274Y-90324762D03*
D12*
X162967274Y-90324762D03*
X160427274Y-90324762D03*
X157887274Y-90324762D03*
X155347274Y-90324762D03*
X152807274Y-90324762D03*
X150267274Y-90324762D03*
X147727274Y-90324762D03*
X145187274Y-90324762D03*
X142647274Y-90324762D03*
X140107274Y-90324762D03*
X137567274Y-90324762D03*
X135027274Y-90324762D03*
X132487274Y-90324762D03*
X129947274Y-90324762D03*
X127407274Y-90324762D03*
D11*
X121507274Y-90324762D03*
D12*
X118967274Y-90324762D03*
X116427274Y-90324762D03*
X113887274Y-90324762D03*
X111347274Y-90324762D03*
X108807274Y-90324762D03*
X106267274Y-90324762D03*
X103727274Y-90324762D03*
X101187274Y-90324762D03*
X98647274Y-90324762D03*
X96107274Y-90324762D03*
X93567274Y-90324762D03*
X91027274Y-90324762D03*
X88487274Y-90324762D03*
X85947274Y-90324762D03*
X83407274Y-90324762D03*
D11*
X77507274Y-90324762D03*
D12*
X74967274Y-90324762D03*
X72427274Y-90324762D03*
X69887274Y-90324762D03*
X67347274Y-90324762D03*
X64807274Y-90324762D03*
X62267274Y-90324762D03*
X59727274Y-90324762D03*
X57187274Y-90324762D03*
X54647274Y-90324762D03*
X52107274Y-90324762D03*
X49567274Y-90324762D03*
X47027274Y-90324762D03*
X44487274Y-90324762D03*
X41947274Y-90324762D03*
X39407274Y-90324762D03*
D11*
X209507274Y-65324762D03*
D12*
X206967274Y-65324762D03*
X204427274Y-65324762D03*
X201887274Y-65324762D03*
X199347274Y-65324762D03*
X196807274Y-65324762D03*
X194267274Y-65324762D03*
X191727274Y-65324762D03*
X189187274Y-65324762D03*
X186647274Y-65324762D03*
X184107274Y-65324762D03*
X181567274Y-65324762D03*
X179027274Y-65324762D03*
X176487274Y-65324762D03*
X173947274Y-65324762D03*
X171407274Y-65324762D03*
D11*
X165507274Y-65324762D03*
D12*
X162967274Y-65324762D03*
X160427274Y-65324762D03*
X157887274Y-65324762D03*
X155347274Y-65324762D03*
X152807274Y-65324762D03*
X150267274Y-65324762D03*
X147727274Y-65324762D03*
X145187274Y-65324762D03*
X142647274Y-65324762D03*
X140107274Y-65324762D03*
X137567274Y-65324762D03*
X135027274Y-65324762D03*
X132487274Y-65324762D03*
X129947274Y-65324762D03*
X127407274Y-65324762D03*
D11*
X121507274Y-65324762D03*
D12*
X118967274Y-65324762D03*
X116427274Y-65324762D03*
X113887274Y-65324762D03*
X111347274Y-65324762D03*
X108807274Y-65324762D03*
X106267274Y-65324762D03*
X103727274Y-65324762D03*
X101187274Y-65324762D03*
X98647274Y-65324762D03*
X96107274Y-65324762D03*
X93567274Y-65324762D03*
X91027274Y-65324762D03*
X88487274Y-65324762D03*
X85947274Y-65324762D03*
X83407274Y-65324762D03*
D11*
X77507274Y-65324762D03*
D12*
X74967274Y-65324762D03*
X72427274Y-65324762D03*
X69887274Y-65324762D03*
X67347274Y-65324762D03*
X64807274Y-65324762D03*
X62267274Y-65324762D03*
X59727274Y-65324762D03*
X57187274Y-65324762D03*
X54647274Y-65324762D03*
X52107274Y-65324762D03*
X49567274Y-65324762D03*
X47027274Y-65324762D03*
X44487274Y-65324762D03*
X41947274Y-65324762D03*
X39407274Y-65324762D03*
D11*
X209507274Y-40324762D03*
D12*
X206967274Y-40324762D03*
X204427274Y-40324762D03*
X201887274Y-40324762D03*
X199347274Y-40324762D03*
X196807274Y-40324762D03*
X194267274Y-40324762D03*
X191727274Y-40324762D03*
X189187274Y-40324762D03*
X186647274Y-40324762D03*
X184107274Y-40324762D03*
X181567274Y-40324762D03*
X179027274Y-40324762D03*
X176487274Y-40324762D03*
X173947274Y-40324762D03*
X171407274Y-40324762D03*
D11*
X165507274Y-40324762D03*
D12*
X162967274Y-40324762D03*
X160427274Y-40324762D03*
X157887274Y-40324762D03*
X155347274Y-40324762D03*
X152807274Y-40324762D03*
X150267274Y-40324762D03*
X147727274Y-40324762D03*
X145187274Y-40324762D03*
X142647274Y-40324762D03*
X140107274Y-40324762D03*
X137567274Y-40324762D03*
X135027274Y-40324762D03*
X132487274Y-40324762D03*
X129947274Y-40324762D03*
X127407274Y-40324762D03*
D11*
X121507274Y-40324762D03*
D12*
X118967274Y-40324762D03*
X116427274Y-40324762D03*
X113887274Y-40324762D03*
X111347274Y-40324762D03*
X108807274Y-40324762D03*
X106267274Y-40324762D03*
X103727274Y-40324762D03*
X101187274Y-40324762D03*
X98647274Y-40324762D03*
X96107274Y-40324762D03*
X93567274Y-40324762D03*
X91027274Y-40324762D03*
X88487274Y-40324762D03*
X85947274Y-40324762D03*
X83407274Y-40324762D03*
D13*
X204356514Y-120474762D03*
X204356514Y-122374762D03*
X206355494Y-121424762D03*
X160356514Y-120474762D03*
X160356514Y-122374762D03*
X162355494Y-121424762D03*
X116356514Y-120474762D03*
X116356514Y-122374762D03*
X118355494Y-121424762D03*
X72356514Y-120474762D03*
X72356514Y-122374762D03*
X74355494Y-121424762D03*
X204356514Y-95474762D03*
X204356514Y-97374762D03*
X206355494Y-96424762D03*
X160356514Y-95474762D03*
X160356514Y-97374762D03*
X162355494Y-96424762D03*
X116356514Y-95474762D03*
X116356514Y-97374762D03*
X118355494Y-96424762D03*
X72356514Y-95474762D03*
X72356514Y-97374762D03*
X74355494Y-96424762D03*
X204356514Y-70474762D03*
X204356514Y-72374762D03*
X206355494Y-71424762D03*
X160356514Y-70474762D03*
X160356514Y-72374762D03*
X162355494Y-71424762D03*
X116356514Y-70474762D03*
X116356514Y-72374762D03*
X118355494Y-71424762D03*
X72356514Y-70474762D03*
X72356514Y-72374762D03*
X74355494Y-71424762D03*
X204356514Y-45474762D03*
X204356514Y-47374762D03*
X206355494Y-46424762D03*
X160356514Y-45474762D03*
X160356514Y-47374762D03*
X162355494Y-46424762D03*
X116356514Y-45474762D03*
X116356514Y-47374762D03*
X118355494Y-46424762D03*
D14*
X199007274Y-128024762D03*
X199007274Y-128974762D03*
X199007274Y-129924762D03*
X201207274Y-129924762D03*
X201207274Y-128024762D03*
X155007274Y-128024762D03*
X155007274Y-128974762D03*
X155007274Y-129924762D03*
X157207274Y-129924762D03*
X157207274Y-128024762D03*
X111007274Y-128024762D03*
X111007274Y-128974762D03*
X111007274Y-129924762D03*
X113207274Y-129924762D03*
X113207274Y-128024762D03*
X67007274Y-128024762D03*
X67007274Y-128974762D03*
X67007274Y-129924762D03*
X69207274Y-129924762D03*
X69207274Y-128024762D03*
X199007274Y-103024762D03*
X199007274Y-103974762D03*
X199007274Y-104924762D03*
X201207274Y-104924762D03*
X201207274Y-103024762D03*
X155007274Y-103024762D03*
X155007274Y-103974762D03*
X155007274Y-104924762D03*
X157207274Y-104924762D03*
X157207274Y-103024762D03*
X111007274Y-103024762D03*
X111007274Y-103974762D03*
X111007274Y-104924762D03*
X113207274Y-104924762D03*
X113207274Y-103024762D03*
X67007274Y-103024762D03*
X67007274Y-103974762D03*
X67007274Y-104924762D03*
X69207274Y-104924762D03*
X69207274Y-103024762D03*
X199007274Y-78024762D03*
X199007274Y-78974762D03*
X199007274Y-79924762D03*
X201207274Y-79924762D03*
X201207274Y-78024762D03*
X155007274Y-78024762D03*
X155007274Y-78974762D03*
X155007274Y-79924762D03*
X157207274Y-79924762D03*
X157207274Y-78024762D03*
X111007274Y-78024762D03*
X111007274Y-78974762D03*
X111007274Y-79924762D03*
X113207274Y-79924762D03*
X113207274Y-78024762D03*
X67007274Y-78024762D03*
X67007274Y-78974762D03*
X67007274Y-79924762D03*
X69207274Y-79924762D03*
X69207274Y-78024762D03*
X199007274Y-53024762D03*
X199007274Y-53974762D03*
X199007274Y-54924762D03*
X201207274Y-54924762D03*
X201207274Y-53024762D03*
X155007274Y-53024762D03*
X155007274Y-53974762D03*
X155007274Y-54924762D03*
X157207274Y-54924762D03*
X157207274Y-53024762D03*
X111007274Y-53024762D03*
X111007274Y-53974762D03*
X111007274Y-54924762D03*
X113207274Y-54924762D03*
X113207274Y-53024762D03*
D15*
X199307274Y-122574762D03*
X200257274Y-122574762D03*
X201207274Y-122574762D03*
X201207274Y-120374762D03*
X199307274Y-120374762D03*
X200257274Y-120374762D03*
X155307274Y-122574762D03*
X156257274Y-122574762D03*
X157207274Y-122574762D03*
X157207274Y-120374762D03*
X155307274Y-120374762D03*
X156257274Y-120374762D03*
X111307274Y-122574762D03*
X112257274Y-122574762D03*
X113207274Y-122574762D03*
X113207274Y-120374762D03*
X111307274Y-120374762D03*
X112257274Y-120374762D03*
X67307274Y-122574762D03*
X68257274Y-122574762D03*
X69207274Y-122574762D03*
X69207274Y-120374762D03*
X67307274Y-120374762D03*
X68257274Y-120374762D03*
X199307274Y-97574762D03*
X200257274Y-97574762D03*
X201207274Y-97574762D03*
X201207274Y-95374762D03*
X199307274Y-95374762D03*
X200257274Y-95374762D03*
X155307274Y-97574762D03*
X156257274Y-97574762D03*
X157207274Y-97574762D03*
X157207274Y-95374762D03*
X155307274Y-95374762D03*
X156257274Y-95374762D03*
X111307274Y-97574762D03*
X112257274Y-97574762D03*
X113207274Y-97574762D03*
X113207274Y-95374762D03*
X111307274Y-95374762D03*
X112257274Y-95374762D03*
X67307274Y-97574762D03*
X68257274Y-97574762D03*
X69207274Y-97574762D03*
X69207274Y-95374762D03*
X67307274Y-95374762D03*
X68257274Y-95374762D03*
X199307274Y-72574762D03*
X200257274Y-72574762D03*
X201207274Y-72574762D03*
X201207274Y-70374762D03*
X199307274Y-70374762D03*
X200257274Y-70374762D03*
X155307274Y-72574762D03*
X156257274Y-72574762D03*
X157207274Y-72574762D03*
X157207274Y-70374762D03*
X155307274Y-70374762D03*
X156257274Y-70374762D03*
X111307274Y-72574762D03*
X112257274Y-72574762D03*
X113207274Y-72574762D03*
X113207274Y-70374762D03*
X111307274Y-70374762D03*
X112257274Y-70374762D03*
X67307274Y-72574762D03*
X68257274Y-72574762D03*
X69207274Y-72574762D03*
X69207274Y-70374762D03*
X67307274Y-70374762D03*
X68257274Y-70374762D03*
X199307274Y-47574762D03*
X200257274Y-47574762D03*
X201207274Y-47574762D03*
X201207274Y-45374762D03*
X199307274Y-45374762D03*
X200257274Y-45374762D03*
X155307274Y-47574762D03*
X156257274Y-47574762D03*
X157207274Y-47574762D03*
X157207274Y-45374762D03*
X155307274Y-45374762D03*
X156257274Y-45374762D03*
X111307274Y-47574762D03*
X112257274Y-47574762D03*
X113207274Y-47574762D03*
X113207274Y-45374762D03*
X111307274Y-45374762D03*
X112257274Y-45374762D03*
X205257274Y-124574762D03*
X204307274Y-124574762D03*
X203357274Y-124574762D03*
X203357274Y-126774762D03*
X205257274Y-126774762D03*
X204307274Y-126774762D03*
X161257274Y-124574762D03*
X160307274Y-124574762D03*
X159357274Y-124574762D03*
X159357274Y-126774762D03*
X161257274Y-126774762D03*
X160307274Y-126774762D03*
X117257274Y-124574762D03*
X116307274Y-124574762D03*
X115357274Y-124574762D03*
X115357274Y-126774762D03*
X117257274Y-126774762D03*
X116307274Y-126774762D03*
X73257274Y-124574762D03*
X72307274Y-124574762D03*
X71357274Y-124574762D03*
X71357274Y-126774762D03*
X73257274Y-126774762D03*
X72307274Y-126774762D03*
X205257274Y-99574762D03*
X204307274Y-99574762D03*
X203357274Y-99574762D03*
X203357274Y-101774762D03*
X205257274Y-101774762D03*
X204307274Y-101774762D03*
X161257274Y-99574762D03*
X160307274Y-99574762D03*
X159357274Y-99574762D03*
X159357274Y-101774762D03*
X161257274Y-101774762D03*
X160307274Y-101774762D03*
X117257274Y-99574762D03*
X116307274Y-99574762D03*
X115357274Y-99574762D03*
X115357274Y-101774762D03*
X117257274Y-101774762D03*
X116307274Y-101774762D03*
X73257274Y-99574762D03*
X72307274Y-99574762D03*
X71357274Y-99574762D03*
X71357274Y-101774762D03*
X73257274Y-101774762D03*
X72307274Y-101774762D03*
X205257274Y-74574762D03*
X204307274Y-74574762D03*
X203357274Y-74574762D03*
X203357274Y-76774762D03*
X205257274Y-76774762D03*
X204307274Y-76774762D03*
X161257274Y-74574762D03*
X160307274Y-74574762D03*
X159357274Y-74574762D03*
X159357274Y-76774762D03*
X161257274Y-76774762D03*
X160307274Y-76774762D03*
X117257274Y-74574762D03*
X116307274Y-74574762D03*
X115357274Y-74574762D03*
X115357274Y-76774762D03*
X117257274Y-76774762D03*
X116307274Y-76774762D03*
X73257274Y-74574762D03*
X72307274Y-74574762D03*
X71357274Y-74574762D03*
X71357274Y-76774762D03*
X73257274Y-76774762D03*
X72307274Y-76774762D03*
X205257274Y-49574762D03*
X204307274Y-49574762D03*
X203357274Y-49574762D03*
X203357274Y-51774762D03*
X205257274Y-51774762D03*
X204307274Y-51774762D03*
X161257274Y-49574762D03*
X160307274Y-49574762D03*
X159357274Y-49574762D03*
X159357274Y-51774762D03*
X161257274Y-51774762D03*
X160307274Y-51774762D03*
X117257274Y-49574762D03*
X116307274Y-49574762D03*
X115357274Y-49574762D03*
X115357274Y-51774762D03*
X117257274Y-51774762D03*
X116307274Y-51774762D03*
D16*
X197449200Y-132049200D03*
X198949200Y-132049200D03*
X153449200Y-132049200D03*
X154949200Y-132049200D03*
X109449200Y-132049200D03*
X110949200Y-132049200D03*
X65449200Y-132049200D03*
X66949200Y-132049200D03*
X197449200Y-107049200D03*
X198949200Y-107049200D03*
X153449200Y-107049200D03*
X154949200Y-107049200D03*
X109449200Y-107049200D03*
X110949200Y-107049200D03*
X65449200Y-107049200D03*
X66949200Y-107049200D03*
X197449200Y-82049200D03*
X198949200Y-82049200D03*
X153449200Y-82049200D03*
X154949200Y-82049200D03*
X109449200Y-82049200D03*
X110949200Y-82049200D03*
X65449200Y-82049200D03*
X66949200Y-82049200D03*
X197449200Y-57049200D03*
X198949200Y-57049200D03*
X153449200Y-57049200D03*
X154949200Y-57049200D03*
X109449200Y-57049200D03*
X110949200Y-57049200D03*
D14*
X181649200Y-131724200D03*
X181649200Y-132674200D03*
X181649200Y-133624200D03*
X183849200Y-133624200D03*
X183849200Y-131724200D03*
X137649200Y-131724200D03*
X137649200Y-132674200D03*
X137649200Y-133624200D03*
X139849200Y-133624200D03*
X139849200Y-131724200D03*
X93649200Y-131724200D03*
X93649200Y-132674200D03*
X93649200Y-133624200D03*
X95849200Y-133624200D03*
X95849200Y-131724200D03*
X49649200Y-131724200D03*
X49649200Y-132674200D03*
X49649200Y-133624200D03*
X51849200Y-133624200D03*
X51849200Y-131724200D03*
X181649200Y-106724200D03*
X181649200Y-107674200D03*
X181649200Y-108624200D03*
X183849200Y-108624200D03*
X183849200Y-106724200D03*
X137649200Y-106724200D03*
X137649200Y-107674200D03*
X137649200Y-108624200D03*
X139849200Y-108624200D03*
X139849200Y-106724200D03*
X93649200Y-106724200D03*
X93649200Y-107674200D03*
X93649200Y-108624200D03*
X95849200Y-108624200D03*
X95849200Y-106724200D03*
X49649200Y-106724200D03*
X49649200Y-107674200D03*
X49649200Y-108624200D03*
X51849200Y-108624200D03*
X51849200Y-106724200D03*
X181649200Y-81724200D03*
X181649200Y-82674200D03*
X181649200Y-83624200D03*
X183849200Y-83624200D03*
X183849200Y-81724200D03*
X137649200Y-81724200D03*
X137649200Y-82674200D03*
X137649200Y-83624200D03*
X139849200Y-83624200D03*
X139849200Y-81724200D03*
X93649200Y-81724200D03*
X93649200Y-82674200D03*
X93649200Y-83624200D03*
X95849200Y-83624200D03*
X95849200Y-81724200D03*
X49649200Y-81724200D03*
X49649200Y-82674200D03*
X49649200Y-83624200D03*
X51849200Y-83624200D03*
X51849200Y-81724200D03*
X181649200Y-56724200D03*
X181649200Y-57674200D03*
X181649200Y-58624200D03*
X183849200Y-58624200D03*
X183849200Y-56724200D03*
X137649200Y-56724200D03*
X137649200Y-57674200D03*
X137649200Y-58624200D03*
X139849200Y-58624200D03*
X139849200Y-56724200D03*
X93649200Y-56724200D03*
X93649200Y-57674200D03*
X93649200Y-58624200D03*
X95849200Y-58624200D03*
X95849200Y-56724200D03*
D17*
X187132274Y-125174762D03*
X187782274Y-125174762D03*
X188432274Y-125174762D03*
X189082274Y-125174762D03*
X189732274Y-125174762D03*
X190382274Y-125174762D03*
X191032274Y-125174762D03*
X191682274Y-125174762D03*
X192332274Y-125174762D03*
X192982274Y-125174762D03*
X193632274Y-125174762D03*
X194282274Y-125174762D03*
X194282274Y-119474762D03*
X193632274Y-119474762D03*
X192982274Y-119474762D03*
X192332274Y-119474762D03*
X191682274Y-119474762D03*
X191032274Y-119474762D03*
X190382274Y-119474762D03*
X189732274Y-119474762D03*
X189082274Y-119474762D03*
X188432274Y-119474762D03*
X187782274Y-119474762D03*
X187132274Y-119474762D03*
X143132274Y-125174762D03*
X143782274Y-125174762D03*
X144432274Y-125174762D03*
X145082274Y-125174762D03*
X145732274Y-125174762D03*
X146382274Y-125174762D03*
X147032274Y-125174762D03*
X147682274Y-125174762D03*
X148332274Y-125174762D03*
X148982274Y-125174762D03*
X149632274Y-125174762D03*
X150282274Y-125174762D03*
X150282274Y-119474762D03*
X149632274Y-119474762D03*
X148982274Y-119474762D03*
X148332274Y-119474762D03*
X147682274Y-119474762D03*
X147032274Y-119474762D03*
X146382274Y-119474762D03*
X145732274Y-119474762D03*
X145082274Y-119474762D03*
X144432274Y-119474762D03*
X143782274Y-119474762D03*
X143132274Y-119474762D03*
X99132274Y-125174762D03*
X99782274Y-125174762D03*
X100432274Y-125174762D03*
X101082274Y-125174762D03*
X101732274Y-125174762D03*
X102382274Y-125174762D03*
X103032274Y-125174762D03*
X103682274Y-125174762D03*
X104332274Y-125174762D03*
X104982274Y-125174762D03*
X105632274Y-125174762D03*
X106282274Y-125174762D03*
X106282274Y-119474762D03*
X105632274Y-119474762D03*
X104982274Y-119474762D03*
X104332274Y-119474762D03*
X103682274Y-119474762D03*
X103032274Y-119474762D03*
X102382274Y-119474762D03*
X101732274Y-119474762D03*
X101082274Y-119474762D03*
X100432274Y-119474762D03*
X99782274Y-119474762D03*
X99132274Y-119474762D03*
X55132274Y-125174762D03*
X55782274Y-125174762D03*
X56432274Y-125174762D03*
X57082274Y-125174762D03*
X57732274Y-125174762D03*
X58382274Y-125174762D03*
X59032274Y-125174762D03*
X59682274Y-125174762D03*
X60332274Y-125174762D03*
X60982274Y-125174762D03*
X61632274Y-125174762D03*
X62282274Y-125174762D03*
X62282274Y-119474762D03*
X61632274Y-119474762D03*
X60982274Y-119474762D03*
X60332274Y-119474762D03*
X59682274Y-119474762D03*
X59032274Y-119474762D03*
X58382274Y-119474762D03*
X57732274Y-119474762D03*
X57082274Y-119474762D03*
X56432274Y-119474762D03*
X55782274Y-119474762D03*
X55132274Y-119474762D03*
X187132274Y-100174762D03*
X187782274Y-100174762D03*
X188432274Y-100174762D03*
X189082274Y-100174762D03*
X189732274Y-100174762D03*
X190382274Y-100174762D03*
X191032274Y-100174762D03*
X191682274Y-100174762D03*
X192332274Y-100174762D03*
X192982274Y-100174762D03*
X193632274Y-100174762D03*
X194282274Y-100174762D03*
X194282274Y-94474762D03*
X193632274Y-94474762D03*
X192982274Y-94474762D03*
X192332274Y-94474762D03*
X191682274Y-94474762D03*
X191032274Y-94474762D03*
X190382274Y-94474762D03*
X189732274Y-94474762D03*
X189082274Y-94474762D03*
X188432274Y-94474762D03*
X187782274Y-94474762D03*
X187132274Y-94474762D03*
X143132274Y-100174762D03*
X143782274Y-100174762D03*
X144432274Y-100174762D03*
X145082274Y-100174762D03*
X145732274Y-100174762D03*
X146382274Y-100174762D03*
X147032274Y-100174762D03*
X147682274Y-100174762D03*
X148332274Y-100174762D03*
X148982274Y-100174762D03*
X149632274Y-100174762D03*
X150282274Y-100174762D03*
X150282274Y-94474762D03*
X149632274Y-94474762D03*
X148982274Y-94474762D03*
X148332274Y-94474762D03*
X147682274Y-94474762D03*
X147032274Y-94474762D03*
X146382274Y-94474762D03*
X145732274Y-94474762D03*
X145082274Y-94474762D03*
X144432274Y-94474762D03*
X143782274Y-94474762D03*
X143132274Y-94474762D03*
X99132274Y-100174762D03*
X99782274Y-100174762D03*
X100432274Y-100174762D03*
X101082274Y-100174762D03*
X101732274Y-100174762D03*
X102382274Y-100174762D03*
X103032274Y-100174762D03*
X103682274Y-100174762D03*
X104332274Y-100174762D03*
X104982274Y-100174762D03*
X105632274Y-100174762D03*
X106282274Y-100174762D03*
X106282274Y-94474762D03*
X105632274Y-94474762D03*
X104982274Y-94474762D03*
X104332274Y-94474762D03*
X103682274Y-94474762D03*
X103032274Y-94474762D03*
X102382274Y-94474762D03*
X101732274Y-94474762D03*
X101082274Y-94474762D03*
X100432274Y-94474762D03*
X99782274Y-94474762D03*
X99132274Y-94474762D03*
X55132274Y-100174762D03*
X55782274Y-100174762D03*
X56432274Y-100174762D03*
X57082274Y-100174762D03*
X57732274Y-100174762D03*
X58382274Y-100174762D03*
X59032274Y-100174762D03*
X59682274Y-100174762D03*
X60332274Y-100174762D03*
X60982274Y-100174762D03*
X61632274Y-100174762D03*
X62282274Y-100174762D03*
X62282274Y-94474762D03*
X61632274Y-94474762D03*
X60982274Y-94474762D03*
X60332274Y-94474762D03*
X59682274Y-94474762D03*
X59032274Y-94474762D03*
X58382274Y-94474762D03*
X57732274Y-94474762D03*
X57082274Y-94474762D03*
X56432274Y-94474762D03*
X55782274Y-94474762D03*
X55132274Y-94474762D03*
X187132274Y-75174762D03*
X187782274Y-75174762D03*
X188432274Y-75174762D03*
X189082274Y-75174762D03*
X189732274Y-75174762D03*
X190382274Y-75174762D03*
X191032274Y-75174762D03*
X191682274Y-75174762D03*
X192332274Y-75174762D03*
X192982274Y-75174762D03*
X193632274Y-75174762D03*
X194282274Y-75174762D03*
X194282274Y-69474762D03*
X193632274Y-69474762D03*
X192982274Y-69474762D03*
X192332274Y-69474762D03*
X191682274Y-69474762D03*
X191032274Y-69474762D03*
X190382274Y-69474762D03*
X189732274Y-69474762D03*
X189082274Y-69474762D03*
X188432274Y-69474762D03*
X187782274Y-69474762D03*
X187132274Y-69474762D03*
X143132274Y-75174762D03*
X143782274Y-75174762D03*
X144432274Y-75174762D03*
X145082274Y-75174762D03*
X145732274Y-75174762D03*
X146382274Y-75174762D03*
X147032274Y-75174762D03*
X147682274Y-75174762D03*
X148332274Y-75174762D03*
X148982274Y-75174762D03*
X149632274Y-75174762D03*
X150282274Y-75174762D03*
X150282274Y-69474762D03*
X149632274Y-69474762D03*
X148982274Y-69474762D03*
X148332274Y-69474762D03*
X147682274Y-69474762D03*
X147032274Y-69474762D03*
X146382274Y-69474762D03*
X145732274Y-69474762D03*
X145082274Y-69474762D03*
X144432274Y-69474762D03*
X143782274Y-69474762D03*
X143132274Y-69474762D03*
X99132274Y-75174762D03*
X99782274Y-75174762D03*
X100432274Y-75174762D03*
X101082274Y-75174762D03*
X101732274Y-75174762D03*
X102382274Y-75174762D03*
X103032274Y-75174762D03*
X103682274Y-75174762D03*
X104332274Y-75174762D03*
X104982274Y-75174762D03*
X105632274Y-75174762D03*
X106282274Y-75174762D03*
X106282274Y-69474762D03*
X105632274Y-69474762D03*
X104982274Y-69474762D03*
X104332274Y-69474762D03*
X103682274Y-69474762D03*
X103032274Y-69474762D03*
X102382274Y-69474762D03*
X101732274Y-69474762D03*
X101082274Y-69474762D03*
X100432274Y-69474762D03*
X99782274Y-69474762D03*
X99132274Y-69474762D03*
X55132274Y-75174762D03*
X55782274Y-75174762D03*
X56432274Y-75174762D03*
X57082274Y-75174762D03*
X57732274Y-75174762D03*
X58382274Y-75174762D03*
X59032274Y-75174762D03*
X59682274Y-75174762D03*
X60332274Y-75174762D03*
X60982274Y-75174762D03*
X61632274Y-75174762D03*
X62282274Y-75174762D03*
X62282274Y-69474762D03*
X61632274Y-69474762D03*
X60982274Y-69474762D03*
X60332274Y-69474762D03*
X59682274Y-69474762D03*
X59032274Y-69474762D03*
X58382274Y-69474762D03*
X57732274Y-69474762D03*
X57082274Y-69474762D03*
X56432274Y-69474762D03*
X55782274Y-69474762D03*
X55132274Y-69474762D03*
X187132274Y-50174762D03*
X187782274Y-50174762D03*
X188432274Y-50174762D03*
X189082274Y-50174762D03*
X189732274Y-50174762D03*
X190382274Y-50174762D03*
X191032274Y-50174762D03*
X191682274Y-50174762D03*
X192332274Y-50174762D03*
X192982274Y-50174762D03*
X193632274Y-50174762D03*
X194282274Y-50174762D03*
X194282274Y-44474762D03*
X193632274Y-44474762D03*
X192982274Y-44474762D03*
X192332274Y-44474762D03*
X191682274Y-44474762D03*
X191032274Y-44474762D03*
X190382274Y-44474762D03*
X189732274Y-44474762D03*
X189082274Y-44474762D03*
X188432274Y-44474762D03*
X187782274Y-44474762D03*
X187132274Y-44474762D03*
X143132274Y-50174762D03*
X143782274Y-50174762D03*
X144432274Y-50174762D03*
X145082274Y-50174762D03*
X145732274Y-50174762D03*
X146382274Y-50174762D03*
X147032274Y-50174762D03*
X147682274Y-50174762D03*
X148332274Y-50174762D03*
X148982274Y-50174762D03*
X149632274Y-50174762D03*
X150282274Y-50174762D03*
X150282274Y-44474762D03*
X149632274Y-44474762D03*
X148982274Y-44474762D03*
X148332274Y-44474762D03*
X147682274Y-44474762D03*
X147032274Y-44474762D03*
X146382274Y-44474762D03*
X145732274Y-44474762D03*
X145082274Y-44474762D03*
X144432274Y-44474762D03*
X143782274Y-44474762D03*
X143132274Y-44474762D03*
X99132274Y-50174762D03*
X99782274Y-50174762D03*
X100432274Y-50174762D03*
X101082274Y-50174762D03*
X101732274Y-50174762D03*
X102382274Y-50174762D03*
X103032274Y-50174762D03*
X103682274Y-50174762D03*
X104332274Y-50174762D03*
X104982274Y-50174762D03*
X105632274Y-50174762D03*
X106282274Y-50174762D03*
X106282274Y-44474762D03*
X105632274Y-44474762D03*
X104982274Y-44474762D03*
X104332274Y-44474762D03*
X103682274Y-44474762D03*
X103032274Y-44474762D03*
X102382274Y-44474762D03*
X101732274Y-44474762D03*
X101082274Y-44474762D03*
X100432274Y-44474762D03*
X99782274Y-44474762D03*
X99132274Y-44474762D03*
D18*
X184149200Y-126449200D03*
X184149200Y-124949200D03*
X140149200Y-126449200D03*
X140149200Y-124949200D03*
X96149200Y-126449200D03*
X96149200Y-124949200D03*
X52149200Y-126449200D03*
X52149200Y-124949200D03*
X184149200Y-101449200D03*
X184149200Y-99949200D03*
X140149200Y-101449200D03*
X140149200Y-99949200D03*
X96149200Y-101449200D03*
X96149200Y-99949200D03*
X52149200Y-101449200D03*
X52149200Y-99949200D03*
X184149200Y-76449200D03*
X184149200Y-74949200D03*
X140149200Y-76449200D03*
X140149200Y-74949200D03*
X96149200Y-76449200D03*
X96149200Y-74949200D03*
X52149200Y-76449200D03*
X52149200Y-74949200D03*
X184149200Y-51449200D03*
X184149200Y-49949200D03*
X140149200Y-51449200D03*
X140149200Y-49949200D03*
X96149200Y-51449200D03*
X96149200Y-49949200D03*
D16*
X183799200Y-128349200D03*
X185299200Y-128349200D03*
X139799200Y-128349200D03*
X141299200Y-128349200D03*
X95799200Y-128349200D03*
X97299200Y-128349200D03*
X51799200Y-128349200D03*
X53299200Y-128349200D03*
X183799200Y-103349200D03*
X185299200Y-103349200D03*
X139799200Y-103349200D03*
X141299200Y-103349200D03*
X95799200Y-103349200D03*
X97299200Y-103349200D03*
X51799200Y-103349200D03*
X53299200Y-103349200D03*
X183799200Y-78349200D03*
X185299200Y-78349200D03*
X139799200Y-78349200D03*
X141299200Y-78349200D03*
X95799200Y-78349200D03*
X97299200Y-78349200D03*
X51799200Y-78349200D03*
X53299200Y-78349200D03*
X183799200Y-53349200D03*
X185299200Y-53349200D03*
X139799200Y-53349200D03*
X141299200Y-53349200D03*
X95799200Y-53349200D03*
X97299200Y-53349200D03*
X184599200Y-120699200D03*
X183099200Y-120699200D03*
X140599200Y-120699200D03*
X139099200Y-120699200D03*
X96599200Y-120699200D03*
X95099200Y-120699200D03*
X52599200Y-120699200D03*
X51099200Y-120699200D03*
X184599200Y-95699200D03*
X183099200Y-95699200D03*
X140599200Y-95699200D03*
X139099200Y-95699200D03*
X96599200Y-95699200D03*
X95099200Y-95699200D03*
X52599200Y-95699200D03*
X51099200Y-95699200D03*
X184599200Y-70699200D03*
X183099200Y-70699200D03*
X140599200Y-70699200D03*
X139099200Y-70699200D03*
X96599200Y-70699200D03*
X95099200Y-70699200D03*
X52599200Y-70699200D03*
X51099200Y-70699200D03*
X184599200Y-45699200D03*
X183099200Y-45699200D03*
X140599200Y-45699200D03*
X139099200Y-45699200D03*
X96599200Y-45699200D03*
X95099200Y-45699200D03*
D19*
X193449200Y-132549200D03*
X193449200Y-131899200D03*
X193449200Y-131249200D03*
X193449200Y-130599200D03*
X193449200Y-129949200D03*
X193449200Y-129299200D03*
X193449200Y-128649200D03*
X187549200Y-128649200D03*
X187549200Y-129299200D03*
X187549200Y-129949200D03*
X187549200Y-130599200D03*
X187549200Y-131249200D03*
X187549200Y-131899200D03*
X187549200Y-132549200D03*
X149449200Y-132549200D03*
X149449200Y-131899200D03*
X149449200Y-131249200D03*
X149449200Y-130599200D03*
X149449200Y-129949200D03*
X149449200Y-129299200D03*
X149449200Y-128649200D03*
X143549200Y-128649200D03*
X143549200Y-129299200D03*
X143549200Y-129949200D03*
X143549200Y-130599200D03*
X143549200Y-131249200D03*
X143549200Y-131899200D03*
X143549200Y-132549200D03*
X105449200Y-132549200D03*
X105449200Y-131899200D03*
X105449200Y-131249200D03*
X105449200Y-130599200D03*
X105449200Y-129949200D03*
X105449200Y-129299200D03*
X105449200Y-128649200D03*
X99549200Y-128649200D03*
X99549200Y-129299200D03*
X99549200Y-129949200D03*
X99549200Y-130599200D03*
X99549200Y-131249200D03*
X99549200Y-131899200D03*
X99549200Y-132549200D03*
X61449200Y-132549200D03*
X61449200Y-131899200D03*
X61449200Y-131249200D03*
X61449200Y-130599200D03*
X61449200Y-129949200D03*
X61449200Y-129299200D03*
X61449200Y-128649200D03*
X55549200Y-128649200D03*
X55549200Y-129299200D03*
X55549200Y-129949200D03*
X55549200Y-130599200D03*
X55549200Y-131249200D03*
X55549200Y-131899200D03*
X55549200Y-132549200D03*
X193449200Y-107549200D03*
X193449200Y-106899200D03*
X193449200Y-106249200D03*
X193449200Y-105599200D03*
X193449200Y-104949200D03*
X193449200Y-104299200D03*
X193449200Y-103649200D03*
X187549200Y-103649200D03*
X187549200Y-104299200D03*
X187549200Y-104949200D03*
X187549200Y-105599200D03*
X187549200Y-106249200D03*
X187549200Y-106899200D03*
X187549200Y-107549200D03*
X149449200Y-107549200D03*
X149449200Y-106899200D03*
X149449200Y-106249200D03*
X149449200Y-105599200D03*
X149449200Y-104949200D03*
X149449200Y-104299200D03*
X149449200Y-103649200D03*
X143549200Y-103649200D03*
X143549200Y-104299200D03*
X143549200Y-104949200D03*
X143549200Y-105599200D03*
X143549200Y-106249200D03*
X143549200Y-106899200D03*
X143549200Y-107549200D03*
X105449200Y-107549200D03*
X105449200Y-106899200D03*
X105449200Y-106249200D03*
X105449200Y-105599200D03*
X105449200Y-104949200D03*
X105449200Y-104299200D03*
X105449200Y-103649200D03*
X99549200Y-103649200D03*
X99549200Y-104299200D03*
X99549200Y-104949200D03*
X99549200Y-105599200D03*
X99549200Y-106249200D03*
X99549200Y-106899200D03*
X99549200Y-107549200D03*
X61449200Y-107549200D03*
X61449200Y-106899200D03*
X61449200Y-106249200D03*
X61449200Y-105599200D03*
X61449200Y-104949200D03*
X61449200Y-104299200D03*
X61449200Y-103649200D03*
X55549200Y-103649200D03*
X55549200Y-104299200D03*
X55549200Y-104949200D03*
X55549200Y-105599200D03*
X55549200Y-106249200D03*
X55549200Y-106899200D03*
X55549200Y-107549200D03*
X193449200Y-82549200D03*
X193449200Y-81899200D03*
X193449200Y-81249200D03*
X193449200Y-80599200D03*
X193449200Y-79949200D03*
X193449200Y-79299200D03*
X193449200Y-78649200D03*
X187549200Y-78649200D03*
X187549200Y-79299200D03*
X187549200Y-79949200D03*
X187549200Y-80599200D03*
X187549200Y-81249200D03*
X187549200Y-81899200D03*
X187549200Y-82549200D03*
X149449200Y-82549200D03*
X149449200Y-81899200D03*
X149449200Y-81249200D03*
X149449200Y-80599200D03*
X149449200Y-79949200D03*
X149449200Y-79299200D03*
X149449200Y-78649200D03*
X143549200Y-78649200D03*
X143549200Y-79299200D03*
X143549200Y-79949200D03*
X143549200Y-80599200D03*
X143549200Y-81249200D03*
X143549200Y-81899200D03*
X143549200Y-82549200D03*
X105449200Y-82549200D03*
X105449200Y-81899200D03*
X105449200Y-81249200D03*
X105449200Y-80599200D03*
X105449200Y-79949200D03*
X105449200Y-79299200D03*
X105449200Y-78649200D03*
X99549200Y-78649200D03*
X99549200Y-79299200D03*
X99549200Y-79949200D03*
X99549200Y-80599200D03*
X99549200Y-81249200D03*
X99549200Y-81899200D03*
X99549200Y-82549200D03*
X61449200Y-82549200D03*
X61449200Y-81899200D03*
X61449200Y-81249200D03*
X61449200Y-80599200D03*
X61449200Y-79949200D03*
X61449200Y-79299200D03*
X61449200Y-78649200D03*
X55549200Y-78649200D03*
X55549200Y-79299200D03*
X55549200Y-79949200D03*
X55549200Y-80599200D03*
X55549200Y-81249200D03*
X55549200Y-81899200D03*
X55549200Y-82549200D03*
X193449200Y-57549200D03*
X193449200Y-56899200D03*
X193449200Y-56249200D03*
X193449200Y-55599200D03*
X193449200Y-54949200D03*
X193449200Y-54299200D03*
X193449200Y-53649200D03*
X187549200Y-53649200D03*
X187549200Y-54299200D03*
X187549200Y-54949200D03*
X187549200Y-55599200D03*
X187549200Y-56249200D03*
X187549200Y-56899200D03*
X187549200Y-57549200D03*
X149449200Y-57549200D03*
X149449200Y-56899200D03*
X149449200Y-56249200D03*
X149449200Y-55599200D03*
X149449200Y-54949200D03*
X149449200Y-54299200D03*
X149449200Y-53649200D03*
X143549200Y-53649200D03*
X143549200Y-54299200D03*
X143549200Y-54949200D03*
X143549200Y-55599200D03*
X143549200Y-56249200D03*
X143549200Y-56899200D03*
X143549200Y-57549200D03*
X105449200Y-57549200D03*
X105449200Y-56899200D03*
X105449200Y-56249200D03*
X105449200Y-55599200D03*
X105449200Y-54949200D03*
X105449200Y-54299200D03*
X105449200Y-53649200D03*
X99549200Y-53649200D03*
X99549200Y-54299200D03*
X99549200Y-54949200D03*
X99549200Y-55599200D03*
X99549200Y-56249200D03*
X99549200Y-56899200D03*
X99549200Y-57549200D03*
D18*
X181949200Y-129149200D03*
X181949200Y-127649200D03*
X137949200Y-129149200D03*
X137949200Y-127649200D03*
X93949200Y-129149200D03*
X93949200Y-127649200D03*
X49949200Y-129149200D03*
X49949200Y-127649200D03*
X181949200Y-104149200D03*
X181949200Y-102649200D03*
X137949200Y-104149200D03*
X137949200Y-102649200D03*
X93949200Y-104149200D03*
X93949200Y-102649200D03*
X49949200Y-104149200D03*
X49949200Y-102649200D03*
X181949200Y-79149200D03*
X181949200Y-77649200D03*
X137949200Y-79149200D03*
X137949200Y-77649200D03*
X93949200Y-79149200D03*
X93949200Y-77649200D03*
X49949200Y-79149200D03*
X49949200Y-77649200D03*
X181949200Y-54149200D03*
X181949200Y-52649200D03*
X137949200Y-54149200D03*
X137949200Y-52649200D03*
X93949200Y-54149200D03*
X93949200Y-52649200D03*
D20*
X173499200Y-130099200D03*
D21*
X173499200Y-127559200D03*
X173499200Y-125019200D03*
X173499200Y-122479200D03*
X173499200Y-119939200D03*
D20*
X129499200Y-130099200D03*
D21*
X129499200Y-127559200D03*
X129499200Y-125019200D03*
X129499200Y-122479200D03*
X129499200Y-119939200D03*
D20*
X85499200Y-130099200D03*
D21*
X85499200Y-127559200D03*
X85499200Y-125019200D03*
X85499200Y-122479200D03*
X85499200Y-119939200D03*
D20*
X41499200Y-130099200D03*
D21*
X41499200Y-127559200D03*
X41499200Y-125019200D03*
X41499200Y-122479200D03*
X41499200Y-119939200D03*
D20*
X173499200Y-105099200D03*
D21*
X173499200Y-102559200D03*
X173499200Y-100019200D03*
X173499200Y-97479200D03*
X173499200Y-94939200D03*
D20*
X129499200Y-105099200D03*
D21*
X129499200Y-102559200D03*
X129499200Y-100019200D03*
X129499200Y-97479200D03*
X129499200Y-94939200D03*
D20*
X85499200Y-105099200D03*
D21*
X85499200Y-102559200D03*
X85499200Y-100019200D03*
X85499200Y-97479200D03*
X85499200Y-94939200D03*
D20*
X41499200Y-105099200D03*
D21*
X41499200Y-102559200D03*
X41499200Y-100019200D03*
X41499200Y-97479200D03*
X41499200Y-94939200D03*
D20*
X173499200Y-80099200D03*
D21*
X173499200Y-77559200D03*
X173499200Y-75019200D03*
X173499200Y-72479200D03*
X173499200Y-69939200D03*
D20*
X129499200Y-80099200D03*
D21*
X129499200Y-77559200D03*
X129499200Y-75019200D03*
X129499200Y-72479200D03*
X129499200Y-69939200D03*
D20*
X85499200Y-80099200D03*
D21*
X85499200Y-77559200D03*
X85499200Y-75019200D03*
X85499200Y-72479200D03*
X85499200Y-69939200D03*
D20*
X41499200Y-80099200D03*
D21*
X41499200Y-77559200D03*
X41499200Y-75019200D03*
X41499200Y-72479200D03*
X41499200Y-69939200D03*
D20*
X173499200Y-55099200D03*
D21*
X173499200Y-52559200D03*
X173499200Y-50019200D03*
X173499200Y-47479200D03*
X173499200Y-44939200D03*
D20*
X129499200Y-55099200D03*
D21*
X129499200Y-52559200D03*
X129499200Y-50019200D03*
X129499200Y-47479200D03*
X129499200Y-44939200D03*
D20*
X85499200Y-55099200D03*
D21*
X85499200Y-52559200D03*
X85499200Y-50019200D03*
X85499200Y-47479200D03*
X85499200Y-44939200D03*
D18*
X176449200Y-122749200D03*
X176449200Y-121249200D03*
X132449200Y-122749200D03*
X132449200Y-121249200D03*
X88449200Y-122749200D03*
X88449200Y-121249200D03*
X44449200Y-122749200D03*
X44449200Y-121249200D03*
X176449200Y-97749200D03*
X176449200Y-96249200D03*
X132449200Y-97749200D03*
X132449200Y-96249200D03*
X88449200Y-97749200D03*
X88449200Y-96249200D03*
X44449200Y-97749200D03*
X44449200Y-96249200D03*
X176449200Y-72749200D03*
X176449200Y-71249200D03*
X132449200Y-72749200D03*
X132449200Y-71249200D03*
X88449200Y-72749200D03*
X88449200Y-71249200D03*
X44449200Y-72749200D03*
X44449200Y-71249200D03*
X176449200Y-47749200D03*
X176449200Y-46249200D03*
X132449200Y-47749200D03*
X132449200Y-46249200D03*
X88449200Y-47749200D03*
X88449200Y-46249200D03*
D15*
X180149200Y-121099200D03*
X179199200Y-121099200D03*
X178249200Y-121099200D03*
X178249200Y-123299200D03*
X180149200Y-123299200D03*
X179199200Y-123299200D03*
X136149200Y-121099200D03*
X135199200Y-121099200D03*
X134249200Y-121099200D03*
X134249200Y-123299200D03*
X136149200Y-123299200D03*
X135199200Y-123299200D03*
X92149200Y-121099200D03*
X91199200Y-121099200D03*
X90249200Y-121099200D03*
X90249200Y-123299200D03*
X92149200Y-123299200D03*
X91199200Y-123299200D03*
X48149200Y-121099200D03*
X47199200Y-121099200D03*
X46249200Y-121099200D03*
X46249200Y-123299200D03*
X48149200Y-123299200D03*
X47199200Y-123299200D03*
X180149200Y-96099200D03*
X179199200Y-96099200D03*
X178249200Y-96099200D03*
X178249200Y-98299200D03*
X180149200Y-98299200D03*
X179199200Y-98299200D03*
X136149200Y-96099200D03*
X135199200Y-96099200D03*
X134249200Y-96099200D03*
X134249200Y-98299200D03*
X136149200Y-98299200D03*
X135199200Y-98299200D03*
X92149200Y-96099200D03*
X91199200Y-96099200D03*
X90249200Y-96099200D03*
X90249200Y-98299200D03*
X92149200Y-98299200D03*
X91199200Y-98299200D03*
X48149200Y-96099200D03*
X47199200Y-96099200D03*
X46249200Y-96099200D03*
X46249200Y-98299200D03*
X48149200Y-98299200D03*
X47199200Y-98299200D03*
X180149200Y-71099200D03*
X179199200Y-71099200D03*
X178249200Y-71099200D03*
X178249200Y-73299200D03*
X180149200Y-73299200D03*
X179199200Y-73299200D03*
X136149200Y-71099200D03*
X135199200Y-71099200D03*
X134249200Y-71099200D03*
X134249200Y-73299200D03*
X136149200Y-73299200D03*
X135199200Y-73299200D03*
X92149200Y-71099200D03*
X91199200Y-71099200D03*
X90249200Y-71099200D03*
X90249200Y-73299200D03*
X92149200Y-73299200D03*
X91199200Y-73299200D03*
X48149200Y-71099200D03*
X47199200Y-71099200D03*
X46249200Y-71099200D03*
X46249200Y-73299200D03*
X48149200Y-73299200D03*
X47199200Y-73299200D03*
X180149200Y-46099200D03*
X179199200Y-46099200D03*
X178249200Y-46099200D03*
X178249200Y-48299200D03*
X180149200Y-48299200D03*
X179199200Y-48299200D03*
X136149200Y-46099200D03*
X135199200Y-46099200D03*
X134249200Y-46099200D03*
X134249200Y-48299200D03*
X136149200Y-48299200D03*
X135199200Y-48299200D03*
X92149200Y-46099200D03*
X91199200Y-46099200D03*
X90249200Y-46099200D03*
X90249200Y-48299200D03*
X92149200Y-48299200D03*
X91199200Y-48299200D03*
D13*
X179899960Y-129249200D03*
X179899960Y-127349200D03*
X177900980Y-128299200D03*
X135899960Y-129249200D03*
X135899960Y-127349200D03*
X133900980Y-128299200D03*
X91899960Y-129249200D03*
X91899960Y-127349200D03*
X89900980Y-128299200D03*
X47899960Y-129249200D03*
X47899960Y-127349200D03*
X45900980Y-128299200D03*
X179899960Y-104249200D03*
X179899960Y-102349200D03*
X177900980Y-103299200D03*
X135899960Y-104249200D03*
X135899960Y-102349200D03*
X133900980Y-103299200D03*
X91899960Y-104249200D03*
X91899960Y-102349200D03*
X89900980Y-103299200D03*
X47899960Y-104249200D03*
X47899960Y-102349200D03*
X45900980Y-103299200D03*
X179899960Y-79249200D03*
X179899960Y-77349200D03*
X177900980Y-78299200D03*
X135899960Y-79249200D03*
X135899960Y-77349200D03*
X133900980Y-78299200D03*
X91899960Y-79249200D03*
X91899960Y-77349200D03*
X89900980Y-78299200D03*
X47899960Y-79249200D03*
X47899960Y-77349200D03*
X45900980Y-78299200D03*
X179899960Y-54249200D03*
X179899960Y-52349200D03*
X177900980Y-53299200D03*
X135899960Y-54249200D03*
X135899960Y-52349200D03*
X133900980Y-53299200D03*
X91899960Y-54249200D03*
X91899960Y-52349200D03*
X89900980Y-53299200D03*
D16*
X179649200Y-130899200D03*
X178149200Y-130899200D03*
X135649200Y-130899200D03*
X134149200Y-130899200D03*
X91649200Y-130899200D03*
X90149200Y-130899200D03*
X47649200Y-130899200D03*
X46149200Y-130899200D03*
X179649200Y-105899200D03*
X178149200Y-105899200D03*
X135649200Y-105899200D03*
X134149200Y-105899200D03*
X91649200Y-105899200D03*
X90149200Y-105899200D03*
X47649200Y-105899200D03*
X46149200Y-105899200D03*
X179649200Y-80899200D03*
X178149200Y-80899200D03*
X135649200Y-80899200D03*
X134149200Y-80899200D03*
X91649200Y-80899200D03*
X90149200Y-80899200D03*
X47649200Y-80899200D03*
X46149200Y-80899200D03*
X179649200Y-55899200D03*
X178149200Y-55899200D03*
X135649200Y-55899200D03*
X134149200Y-55899200D03*
X91649200Y-55899200D03*
X90149200Y-55899200D03*
D14*
X49649200Y-56724200D03*
X49649200Y-57674200D03*
X49649200Y-58624200D03*
X51849200Y-58624200D03*
X51849200Y-56724200D03*
D11*
X77507274Y-40324762D03*
D12*
X74967274Y-40324762D03*
X72427274Y-40324762D03*
X69887274Y-40324762D03*
X67347274Y-40324762D03*
X64807274Y-40324762D03*
X62267274Y-40324762D03*
X59727274Y-40324762D03*
X57187274Y-40324762D03*
X54647274Y-40324762D03*
X52107274Y-40324762D03*
X49567274Y-40324762D03*
X47027274Y-40324762D03*
X44487274Y-40324762D03*
X41947274Y-40324762D03*
X39407274Y-40324762D03*
D13*
X72356514Y-45474762D03*
X72356514Y-47374762D03*
X74355494Y-46424762D03*
X47899960Y-54249200D03*
X47899960Y-52349200D03*
X45900980Y-53299200D03*
D16*
X52599200Y-45699200D03*
X51099200Y-45699200D03*
X65449200Y-57049200D03*
X66949200Y-57049200D03*
X47649200Y-55899200D03*
X46149200Y-55899200D03*
D18*
X49949200Y-54149200D03*
X49949200Y-52649200D03*
X52149200Y-51449200D03*
X52149200Y-49949200D03*
D17*
X55132274Y-50174762D03*
X55782274Y-50174762D03*
X56432274Y-50174762D03*
X57082274Y-50174762D03*
X57732274Y-50174762D03*
X58382274Y-50174762D03*
X59032274Y-50174762D03*
X59682274Y-50174762D03*
X60332274Y-50174762D03*
X60982274Y-50174762D03*
X61632274Y-50174762D03*
X62282274Y-50174762D03*
X62282274Y-44474762D03*
X61632274Y-44474762D03*
X60982274Y-44474762D03*
X60332274Y-44474762D03*
X59682274Y-44474762D03*
X59032274Y-44474762D03*
X58382274Y-44474762D03*
X57732274Y-44474762D03*
X57082274Y-44474762D03*
X56432274Y-44474762D03*
X55782274Y-44474762D03*
X55132274Y-44474762D03*
D15*
X67307274Y-47574762D03*
X68257274Y-47574762D03*
X69207274Y-47574762D03*
X69207274Y-45374762D03*
X67307274Y-45374762D03*
X68257274Y-45374762D03*
X73257274Y-49574762D03*
X72307274Y-49574762D03*
X71357274Y-49574762D03*
X71357274Y-51774762D03*
X73257274Y-51774762D03*
X72307274Y-51774762D03*
D14*
X67007274Y-53024762D03*
X67007274Y-53974762D03*
X67007274Y-54924762D03*
X69207274Y-54924762D03*
X69207274Y-53024762D03*
D19*
X61449200Y-57549200D03*
X61449200Y-56899200D03*
X61449200Y-56249200D03*
X61449200Y-55599200D03*
X61449200Y-54949200D03*
X61449200Y-54299200D03*
X61449200Y-53649200D03*
X55549200Y-53649200D03*
X55549200Y-54299200D03*
X55549200Y-54949200D03*
X55549200Y-55599200D03*
X55549200Y-56249200D03*
X55549200Y-56899200D03*
X55549200Y-57549200D03*
D18*
X44449200Y-47749200D03*
X44449200Y-46249200D03*
D16*
X51799200Y-53349200D03*
X53299200Y-53349200D03*
D20*
X41499200Y-55099200D03*
D21*
X41499200Y-52559200D03*
X41499200Y-50019200D03*
X41499200Y-47479200D03*
X41499200Y-44939200D03*
D15*
X48149200Y-46099200D03*
X47199200Y-46099200D03*
X46249200Y-46099200D03*
X46249200Y-48299200D03*
X48149200Y-48299200D03*
X47199200Y-48299200D03*
M02*
